<svg width="126" height="126" viewBox="0 0 126 126" fill="none" xmlns="http://www.w3.org/2000/svg">
<g clip-path="url(#clip0_1128_366)">
<path d="M24 82.8005C24.4444 82.5217 24.8557 82.1223 25.3393 81.9882C26.2838 81.7395 27.2457 81.5627 28.2168 81.4593C28.836 81.3854 29.0364 81.1247 29.0726 80.5144C29.2624 77.2382 29.4929 73.9635 29.7129 70.6872C30.0935 65.0119 30.4762 59.3355 30.8609 53.6582C30.9317 52.6033 30.9964 51.5574 31.0673 50.5071C31.1275 49.6225 31.5087 49.2593 32.4006 49.2397C32.726 49.2397 33.0529 49.2321 33.3783 49.2397C34.1135 49.2608 34.6137 49.6435 34.6393 50.2569C34.6679 50.9305 34.2973 51.3269 33.651 51.4761C33.532 51.5032 33.413 51.5258 33.2548 51.5604C33.1192 53.6009 32.9836 55.6203 32.845 57.712H40.1352C39.9981 55.6399 39.864 53.5994 39.7269 51.5333C39.4452 51.5198 39.2222 51.5167 39.0023 51.4956C38.3032 51.4263 37.8407 50.9576 37.8513 50.3413C37.8618 49.7249 38.3409 49.2743 39.0445 49.2502C39.5959 49.2321 40.1488 49.2321 40.7017 49.2502C41.4549 49.2743 41.8497 49.645 41.9069 50.4061C42.162 54.0309 42.4096 57.6563 42.6497 61.2821C42.9228 65.3329 43.193 69.3837 43.4602 73.4345C43.4783 73.7058 43.5265 73.9755 43.5717 74.3387L49.7199 73.1678C49.8706 71.0037 50.0212 68.8834 50.1719 66.7615C50.6088 60.2855 51.0442 53.8099 51.4781 47.3348C51.5127 46.8089 51.5187 46.2799 51.57 45.7585C51.6528 44.8935 52.0219 44.5137 52.8641 44.5077C55.6201 44.4896 58.3766 44.4896 61.1336 44.5077C61.9833 44.5077 62.3388 44.8634 62.4126 45.757C62.6085 48.3053 62.7757 50.8552 62.946 53.405C63.2232 57.5568 63.5034 61.7071 63.752 65.8588C63.7761 66.2522 63.6962 66.751 63.4612 67.0313C63.2578 67.2754 62.6989 67.4547 62.4202 67.3462C62.0722 67.2091 61.6579 66.7781 61.6081 66.4255C61.4289 65.1641 61.3776 63.8832 61.3068 62.6067C61.236 61.3303 61.2496 61.3439 60.0278 61.3439C57.8222 61.3439 55.6166 61.3439 53.411 61.3439C53.0117 61.3439 52.7677 61.3906 52.7375 61.8939C52.5251 65.4203 52.2856 68.9452 52.0505 72.4715C52.0645 72.5531 52.0873 72.6329 52.1183 72.7096L67.7052 69.7228V68.8186C67.7052 65.0591 67.7052 61.2992 67.7052 57.5387C67.7052 56.0513 67.9854 55.768 69.4452 55.768C75.3087 55.768 81.1738 55.7559 87.0373 55.783C87.6505 55.783 87.902 55.6037 88.0753 55.0205C88.6915 52.9333 89.3679 50.8642 90.0248 48.7891C90.3261 47.8216 90.5943 47.6257 91.5856 47.6242C94.2421 47.6242 96.8982 47.6242 99.5537 47.6242C100.619 47.6242 101.002 48.0085 101.002 49.0739C101.002 62.7866 101.002 76.5002 101.002 90.2149C101.002 91.1387 100.563 91.6812 99.852 91.6646C99.1409 91.6481 98.7492 91.1191 98.7492 90.1697C98.7492 79.7915 98.7492 69.4138 98.7492 59.0367V58.0661H70.0343V98.6737H78.923V97.8509C78.923 95.2438 78.923 92.6367 78.923 90.0296C78.923 88.8646 79.2876 88.5 80.4461 88.4969C83.0263 88.4969 85.6075 88.4969 88.1898 88.4969C89.4297 88.4969 89.7551 88.8179 89.7566 90.0401C89.7566 92.6231 89.7566 95.2051 89.7566 97.7861V98.6677H98.7462C98.7462 97.8042 98.7462 96.9135 98.7462 96.0229C98.7462 95.087 99.165 94.5521 99.8761 94.5551C100.587 94.5581 100.996 95.0916 100.999 96.0319C100.999 97.1351 100.967 98.2397 101.012 99.3473C101.041 100.059 100.852 100.613 100.248 101.005H24.0166L24 82.8005ZM67.6328 72.0255C66.6747 72.2123 65.7964 72.3856 64.921 72.5544C55.9992 74.2623 47.0769 75.9703 38.1541 77.6782C37.7353 77.7566 37.6177 77.9284 37.6253 78.3187C37.6434 79.1445 37.6403 79.9764 37.6253 80.7992C37.6102 81.7335 37.3451 82.0591 36.4306 82.2293C33.2578 82.8216 30.085 83.4244 26.9031 83.9699C26.3337 84.0679 26.2418 84.2849 26.2433 84.7927C26.2613 89.2293 26.2538 93.6659 26.2553 98.1025C26.2553 98.2954 26.2809 98.4868 26.2975 98.7053H67.6328V72.0255ZM31.2857 80.8791L34.0201 80.3878C34.3139 80.335 34.6423 80.3426 34.8939 80.2085C35.1003 80.0984 35.3353 79.8242 35.3459 79.6057C35.3986 78.7828 35.3609 77.948 35.37 77.1282C35.3805 76.1712 35.6201 75.8834 36.5436 75.6995C38.1059 75.3891 39.6697 75.0832 41.2847 74.7652C41.1476 72.7925 41.0196 70.8741 40.8779 68.9557C40.8312 68.3393 40.9653 67.4487 40.6233 67.1805C40.2196 66.855 39.3925 67.0298 38.7477 67.0298C36.5993 67.0207 34.4495 67.0298 32.2092 67.0298C31.9079 71.6487 31.6036 76.2059 31.2902 80.8791H31.2857ZM87.4471 90.7951H81.2039V98.6782H87.4471V90.7951ZM90.183 55.7032H98.6724V49.9028H92.0119C91.4078 51.8332 90.8082 53.7365 90.1875 55.7032H90.183ZM60.2131 46.8119H53.7484C53.6234 48.6987 53.5029 50.5327 53.3808 52.3878H60.5837C60.4647 50.5161 60.3441 48.7002 60.2176 46.8089L60.2131 46.8119ZM32.3795 64.7105H40.6068C40.4998 63.1251 40.3988 61.6136 40.3054 60.0916H32.6808C32.5813 61.6543 32.4819 63.1673 32.3795 64.7105ZM61.0356 59.0397C60.9362 57.5508 60.8428 56.1387 60.7494 54.7251H53.2166C53.1232 56.1734 53.0313 57.5809 52.9379 59.0397H61.0356Z" fill="#1677BE"/>
<path d="M60.2368 36.3798C60.2368 37.0082 60.2474 37.703 60.2368 38.3977C60.2022 40.2453 58.8899 41.5066 57.0052 41.5217C55.1205 41.5368 53.8053 40.2799 53.7526 38.4323C53.7526 38.357 53.7526 38.2816 53.7526 38.2063C53.7526 37.6306 53.9439 36.9238 53.6803 36.52C53.4513 36.1688 52.6965 36.1673 52.1737 35.9985C50.1881 35.3535 48.9753 33.2347 49.2842 30.9561C49.5855 28.7634 51.1508 27.3017 53.3745 27.1811C54.0976 27.1419 54.8283 27.1992 55.5499 27.1449C55.6824 27.1303 55.8101 27.0873 55.9245 27.0189C56.0388 26.9505 56.1372 26.8583 56.2128 26.7486C57.1438 24.9086 58.6323 24.0104 60.6767 24.0059C62.7211 24.0013 64.7821 23.9953 66.8355 24.0059C70.269 24.0239 72.3299 26.9129 71.2422 30.168C70.6682 31.8875 69.3153 32.9424 67.509 33.0313C66.7361 33.0735 65.9572 33.0313 65.1828 33.0735C64.9764 33.084 64.6661 33.2061 64.5923 33.3658C63.7576 35.1833 62.3324 36.0965 60.3739 36.2577C60.3453 36.2668 60.3287 36.2969 60.2368 36.3798ZM55.2938 29.419V29.4341C54.6912 29.4341 54.0886 29.3994 53.4859 29.4431C53.0198 29.4664 52.5725 29.6341 52.2059 29.923C51.8393 30.2119 51.5717 30.6077 51.44 31.0556C51.193 31.8995 51.4958 32.9333 52.2747 33.4517C52.7171 33.7211 53.2116 33.8936 53.7255 33.9581C55.1688 34.1751 55.9672 35.013 55.9853 36.4672C55.9959 37.0926 55.9853 37.7195 55.9853 38.3449C55.9853 38.9703 56.3439 39.3275 56.9661 39.329C57.5883 39.3305 57.9378 38.9764 57.9559 38.3449C57.971 37.819 57.9559 37.29 57.9559 36.7671C57.9559 34.9587 58.6579 34.1675 60.4553 33.9551C61.6033 33.8194 62.3219 33.1729 62.5765 32.0502C62.804 31.039 63.0676 30.8235 64.1147 30.8145C65.1617 30.8054 66.2239 30.8145 67.2679 30.7949C68.1568 30.7738 68.7745 30.3292 69.1164 29.5034C69.7673 27.906 68.7504 26.2965 67.0329 26.2709C64.9056 26.2407 62.7784 26.2543 60.6496 26.2709C59.1928 26.2709 58.4079 26.9385 58.099 28.3927C57.9484 29.0784 57.5582 29.4371 56.8441 29.428C56.3454 29.413 55.8196 29.419 55.2938 29.419Z" fill="#1677BE"/>
<path d="M39.7601 41.3944C39.7601 42.1479 39.7751 42.7959 39.7601 43.4439C39.7073 45.3744 38.4298 46.6373 36.5225 46.6614C34.6152 46.6855 33.2277 45.4347 33.2819 43.4967C33.3211 42.1133 33.2035 41.2573 31.5418 40.9725C30.1859 40.7404 29.3498 39.58 28.8195 38.2795C28.6869 37.9776 28.4544 37.7307 28.1611 37.5802C26.073 36.5946 24.9717 34.5557 25.3544 32.2922C25.7069 30.2065 27.5223 28.5955 29.7385 28.3996C31.8356 28.2142 33.871 29.5811 34.5715 31.6984C34.7222 32.1505 34.9105 32.3178 35.3986 32.3012C36.8509 32.2665 38.3032 32.2801 39.7556 32.2922C41.5905 32.3072 43.0368 33.0321 43.7931 34.7606C44.572 36.5464 44.4138 38.29 43.2131 39.8633C42.5788 40.6937 41.69 41.1412 40.652 41.2904C40.3793 41.3402 40.1081 41.3552 39.7601 41.3944ZM42.0576 36.8433C42.0576 35.4569 41.1687 34.5692 39.7284 34.5542C37.901 34.5361 36.072 34.5542 34.2431 34.5542C32.9203 34.5542 32.6898 34.3402 32.5678 33.0155C32.4307 31.5387 31.1064 30.4536 29.7053 30.6752C29.1165 30.7567 28.5746 31.0416 28.1735 31.4805C27.7724 31.9195 27.5373 32.4848 27.5088 33.0788C27.447 34.2844 28.2967 35.3936 29.5878 35.6558C30.2808 35.7959 30.7298 36.0612 30.8473 36.8116C31.0868 38.3533 31.7121 38.9214 33.315 39.1249C34.6574 39.2952 35.4242 40.124 35.48 41.4668C35.498 41.9671 35.48 42.4689 35.48 42.9738C35.48 44.0558 35.7813 44.4808 36.5059 44.4672C37.2125 44.4536 37.4897 44.0452 37.4927 43.0069C37.4927 42.6814 37.4927 42.3544 37.4927 42.0289C37.4927 40.0231 38.0953 39.3404 40.0855 39.0947C41.3329 38.929 42.0591 38.1001 42.053 36.8433H42.0576Z" fill="#1677BE"/>
<path d="M84.2904 68.5505C81.3104 68.5505 78.3299 68.5505 75.349 68.5505C74.2552 68.5505 73.9012 68.1993 73.8951 67.1278C73.8891 65.8991 73.8891 64.6714 73.8951 63.4448C73.8951 62.4592 74.2823 62.0568 75.251 62.0553C81.3134 62.0493 87.3753 62.0493 93.4367 62.0553C94.3798 62.0553 94.7926 62.4848 94.7926 63.4553C94.8046 64.683 94.8046 65.9107 94.7926 67.1384C94.7835 68.1601 94.3994 68.5459 93.3809 68.5489C90.3528 68.5535 87.3216 68.5489 84.2904 68.5505ZM76.2032 64.3444V66.2237H92.4966V64.3444H76.2032Z" fill="#1677BE"/>
<path d="M78.5454 77.2861C77.4441 77.2861 76.3429 77.2967 75.2416 77.2861C74.2864 77.274 73.9068 76.9078 73.8977 75.981C73.8857 74.675 73.8857 73.3734 73.8977 72.0764C73.9083 71.2053 74.315 70.7939 75.1979 70.7879C77.4246 70.7738 79.6517 70.7738 81.8794 70.7879C82.7834 70.7879 83.1962 71.2294 83.2082 72.1442C83.2248 73.395 83.2218 74.6473 83.2082 75.8982C83.1977 76.8807 82.8105 77.271 81.8448 77.2816C80.7465 77.2967 79.6452 77.2861 78.5454 77.2861ZM80.9183 73.0861H76.1997V74.9608H80.9183V73.0861Z" fill="#1677BE"/>
<path d="M90.1132 77.285C88.9878 77.285 87.8533 77.2986 86.7355 77.285C85.8843 77.2714 85.491 76.8826 85.482 76.0432C85.4669 74.7171 85.4669 73.3904 85.482 72.0633C85.491 71.2299 85.8963 70.7989 86.7234 70.7929C88.9993 70.7748 91.2767 70.7748 93.5556 70.7929C94.3315 70.7929 94.773 71.245 94.788 72.012C94.8151 73.3643 94.8151 74.7161 94.788 76.0673C94.7715 76.8856 94.3361 77.2729 93.4924 77.2835C92.367 77.2971 91.2401 77.285 90.1132 77.285ZM92.4996 73.0865H87.784V74.9582H92.4996V73.0865Z" fill="#1677BE"/>
<path d="M78.5142 86.0237C77.413 86.0237 76.3117 86.0373 75.2119 86.0237C74.2733 86.0102 73.9057 85.6304 73.8982 84.687C73.8881 83.4091 73.8881 82.1322 73.8982 80.8563C73.9072 79.9355 74.3034 79.5271 75.23 79.5211C77.4326 79.506 79.6351 79.506 81.8377 79.5211C82.7884 79.5211 83.1936 79.9521 83.2102 80.915C83.2253 82.1658 83.2253 83.4172 83.2102 84.669C83.1981 85.6304 82.7974 86.0162 81.8181 86.0253C80.7168 86.0343 79.6155 86.0237 78.5142 86.0237ZM80.9247 81.8147H76.2017V83.7H80.9247V81.8147Z" fill="#1677BE"/>
<path d="M90.1124 86.0241C89.0111 86.0241 87.9083 86.0361 86.8086 86.0241C85.8625 86.0105 85.4873 85.6337 85.4798 84.6994C85.4692 83.3989 85.4662 82.0968 85.4798 80.7948C85.4903 79.9599 85.8896 79.5304 86.7212 79.5229C88.9991 79.5028 91.2765 79.5028 93.5534 79.5229C94.3323 79.5229 94.7692 79.975 94.7857 80.7451C94.8129 82.0973 94.8129 83.4491 94.7857 84.8004C94.7707 85.5931 94.3549 86.006 93.5639 86.018C92.4129 86.0421 91.2619 86.018 90.1109 86.018L90.1124 86.0241ZM87.7667 83.7168H92.4898V81.8256H87.7652L87.7667 83.7168Z" fill="#1677BE"/>
<path d="M47.555 90.256H32.5302C31.3249 90.256 30.766 89.8868 30.7735 89.1061C30.781 88.3255 31.3068 88 32.5558 88H62.6869C63.8514 88 64.3938 88.3466 64.4134 89.0941C64.4314 89.8687 63.8529 90.2545 62.6627 90.256H47.555Z" fill="#1677BE"/>
<path d="M42.1565 82.2414C42.1565 81.6145 42.1384 80.9891 42.1565 80.3637C42.1836 79.6012 42.5678 79.1958 43.3165 79.1822C44.5941 79.1596 45.8777 79.1672 47.1477 79.1822C47.8723 79.1822 48.2776 79.6178 48.2987 80.308C48.3379 81.6085 48.3394 82.9136 48.2987 84.2141C48.2761 84.9118 47.8302 85.3233 47.1296 85.3368C45.8536 85.3624 44.5685 85.367 43.2999 85.3368C42.5632 85.3187 42.1821 84.8847 42.158 84.1312C42.1399 83.4938 42.1565 82.8668 42.1565 82.2414ZM44.4645 81.4699V83.0477H46.0132V81.4699H44.4645Z" fill="#1677BE"/>
<path d="M56.3452 82.2626C56.3452 82.888 56.3603 83.5149 56.3452 84.1403C56.3211 84.8938 55.9249 85.3172 55.1807 85.3338C53.9051 85.364 52.6286 85.364 51.351 85.3338C50.6264 85.3157 50.2075 84.8651 50.1925 84.1192C50.1684 82.8684 50.1669 81.6146 50.1925 80.3623C50.209 79.5877 50.6445 79.1913 51.4444 79.1808C52.6708 79.1637 53.8976 79.1637 55.1249 79.1808C55.9234 79.1928 56.3091 79.5952 56.3467 80.3864C56.3467 80.4361 56.3467 80.4873 56.3467 80.5371L56.3452 82.2626ZM52.4824 81.4699V83.0357H54.0312V81.4699H52.4824Z" fill="#1677BE"/>
<path d="M61.3367 79.1727C61.9394 79.1727 62.542 79.1621 63.1446 79.1727C63.9536 79.1938 64.389 79.5645 64.4101 80.3451C64.4433 81.622 64.4433 82.899 64.4101 84.1759C64.389 84.9038 63.9371 85.3197 63.1928 85.3333C61.9424 85.3584 60.6909 85.3584 59.4385 85.3333C58.6852 85.3167 58.2784 84.8932 58.2664 84.1503C58.2438 82.8995 58.2453 81.6472 58.2664 80.3948C58.2769 79.5946 58.6762 79.2118 59.4716 79.1727C59.5213 79.1727 59.5711 79.1727 59.6223 79.1727H61.3367ZM62.1096 83.0472V81.4693H60.5609V83.0472H62.1096Z" fill="#1677BE"/>
</g>
<circle cx="63" cy="63" r="62" stroke="#1677BE" stroke-width="2"/>
<defs>
<clipPath id="clip0_1128_366">
<rect width="77" height="77" fill="white" transform="translate(24 24)"/>
</clipPath>
</defs>
</svg>
