<svg width="126" height="126" viewBox="0 0 126 126" fill="none" xmlns="http://www.w3.org/2000/svg">
<circle cx="63" cy="63" r="62" stroke="#1677BE" stroke-width="2"/>
<g clip-path="url(#clip0_1902_282)">
<path d="M99.0011 39.6881V85.1736C98.8868 85.6537 98.7868 86.1394 98.6554 86.6152C97.5311 90.6697 93.9211 93.2984 89.4654 93.2984C83.2168 93.2984 76.9687 93.2984 70.7211 93.2984H69.9925L69.9153 93.4941C70.0982 93.637 70.2968 93.7799 70.4639 93.9413C71.4592 94.929 72.4506 95.92 73.4382 96.9143C73.8125 97.2901 74.0382 97.7172 73.8111 98.2601C73.5839 98.803 73.1239 99.013 72.5525 99.0016H32.2853C32.1425 99.0016 31.9996 99.0016 31.8568 99.0016C31.0168 98.9573 30.591 98.543 30.571 97.7158C30.5525 97.0272 30.571 96.3372 30.571 95.6486V93.3384C30.488 93.3209 30.4041 93.3081 30.3196 93.2998H27.7482C26.3196 93.2998 26.0039 92.977 26.0039 91.5283C26.0039 75.2064 26.0039 58.8845 26.0039 42.5626C26.0039 41.1339 26.3096 40.8282 27.771 40.8282C37.0368 40.8282 46.302 40.8315 55.5668 40.8382C55.7874 40.8468 56.0071 40.8066 56.2104 40.7204C56.4136 40.6342 56.5953 40.5041 56.7425 40.3396C61.1082 35.8698 65.483 31.4086 69.8668 26.9559C70.1968 26.6188 70.5653 26.3216 70.9153 26.0059H71.6296C71.9668 26.3016 72.3225 26.5773 72.6296 26.8959C73.9682 28.2431 75.2953 29.6032 76.6296 30.959C77.5439 31.8891 77.5482 32.3777 76.6482 33.2963C74.4035 35.5821 72.1587 37.8708 69.9139 40.1624C69.7396 40.341 69.5782 40.5296 69.3511 40.7782H80.7282C80.7439 40.5882 80.7596 40.4467 80.7682 40.3053C81.0539 35.8336 84.3653 32.3362 88.8768 31.7433C93.0039 31.2005 97.1411 33.8463 98.5239 37.928C98.7168 38.4995 98.8425 39.0995 99.0011 39.6881ZM66.8482 65.6296C66.0396 64.7267 65.1825 63.7724 64.3339 62.8166C63.6354 62.028 63.6353 61.5122 64.3582 60.7808C65.8277 59.295 67.3039 57.8187 68.7868 56.3519C69.5011 55.6533 70.0096 55.6548 70.7682 56.3219C71.5896 57.0434 72.4139 57.762 73.2096 58.5106C73.5282 58.8092 73.7811 58.8849 74.1968 58.6764C74.9594 58.2941 75.7475 57.9647 76.5553 57.6906C77.0053 57.5392 77.1268 57.2949 77.1454 56.8663C77.1825 55.799 77.2539 54.7318 77.3096 53.6632C77.3653 52.5946 77.7382 52.2431 78.8239 52.2346C79.4554 52.2346 80.0853 52.2346 80.7025 52.2346V47.6657H79.9654C74.3825 47.6657 68.7982 47.6729 63.2154 47.6557C62.9948 47.6467 62.7751 47.687 62.5722 47.7737C62.3693 47.8605 62.1883 47.9915 62.0425 48.1572C58.8739 51.4074 55.6782 54.629 52.521 57.8892C51.8242 58.6316 50.9686 59.2069 50.0182 59.5721C47.7596 60.4379 45.5353 61.3922 43.2925 62.298C42.4482 62.6395 41.6896 62.3794 41.5653 61.668C41.5168 61.2715 41.5704 60.8692 41.7211 60.4993C42.5982 58.1949 43.5325 55.9105 44.3996 53.6018C44.7006 52.7783 45.1858 52.0345 45.8182 51.4274C47.0368 50.243 48.2082 49.0072 49.4739 47.7129H32.8282V53.3189H30.6253C30.6015 53.2615 30.5843 53.2016 30.5739 53.1403C30.5682 51.1202 30.5648 49.1006 30.5639 47.0814C30.5639 45.6927 30.8825 45.3799 32.2939 45.3799C38.5663 45.3799 44.8392 45.3799 51.1125 45.3799C51.3639 45.3799 51.6953 45.397 51.8511 45.2541C52.5568 44.6098 53.2139 43.9098 53.9711 43.1454H28.3339V90.9754H30.5625V57.4534C30.5541 57.2153 30.5579 56.9769 30.5739 56.7391C30.6739 55.7762 31.6325 55.3433 32.4096 55.9105C32.595 56.0584 32.7684 56.2209 32.9282 56.3962C38.2215 61.688 43.5158 66.9788 48.811 72.2686C49.0168 72.4729 49.2968 72.7272 49.5511 72.7372C50.8011 72.7858 52.0554 72.7586 53.3725 72.7586C53.3725 71.9786 53.3939 71.2714 53.3725 70.5656C53.3425 69.7713 52.9125 69.3727 52.1011 69.3398C51.8396 69.3298 51.5782 69.3398 51.3168 69.3398C49.2239 69.3084 47.6939 67.8726 47.6825 65.9325C47.6696 63.961 49.211 62.5037 51.3453 62.5037C53.0596 62.4952 54.7739 62.5037 56.4782 62.5037C57.5325 62.5037 57.9311 62.0866 57.9411 61.0251C57.9411 60.3922 57.9411 59.7607 57.9411 59.1421H60.2268V60.8351C60.2268 63.4409 58.8811 64.7853 56.2753 64.7882C54.561 64.7882 52.8468 64.7767 51.1439 64.7996C50.4496 64.8082 49.9868 65.2825 49.9711 65.8968C49.9553 66.5111 50.4225 66.9869 51.0939 67.0569C51.3796 67.0854 51.6653 67.0669 51.951 67.0697C54.2696 67.0854 55.6539 68.4798 55.6653 70.8171C55.6653 71.45 55.6653 72.0829 55.6653 72.7186H60.2282C60.2282 72.0257 60.2196 71.3857 60.2282 70.7457C60.2425 69.7985 60.6182 69.3999 61.5496 69.3427C62.6925 69.2727 63.8282 69.2313 64.9625 69.1298C65.1911 69.1098 65.5139 68.9298 65.6011 68.737C66.0353 67.7326 66.4182 66.7111 66.8482 65.6296ZM96.7197 78.0304V62.5194C96.7197 55.3924 96.7197 48.2653 96.7197 41.1382C96.7197 37.5408 94.3282 34.5749 91.0925 34.1049C86.6482 33.4592 83.0482 36.5336 83.0411 41.0467C83.0211 53.1865 83.0211 65.3258 83.0411 77.4646C83.0515 77.6527 83.0715 77.8401 83.1011 78.0261C86.5125 74.4116 92.4239 73.7373 96.7197 78.0304ZM69.6768 96.68C57.4253 84.4265 45.1225 72.1243 32.8925 59.8964V96.68H69.6768ZM80.8525 75.1073H51.6582C55.3954 78.8504 59.0511 82.5192 62.7282 86.1637C62.9254 86.3594 63.3182 86.4337 63.6196 86.4352C69.1777 86.4504 74.7368 86.4542 80.2968 86.4466H80.8525V75.1073ZM51.3553 55.8062L67.1939 39.6624L63.7496 36.4308L48.0353 52.4474C49.4981 53.1493 50.6717 54.3376 51.3553 55.8091V55.8062ZM66.5868 61.9037C67.2811 62.6766 68.0154 63.4838 68.7297 64.2953C69.6068 65.2768 69.5868 65.4696 69.0154 66.6197C68.4859 67.7041 68.025 68.8206 67.6353 69.9627C67.2368 71.1242 67.0882 71.2928 65.8325 71.36C64.7296 71.4171 63.6282 71.4943 62.5368 71.5614V72.7043H70.4911C71.5439 66.8883 74.9611 63.5095 80.7125 62.4852V54.5561H79.5482C79.4768 55.7605 79.4053 56.9205 79.3396 58.0792C79.2868 59.0207 79.0768 59.2221 78.1968 59.555C76.9111 60.0393 75.6439 60.555 74.3982 61.1265C73.5296 61.5251 73.2068 61.538 72.4782 60.8922C71.5982 60.1122 70.7211 59.3207 69.8925 58.5849L66.5868 61.9037ZM89.8496 77.3332C86.0968 77.356 82.9925 80.4891 83.0368 84.2107C83.0634 86.0228 83.802 87.7517 85.0928 89.0236C86.3837 90.2956 88.1232 91.0085 89.9354 91.0083C93.6254 90.9911 96.7254 87.8652 96.7139 84.1622C96.7011 80.4105 93.5825 77.3075 89.8496 77.3289V77.3332ZM80.7196 72.7386V64.9396C76.9982 65.0725 73.0239 68.8898 72.9668 72.7343L80.7196 72.7386ZM83.7297 91.0169C83.2054 90.3682 82.7097 89.8511 82.3339 89.2567C82.0654 88.8282 81.7625 88.7253 81.2997 88.7267C76.2439 88.741 71.1882 88.7353 66.1325 88.7353H65.451L65.3611 88.8996C65.9325 89.451 66.5268 89.9825 67.0754 90.5597C67.2142 90.7169 67.3868 90.8405 67.5803 90.9215C67.7738 91.0024 67.9831 91.0384 68.1925 91.0268C72.4168 91.0097 76.6411 91.0169 80.8668 91.0169H83.7297ZM64.7811 45.1184L64.9811 45.3456H80.7025V43.1483C80.6198 43.1287 80.5358 43.1153 80.4511 43.1083C76.1091 43.1083 71.7668 43.1083 67.4239 43.1083C67.2192 43.1048 67.0188 43.1674 66.8525 43.2869C66.1439 43.8826 65.4639 44.5098 64.7811 45.1184ZM67.9596 32.1305L71.2111 35.1778L74.5354 32.0576L71.2839 28.9946L67.9596 32.1305ZM49.3625 57.3591C48.8496 55.6119 47.9454 54.7176 46.5125 54.5304L44.6554 59.2807L49.3625 57.3591ZM65.4825 34.6278L68.8925 37.8666L69.6597 37.1851L66.2411 33.8992L65.4825 34.6278Z" fill="#1677BE"/>
<path d="M57.9805 54.543H60.1676V56.7431H57.9805V54.543Z" fill="#1677BE"/>
<path d="M36.2651 81.2528C36.2651 77.7855 36.2651 74.3167 36.2651 70.8494C36.2651 70.2393 36.358 69.6993 36.9794 69.4364C37.6008 69.1736 38.0594 69.5107 38.4836 69.9365C45.5179 76.975 52.5546 84.0121 59.5936 91.0477C60.0108 91.4649 60.3865 91.8949 60.1251 92.5435C59.8636 93.1921 59.2922 93.2993 58.6594 93.2993C51.7251 93.2926 44.7903 93.2926 37.8551 93.2993C36.6508 93.2993 36.2665 92.9207 36.2651 91.7277C36.2632 88.2361 36.2632 84.7445 36.2651 81.2528ZM38.5765 86.4031H51.4337L38.5765 73.5452V86.4031ZM56.1051 90.9963L56.2208 90.8377C55.6608 90.3005 55.078 89.7833 54.548 89.219C54.4025 89.0523 54.2211 88.9209 54.0174 88.8345C53.8138 88.7481 53.5932 88.7091 53.3722 88.7204C48.6951 88.7404 44.0179 88.7319 39.3422 88.7319H38.6065V90.9963H56.1051Z" fill="#1677BE"/>
<path d="M63.6719 84.1173V81.9258H78.4333V84.1173H63.6719Z" fill="#1677BE"/>
<path d="M67.0918 79.5693V77.3691H69.3018V79.5693H67.0918Z" fill="#1677BE"/>
<path d="M71.6836 77.3496H73.8607V79.5655H71.6836V77.3496Z" fill="#1677BE"/>
<path d="M76.2305 77.3594H78.4133V79.5552H76.2305V77.3594Z" fill="#1677BE"/>
<path d="M89.8932 79.6109C91.0932 79.6206 92.2414 80.1018 93.0897 80.9507C93.938 81.7996 94.4185 82.9481 94.4275 84.1483C94.4389 86.6413 92.3332 88.7442 89.8489 88.7199C89.244 88.7273 88.6436 88.6141 88.0829 88.387C87.5221 88.1599 87.0122 87.8235 86.5829 87.3972C86.1535 86.971 85.8133 86.4635 85.5822 85.9044C85.351 85.3453 85.2334 84.7457 85.2364 84.1407C85.2393 83.5357 85.3627 82.9374 85.5993 82.3805C85.8359 81.8237 86.181 81.3196 86.6145 80.8975C87.0479 80.4754 87.5611 80.1439 88.124 79.9223C88.6869 79.7007 89.2884 79.5933 89.8932 79.6066V79.6109ZM92.146 84.1825C92.1489 83.7319 92.0179 83.2905 91.7696 82.9144C91.5213 82.5383 91.167 82.2444 90.7515 82.0699C90.336 81.8954 89.878 81.8482 89.4357 81.9343C88.9934 82.0204 88.5865 82.2359 88.2668 82.5534C87.947 82.871 87.7288 83.2763 87.6396 83.7181C87.5505 84.1599 87.5945 84.6181 87.7661 85.0349C87.9377 85.4516 88.2291 85.808 88.6035 86.0588C88.9779 86.3097 89.4183 86.4438 89.8689 86.4441C90.4714 86.4456 91.0499 86.2083 91.4777 85.7842C91.9056 85.36 92.148 84.7836 92.1518 84.1811L92.146 84.1825Z" fill="#1677BE"/>
</g>
<defs>
<clipPath id="clip0_1902_282">
<rect width="73" height="73" fill="white" transform="translate(26 26)"/>
</clipPath>
</defs>
</svg>
