<svg width="160" height="236" viewBox="0 0 160 236" fill="none" xmlns="http://www.w3.org/2000/svg">
<path d="M52.6372 100.737H40.4774V36.3129C40.4774 24.5139 30.9125 14.9531 19.1176 14.9531H11.3328V22.738H19.1176V100.737H11.3328V108.522H73.997V88.6297L52.6372 73.1694V100.737Z" fill="white"/>
<path d="M147.957 22.738V14.9531H140.173C128.378 14.9531 118.813 24.5139 118.813 36.3129V100.737H106.653V73.1694L85.2932 88.6297V108.522H147.957V100.737H140.173V22.738H147.957Z" fill="white"/>
<path d="M106.653 59.4975V7.78487H114.438V0H106.653C94.854 0 85.2932 9.5608 85.2932 21.3598V74.7267L106.653 59.4975Z" fill="white"/>
<path d="M73.9969 66.3985V21.3598C73.9969 9.5608 64.4321 0 52.6372 0H44.8523V7.78487H52.6372V60.6044L64.0874 68.7664L78.8787 79.6612L85.2972 74.7186L74.001 66.3985H73.9969Z" fill="white"/>
<path d="M159.29 116.307H0V124.092H159.29V116.307Z" fill="white"/>
<path d="M0 224.519H1.31775V219.139H5.28722C6.9415 219.139 8.69311 219.386 10.2379 220.87C11.3448 221.94 12.0422 223.408 12.0422 225.367C12.0422 229.279 9.22021 231.688 5.38048 231.688H1.31775V226.421H0V224.519ZM4.2168 229.243H4.98718C7.49294 229.243 9.07019 227.962 9.07019 225.363C9.07019 222.764 7.35913 221.58 4.98718 221.58H4.2168V224.515H6.47117V226.417H4.2168V229.239V229.243Z" fill="white"/>
<path d="M17.1796 219.139V231.688H14.2805V219.139H17.1796Z" fill="white"/>
<path d="M27.0767 219.138V221.583H22.8842V224.012H26.8699V226.457H22.8842V229.243H27.0767V231.687H19.9851V219.138H27.0767ZM20.5893 216.937L23.4842 214.605L26.3995 216.937L25.2521 217.991L23.4842 216.653L21.7164 217.991L20.5893 216.937ZM24.1614 214.001C24.2587 213.231 24.9358 212.367 26.4766 212.367C27.4902 212.367 28.5647 212.874 28.5809 214.021C28.6012 215.035 27.6808 215.51 27.0929 215.583V215.846H25.7386V214.719C26.1481 214.719 27.0726 214.626 27.0726 214.042C27.0726 213.758 26.8293 213.551 26.4522 213.551C26.0752 213.551 25.7954 213.721 25.7386 214.001H24.1573H24.1614Z" fill="white"/>
<path d="M30.8718 219.139H33.2802L36.4063 226.648L39.5284 219.139H41.9368L43.952 231.688H41.057L40.0596 224.199L36.9172 231.688H35.9036L32.7572 224.199L31.7638 231.688H28.8647L30.8799 219.139H30.8718Z" fill="white"/>
<path d="M49.2959 219.139H57.6525V221.584H54.9237V231.688H52.0287V221.584H49.3V219.139H49.2959Z" fill="white"/>
<path d="M62.0844 219.139V226.498C62.0844 228.095 62.7615 229.259 64.4928 229.259C66.2241 229.259 66.9012 228.111 66.9012 226.498V219.139H68.6285C69.6057 219.082 69.7395 218.307 69.7395 217.541H71.8114C71.8317 219.029 71.191 220.099 69.7962 220.42V226.571C69.7962 227.775 69.6462 229.263 68.4015 230.54C67.1972 231.781 65.8065 231.971 64.4928 231.971C63.1791 231.971 61.7843 231.781 60.5801 230.54C59.3353 229.259 59.1853 227.775 59.1853 226.571V219.139H62.0844ZM63.1548 234.68C63.1548 233.946 63.7751 233.342 64.4928 233.342C65.2105 233.342 65.8673 233.946 65.8673 234.68C65.8673 235.414 65.2429 235.998 64.4928 235.998C63.7427 235.998 63.1548 235.394 63.1548 234.68Z" fill="white"/>
<path d="M70.8425 231.688L75.9067 219.139H78.5625L83.5132 231.688H80.5006L79.56 229.316H74.8201L73.8632 231.688H70.8506H70.8425ZM78.7653 227.098L77.2245 222.885L75.6635 227.098H78.7693H78.7653Z" fill="white"/>
<path d="M93.7429 219.139C96.3987 219.139 98.2557 220.42 98.2557 223.222C98.2557 224.799 97.6557 225.687 97.1853 226.173C96.2081 227.207 94.8701 227.284 93.9862 227.284H92.2184V231.688H89.3193V219.139H93.7429ZM92.2225 224.912H93.2523C94.3998 224.912 95.2878 224.483 95.2878 223.201C95.2878 221.92 94.3471 221.511 93.1956 221.511H92.2225V224.912Z" fill="white"/>
<path d="M100.096 219.139H102.996V223.919H107.999V219.139H110.898V231.688H107.999V226.364H102.996V231.688H100.096V219.139Z" fill="white"/>
<path d="M117.385 219.138H120.041L124.992 231.687H121.979L121.038 229.315H116.299L115.342 231.687H112.329L117.393 219.138H117.385ZM117.138 227.097H120.244L118.703 222.884L117.142 227.097H117.138ZM119.814 214.512L121.391 215.886L118.285 217.991L117.195 217.034L119.814 214.512Z" fill="white"/>
<path d="M130.835 219.139C133.49 219.139 135.348 220.42 135.348 223.222C135.348 224.799 134.747 225.687 134.277 226.173C133.3 227.207 131.962 227.284 131.078 227.284H129.31V231.688H126.411V219.139H130.835ZM129.314 224.912H130.344C131.492 224.912 132.38 224.483 132.38 223.201C132.38 221.92 131.439 221.511 130.287 221.511H129.314V224.912Z" fill="white"/>
<path d="M144.474 219.139V229.243H148.371V231.688H141.575V219.139H144.474Z" fill="white"/>
<path d="M147.398 219.138H150.82L153.342 223.035L155.864 219.138H159.29L154.789 225.836V231.687H151.894V225.836L147.394 219.138H147.398ZM151.967 217.034L154.586 214.512L156.164 215.886L153.058 217.991L151.967 217.034Z" fill="white"/>
<path d="M113.558 160.109C109.836 160.271 109.122 160.81 109.122 164.816V193.032C109.122 194.601 109.568 195.149 111.908 195.149H113.724C117.552 195.149 123.066 190.024 124.331 182.977H125.584C125.478 184.286 125.422 186.034 125.422 188C125.422 189.967 125.422 193.912 125.807 197.74C122.085 197.577 116.943 197.577 113.278 197.577C109.345 197.577 100.482 197.577 94.1362 197.74V196.649C97.4732 196.487 98.0246 195.935 98.0246 191.941V164.816C98.0246 160.814 97.4164 160.275 94.1362 160.109V159.01C96.2203 159.127 99.9303 159.172 103.875 159.172C107.48 159.172 111.308 159.123 113.558 159.01V160.109Z" fill="white"/>
<path d="M159.553 197.736C155.831 197.573 150.69 197.573 147.025 197.573C143.092 197.573 134.228 197.573 127.883 197.736V196.645C131.22 196.483 131.771 195.931 131.771 191.937V164.812C131.771 160.81 131.163 160.271 127.883 160.105V159.006C134.228 159.168 143.092 159.168 147.025 159.168C150.362 159.168 155.069 159.168 158.463 159.006C158.183 162.671 158.078 166.393 158.078 168.198C158.078 169.73 158.134 171.206 158.24 172.143H156.975C155.616 163.056 151.404 161.609 146.919 161.609H146.206C143.359 161.609 142.869 161.868 142.869 163.713V177.714H143.42C147.519 177.714 150.199 173.663 150.852 170.488H152.117C151.838 174.644 151.955 176.461 151.955 178.261C151.955 180.061 152.004 181.866 152.284 186.022H151.019C150.362 181.971 147.519 178.809 143.42 178.809H142.869V193.02C142.869 195.068 143.359 195.137 146.206 195.137H148.01C151.627 195.137 156.322 193.405 158.078 183.504H159.33C159.225 184.813 159.168 186.569 159.168 188.54C159.168 190.344 159.168 194.123 159.553 197.731V197.736ZM131.771 155.673L131.491 154.854C136.256 152.62 140.683 148.954 143.363 145.451H144.349C146.923 148.894 151.408 152.559 156.221 154.854L155.953 155.673C150.917 154.911 145.614 153.54 142.771 152.336C140.359 153.54 135.935 154.911 131.779 155.673H131.771Z" fill="white"/>
<path d="M83.3509 160.108C80.014 160.809 79.4625 162.459 79.4625 168.643V181.812C79.4625 186.353 78.9719 190.509 77.2284 193.412C75.3066 196.583 70.6843 198.493 64.3956 198.493C61.0586 198.493 55.1024 197.954 52.2114 195.869C48.4285 193.141 47.727 188.705 47.727 181.974V164.811C47.727 160.809 47.1756 160.27 43.8386 160.104V159.005C45.9227 159.122 49.6935 159.167 53.4602 159.167C57.227 159.167 61.0099 159.118 63.2481 159.005V160.104C59.5381 160.266 58.8245 160.805 58.8245 164.811V187.124C58.8245 194.337 61.1194 196.583 65.6606 196.583C72.9914 196.583 75.2376 190.834 75.2376 182.416V169.725C75.2376 162.395 74.9092 160.805 69.7112 160.104V159.005C71.1871 159.122 73.8104 159.167 75.8337 159.167C77.4717 159.167 82.2481 159.118 83.3469 159.005V160.104L83.3509 160.108ZM69.8774 150.04C71.8439 150.04 73.5874 149.221 75.1809 147.149L75.9431 147.522C74.4672 153.482 71.2479 155.891 67.8542 155.891C61.9425 155.891 60.422 152.226 55.7146 152.226C53.7481 152.226 51.9925 153.105 50.4112 155.177L49.6367 154.804C51.1126 148.832 54.3441 146.436 57.7865 146.436C63.6414 146.436 65.1741 150.04 69.8815 150.04H69.8774Z" fill="white"/>
<path d="M35.5793 159.172C33.0613 159.172 31.1435 159.123 28.4147 159.01V160.109C32.7816 160.271 34.4805 163.551 31.0948 173.128L25.7792 187.996L16.3198 164.698C14.7385 160.765 16.0522 160.275 19.4905 160.109V159.01C17.524 159.127 14.0249 159.172 10.2987 159.172C6.57248 159.172 2.96792 159.123 0.348633 159.01V160.109C1.33391 160.157 2.53813 161.094 3.58017 163.608L17.9092 197.735C17.9092 197.735 22.6166 197.488 26.3225 197.735L36.9862 167.764C38.6243 163.117 40.7692 160.928 42.4518 160.109V159.01C41.3611 159.127 36.9903 159.172 35.5752 159.172H35.5793Z" fill="white"/>
</svg>
