<svg width="143" height="48" viewBox="0 0 143 48" fill="none" xmlns="http://www.w3.org/2000/svg">
<path d="M19.9921 37.3021H15.4877V13.4523C15.4877 9.0873 11.9444 5.54395 7.57939 5.54395H4.69629V8.42704H7.57939V37.3094H4.69629V40.1925H27.9005V32.827L19.9921 27.1048V37.3094V37.3021Z" fill="white"/>
<path d="M55.2833 8.42704V5.54395H52.4002C48.0352 5.54395 44.4918 9.0873 44.4918 13.4523V37.3094H39.9875V27.1048L32.0791 32.827V40.1925H55.2833V37.3094H52.4002V8.42704H55.2833Z" fill="white"/>
<path d="M39.9875 22.0304V2.8831H42.8706V0H39.9875C35.6225 0 32.0791 3.54335 32.0791 7.90835V27.6645L39.9875 22.0304Z" fill="white"/>
<path d="M27.9008 24.5834V7.90835C27.9008 3.54335 24.3575 0 19.9925 0H17.1094V2.8831H19.9925V22.4412L24.2328 25.4637L29.7128 29.4986L32.0898 27.6719L27.9082 24.5907L27.9008 24.5834Z" fill="white"/>
<path d="M59.4815 43.0635H0.499023V45.9466H59.4815V43.0635Z" fill="white"/>
<path d="M67.9961 42.5925H68.6123V40.0762H70.4684C71.246 40.0762 72.0603 40.1935 72.7866 40.8831C73.3075 41.382 73.6302 42.0716 73.6302 42.9886C73.6302 44.8226 72.3097 45.9451 70.5124 45.9451H68.6123V43.4801H67.9961V42.5925ZM69.9695 44.8006H70.329C71.5028 44.8006 72.2364 44.1991 72.2364 42.9886C72.2364 41.7782 71.4367 41.2206 70.329 41.2206H69.9695V42.5925H71.0259V43.4801H69.9695V44.8006Z" fill="white"/>
<path d="M76.0281 40.0762V45.9451H74.6709V40.0762H76.0281Z" fill="white"/>
<path d="M80.6587 40.0779V41.2223H78.7V42.3594H80.5633V43.5039H78.7V44.8097H80.6587V45.9541H77.3428V40.0852H80.6587V40.0779ZM77.6215 39.0508L78.9787 37.9577L80.3432 39.0508L79.8077 39.5424L78.9787 38.9188L78.1497 39.5424L77.6215 39.0508ZM79.2942 37.679C79.3382 37.3195 79.6537 36.916 80.3799 36.916C80.8568 36.916 81.3556 37.1508 81.363 37.6936C81.3703 38.1705 80.9375 38.3906 80.666 38.4273V38.552H80.0351V38.0238C80.2259 38.0238 80.6587 37.9798 80.6587 37.7083C80.6587 37.5763 80.5487 37.4809 80.3653 37.4809C80.1819 37.4809 80.0571 37.5616 80.0351 37.6936H79.2942V37.679Z" fill="white"/>
<path d="M82.4337 40.0762H83.5634L85.0233 43.5902L86.4832 40.0762H87.613L88.552 45.9451H87.1948L86.7253 42.4457L85.2581 45.9451H84.7812L83.3067 42.4457L82.8445 45.9451H81.4873L82.4263 40.0762H82.4337Z" fill="white"/>
<path d="M91.0537 40.0762H94.9639V41.2206H93.6874V45.9451H92.3302V41.2206H91.0537V40.0762Z" fill="white"/>
<path d="M97.0334 40.0784V43.519C97.0334 44.2673 97.3489 44.8102 98.1632 44.8102C98.9775 44.8102 99.293 44.2746 99.293 43.519V40.0784H100.1C100.555 40.049 100.621 39.6895 100.621 39.3301H101.589C101.597 40.027 101.296 40.5259 100.65 40.6799V43.5557C100.65 44.1206 100.577 44.8175 99.9972 45.4117C99.4324 45.9913 98.7868 46.0793 98.1705 46.0793C97.5543 46.0793 96.9014 45.9913 96.3365 45.4117C95.757 44.8102 95.6836 44.1206 95.6836 43.5557V40.0784H97.0408H97.0334ZM97.5323 47.3485C97.5323 47.0037 97.8257 46.7249 98.1559 46.7249C98.486 46.7249 98.8014 47.011 98.8014 47.3485C98.8014 47.6859 98.508 47.9647 98.1559 47.9647C97.8037 47.9647 97.5323 47.6786 97.5323 47.3485Z" fill="white"/>
<path d="M101.125 45.9451L103.495 40.0762H104.734L107.053 45.9451H105.644L105.204 44.8373H102.988L102.541 45.9451H101.132H101.125ZM104.83 43.7956L104.111 41.8222L103.377 43.7956H104.83Z" fill="white"/>
<path d="M111.836 40.0762C113.076 40.0762 113.949 40.6777 113.949 41.9836C113.949 42.7245 113.67 43.1353 113.45 43.3628C112.995 43.8469 112.365 43.8836 111.954 43.8836H111.125V45.9451H109.768V40.0762H111.836ZM111.125 42.7759H111.609C112.144 42.7759 112.563 42.5778 112.563 41.9762C112.563 41.3747 112.122 41.1839 111.587 41.1839H111.132V42.7759H111.125Z" fill="white"/>
<path d="M114.808 40.0762H116.165V42.3137H118.505V40.0762H119.862V45.9451H118.505V43.4581H116.165V45.9451H114.808V40.0762Z" fill="white"/>
<path d="M122.903 40.0782H124.143L126.461 45.9471H125.053L124.613 44.8394H122.397L121.95 45.9471H120.541L122.911 40.0782H122.903ZM122.786 43.7976H124.238L123.519 41.8242L122.786 43.7976ZM124.033 37.9141L124.774 38.5596L123.321 39.5427L122.808 39.0952L124.033 37.9141Z" fill="white"/>
<path d="M129.186 40.0762C130.426 40.0762 131.299 40.6777 131.299 41.9836C131.299 42.7245 131.02 43.1353 130.8 43.3628C130.345 43.8469 129.714 43.8836 129.303 43.8836H128.474V45.9451H127.117V40.0762H129.186ZM128.474 42.7759H128.959C129.494 42.7759 129.912 42.5778 129.912 41.9762C129.912 41.3747 129.472 41.1839 128.937 41.1839H128.482V42.7759H128.474Z" fill="white"/>
<path d="M135.569 40.0762V44.8006H137.388V45.9451H134.212V40.0762H135.569Z" fill="white"/>
<path d="M136.934 40.0782H138.533L139.714 41.8976L140.895 40.0782H142.502L140.396 43.2108V45.9471H139.039V43.2108L136.934 40.0782ZM139.068 39.0952L140.294 37.9141L141.034 38.5596L139.582 39.5427L139.068 39.0952Z" fill="white"/>
<path d="M120.968 12.9286C119.23 13.0019 118.892 13.2587 118.892 15.1294V28.3344C118.892 29.0681 119.098 29.3248 120.198 29.3248H121.049C122.839 29.3248 125.421 26.9259 126.016 23.6246H126.602C126.551 24.2409 126.529 25.0552 126.529 25.9722C126.529 26.8892 126.529 28.7379 126.713 30.5279C124.974 30.4546 122.568 30.4546 120.851 30.4546C119.01 30.4546 114.865 30.4546 111.894 30.5279V30.0218C113.456 29.9484 113.713 29.6843 113.713 27.8209V15.1294C113.713 13.2587 113.427 13.0019 111.894 12.9286V12.415C112.869 12.4664 114.608 12.4884 116.449 12.4884C118.137 12.4884 119.927 12.4664 120.983 12.415V12.9286H120.968Z" fill="white"/>
<path d="M142.492 30.5373C140.753 30.4639 138.347 30.4639 136.63 30.4639C134.789 30.4639 130.644 30.4639 127.673 30.5373V30.0311C129.235 29.9577 129.492 29.6936 129.492 27.8302V15.1387C129.492 13.268 129.206 13.0113 127.673 12.9379V12.4244C130.644 12.4977 134.789 12.4977 136.63 12.4977C138.193 12.4977 140.394 12.4977 141.986 12.4244C141.854 14.141 141.802 15.8797 141.802 16.7233C141.802 17.4423 141.832 18.1319 141.876 18.5721H141.281C140.643 14.3171 138.677 13.6422 136.572 13.6422H136.234C134.906 13.6422 134.672 13.7596 134.672 14.6252V21.1764H134.928C136.843 21.1764 138.097 19.2837 138.406 17.7944H139C138.868 19.7385 138.926 20.5895 138.926 21.4331C138.926 22.2768 138.948 23.1205 139.081 25.0645H138.486C138.178 23.1718 136.85 21.6899 134.928 21.6899H134.672V28.3438C134.672 29.3048 134.899 29.3342 136.234 29.3342H137.078C138.772 29.3342 140.966 28.5272 141.788 23.8907H142.374C142.323 24.507 142.301 25.3286 142.301 26.2456C142.301 27.0893 142.301 28.8573 142.485 30.5446L142.492 30.5373ZM129.492 10.8544L129.36 10.473C131.59 9.4239 133.659 7.71458 134.914 6.07129H135.376C136.579 7.68524 138.677 9.39456 140.929 10.473L140.805 10.8544C138.45 10.495 135.97 9.85673 134.635 9.29185C133.505 9.85673 131.436 10.495 129.492 10.8544Z" fill="white"/>
<path d="M106.833 12.9332C105.271 13.2634 105.014 14.0337 105.014 16.9241V23.0864C105.014 25.2139 104.786 27.158 103.965 28.5152C103.07 29.9971 100.906 30.8921 97.9565 30.8921C96.3939 30.8921 93.6062 30.6427 92.2564 29.667C90.4884 28.3905 90.1582 26.3143 90.1582 23.1671V15.1341C90.1582 13.2634 89.9015 13.0066 88.3389 12.9332V12.4197C89.3146 12.4711 91.0752 12.4931 92.8433 12.4931C94.6113 12.4931 96.3793 12.4711 97.421 12.4197V12.9332C95.6823 13.0066 95.3522 13.2634 95.3522 15.1341V25.5734C95.3522 28.948 96.4233 29.9971 98.5508 29.9971C101.984 29.9971 103.033 27.3047 103.033 23.3652V17.4229C103.033 13.9896 102.879 13.2487 100.451 12.9186V12.405C101.14 12.4564 102.366 12.4784 103.319 12.4784C104.09 12.4784 106.32 12.4564 106.833 12.405V12.9186V12.9332ZM100.532 8.22344C101.449 8.22344 102.27 7.84196 103.011 6.87359L103.371 7.04966C102.681 9.83739 101.177 10.9672 99.5852 10.9672C96.8194 10.9672 96.1078 9.2505 93.907 9.2505C92.99 9.2505 92.1683 9.66132 91.4274 10.6297L91.0679 10.4536C91.7575 7.65856 93.2688 6.53613 94.8827 6.53613C97.6191 6.53613 98.338 8.22344 100.539 8.22344H100.532Z" fill="white"/>
<path d="M84.4804 12.4938C83.2993 12.4938 82.4043 12.4718 81.1278 12.4204V12.934C83.1745 13.0073 83.9669 14.5479 82.3822 19.0229L79.8953 25.9776L75.4716 15.0761C74.7307 13.2347 75.3469 13.0073 76.9535 12.9266V12.4131C76.0365 12.4644 74.3932 12.4864 72.6545 12.4864C70.9159 12.4864 69.2212 12.4644 67.9961 12.4131V12.9266C68.4583 12.9486 69.0232 13.3888 69.5073 14.5626L76.2126 30.5333C76.2126 30.5333 78.4134 30.4159 80.1521 30.5333L85.1406 16.5066C85.9109 14.3352 86.9086 13.3081 87.7009 12.9266V12.4131C87.1947 12.4644 85.148 12.4864 84.4804 12.4864V12.4938Z" fill="white"/>
</svg>
