<svg width="13" height="16" viewBox="0 0 13 16" fill="none" xmlns="http://www.w3.org/2000/svg">
<mask id="path-1-outside-1_1026_8608" maskUnits="userSpaceOnUse" x="0" y="0.110352" width="13" height="16" fill="black">
<rect fill="white" y="0.110352" width="13" height="16"/>
<path d="M11.4749 11.7504H11.7368C11.8063 11.7504 11.8729 11.7209 11.922 11.6683C11.9711 11.6158 11.9987 11.5446 11.9987 11.4704C11.9987 11.3961 11.9711 11.3249 11.922 11.2724C11.8729 11.2199 11.8063 11.1904 11.7368 11.1904H8.59433V11.0638C8.59406 10.8004 8.49608 10.5479 8.32189 10.3617C8.14771 10.1754 7.91154 10.0706 7.66521 10.0704H7.02309V3.83979C7.1576 3.79506 7.28012 3.71648 7.38036 3.61067C7.48061 3.50485 7.55566 3.37487 7.59921 3.23163L9.68006 3.79163L8.19314 6.57427C8.19314 6.57819 8.19314 6.58323 8.19 6.58771C8.17038 6.62624 8.15977 6.66928 8.1591 6.71315C8.15489 6.98564 8.20145 7.2563 8.29607 7.50935C8.39068 7.76241 8.53146 7.99279 8.7102 8.18708C8.88893 8.38137 9.10205 8.53568 9.33712 8.64101C9.5722 8.74634 9.82454 8.80058 10.0794 8.80058C10.3343 8.80058 10.5866 8.74634 10.8217 8.64101C11.0568 8.53568 11.2699 8.38137 11.4486 8.18708C11.6274 7.99279 11.7682 7.76241 11.8628 7.50935C11.9574 7.2563 12.0039 6.98564 11.9997 6.71315C11.9991 6.66928 11.9885 6.62624 11.9688 6.58771C11.9688 6.58323 11.9688 6.57819 11.9657 6.57427L10.4468 3.72779L11.0287 3.41699C11.0909 3.38372 11.1381 3.32541 11.1601 3.25489C11.182 3.18437 11.1769 3.10741 11.1458 3.04095C11.1147 2.97449 11.0601 2.92396 10.9942 2.90049C10.9282 2.87702 10.8562 2.88252 10.7941 2.91579L10.0514 3.31339L7.59921 2.65539C7.55792 2.51 7.48375 2.37774 7.38326 2.27029C7.28277 2.16285 7.15907 2.08354 7.02309 2.03939V1.39035C7.02309 1.31609 6.9955 1.24487 6.94639 1.19236C6.89728 1.13985 6.83067 1.11035 6.76122 1.11035C6.69177 1.11035 6.62516 1.13985 6.57605 1.19236C6.52694 1.24487 6.49934 1.31609 6.49934 1.39035V2.04219C6.36148 2.08423 6.23573 2.16268 6.13367 2.27033C6.03162 2.37799 5.95654 2.51137 5.91537 2.65819L3.45376 3.31675L2.28318 2.89787C2.21727 2.87441 2.14534 2.8799 2.08321 2.91313C2.02109 2.94637 1.97386 3.00464 1.95191 3.07511C1.92996 3.14558 1.9351 3.22249 1.96619 3.28892C1.99727 3.35534 2.05177 3.40585 2.11768 3.42931L3.06042 3.76531L1.55779 6.57147C1.55779 6.57539 1.55779 6.58043 1.55465 6.58491C1.53502 6.62344 1.52442 6.66648 1.52375 6.71035C1.51954 6.98284 1.5661 7.2535 1.66071 7.50655C1.75533 7.75961 1.89611 7.98999 2.07484 8.18428C2.25358 8.37857 2.4667 8.53288 2.70177 8.63821C2.93685 8.74354 3.18918 8.79778 3.44407 8.79778C3.69895 8.79778 3.95128 8.74354 4.18636 8.63821C4.42144 8.53288 4.63455 8.37857 4.81329 8.18428C4.99202 7.98999 5.1328 7.75961 5.22742 7.50655C5.32203 7.2535 5.36859 6.98284 5.36439 6.71035C5.36371 6.66648 5.35311 6.62344 5.33348 6.58491C5.33348 6.58043 5.33348 6.57539 5.33034 6.57147L3.84342 3.78883L5.92427 3.22883C5.96737 3.37246 6.0421 3.50292 6.14217 3.60924C6.24225 3.71556 6.36474 3.79463 6.49934 3.83979V10.0704H5.85723C5.6109 10.0706 5.37473 10.1754 5.20054 10.3617C5.02636 10.5479 4.92838 10.8004 4.9281 11.0638V11.1904H2.83311C2.34694 11.1904 1.88068 11.3969 1.53691 11.7644C1.19313 12.132 1 12.6305 1 13.1504C1 13.6702 1.19313 14.1687 1.53691 14.5363C1.88068 14.9039 2.34694 15.1104 2.83311 15.1104H11.7368C11.8063 15.1104 11.8729 15.0809 11.922 15.0283C11.9711 14.9758 11.9987 14.9046 11.9987 14.8304C11.9987 14.7561 11.9711 14.6849 11.922 14.6324C11.8729 14.5799 11.8063 14.5504 11.7368 14.5504H11.4749V11.7504ZM11.2853 6.43035H8.87087L10.0755 4.17131L11.2853 6.43035ZM10.0781 8.20387C9.75397 8.2028 9.44029 8.08109 9.19094 7.85965C8.94159 7.63821 8.77212 7.33085 8.71165 6.99035H11.4451C11.3845 7.33089 11.2149 7.63827 10.9655 7.8597C10.7161 8.08114 10.4023 8.20282 10.0781 8.20387ZM4.65157 6.43035H2.23709L3.44171 4.17131L4.65157 6.43035ZM3.44695 8.20387C3.12229 8.20347 2.80792 8.08208 2.55794 7.86059C2.30796 7.6391 2.13802 7.33136 2.07735 6.99035H4.81078C4.75031 7.33085 4.58085 7.63821 4.3315 7.85965C4.08215 8.08109 3.76847 8.2028 3.44433 8.20387H3.44695ZM6.76122 2.55683C6.85378 2.55729 6.94265 2.59571 7.0095 2.66417C7.07635 2.73262 7.11608 2.82589 7.12051 2.92475C7.12051 2.93091 7.12418 2.93595 7.12522 2.94211H7.12156C7.12142 3.0442 7.08339 3.14205 7.01583 3.21418C6.94827 3.28632 6.8567 3.32683 6.76122 3.32683C6.71154 3.32561 6.66261 3.3136 6.6174 3.29153C6.5722 3.26947 6.53166 3.2378 6.49825 3.19847C6.46485 3.15914 6.43927 3.11295 6.42307 3.06272C6.40687 3.01249 6.40039 2.95926 6.40402 2.90627C6.41117 2.81052 6.45201 2.72122 6.51829 2.65637C6.58457 2.59153 6.67138 2.55596 6.76122 2.55683ZM5.45185 11.0638C5.45199 10.9489 5.49474 10.8387 5.57074 10.7575C5.64673 10.6762 5.74976 10.6305 5.85723 10.6304H7.66521C7.77268 10.6305 7.87571 10.6762 7.9517 10.7575C8.02769 10.8387 8.07045 10.9489 8.07059 11.0638V11.1904H5.45185V11.0638ZM2.83311 14.5504C2.48585 14.5504 2.15281 14.4029 1.90725 14.1403C1.6617 13.8777 1.52375 13.5217 1.52375 13.1504C1.52375 12.779 1.6617 12.423 1.90725 12.1604C2.15281 11.8979 2.48585 11.7504 2.83311 11.7504H10.9512V12.3104H2.83311C2.76366 12.3104 2.69705 12.3399 2.64794 12.3924C2.59883 12.4449 2.57124 12.5161 2.57124 12.5904C2.57124 12.6646 2.59883 12.7358 2.64794 12.7883C2.69705 12.8409 2.76366 12.8704 2.83311 12.8704H10.9512V13.4304H2.83311C2.76366 13.4304 2.69705 13.4599 2.64794 13.5124C2.59883 13.5649 2.57124 13.6361 2.57124 13.7104C2.57124 13.7846 2.59883 13.8558 2.64794 13.9083C2.69705 13.9609 2.76366 13.9904 2.83311 13.9904H10.9512V14.5504H2.83311Z"/>
</mask>
<path d="M11.4749 11.7504H11.7368C11.8063 11.7504 11.8729 11.7209 11.922 11.6683C11.9711 11.6158 11.9987 11.5446 11.9987 11.4704C11.9987 11.3961 11.9711 11.3249 11.922 11.2724C11.8729 11.2199 11.8063 11.1904 11.7368 11.1904H8.59433V11.0638C8.59406 10.8004 8.49608 10.5479 8.32189 10.3617C8.14771 10.1754 7.91154 10.0706 7.66521 10.0704H7.02309V3.83979C7.1576 3.79506 7.28012 3.71648 7.38036 3.61067C7.48061 3.50485 7.55566 3.37487 7.59921 3.23163L9.68006 3.79163L8.19314 6.57427C8.19314 6.57819 8.19314 6.58323 8.19 6.58771C8.17038 6.62624 8.15977 6.66928 8.1591 6.71315C8.15489 6.98564 8.20145 7.2563 8.29607 7.50935C8.39068 7.76241 8.53146 7.99279 8.7102 8.18708C8.88893 8.38137 9.10205 8.53568 9.33712 8.64101C9.5722 8.74634 9.82454 8.80058 10.0794 8.80058C10.3343 8.80058 10.5866 8.74634 10.8217 8.64101C11.0568 8.53568 11.2699 8.38137 11.4486 8.18708C11.6274 7.99279 11.7682 7.76241 11.8628 7.50935C11.9574 7.2563 12.0039 6.98564 11.9997 6.71315C11.9991 6.66928 11.9885 6.62624 11.9688 6.58771C11.9688 6.58323 11.9688 6.57819 11.9657 6.57427L10.4468 3.72779L11.0287 3.41699C11.0909 3.38372 11.1381 3.32541 11.1601 3.25489C11.182 3.18437 11.1769 3.10741 11.1458 3.04095C11.1147 2.97449 11.0601 2.92396 10.9942 2.90049C10.9282 2.87702 10.8562 2.88252 10.7941 2.91579L10.0514 3.31339L7.59921 2.65539C7.55792 2.51 7.48375 2.37774 7.38326 2.27029C7.28277 2.16285 7.15907 2.08354 7.02309 2.03939V1.39035C7.02309 1.31609 6.9955 1.24487 6.94639 1.19236C6.89728 1.13985 6.83067 1.11035 6.76122 1.11035C6.69177 1.11035 6.62516 1.13985 6.57605 1.19236C6.52694 1.24487 6.49934 1.31609 6.49934 1.39035V2.04219C6.36148 2.08423 6.23573 2.16268 6.13367 2.27033C6.03162 2.37799 5.95654 2.51137 5.91537 2.65819L3.45376 3.31675L2.28318 2.89787C2.21727 2.87441 2.14534 2.8799 2.08321 2.91313C2.02109 2.94637 1.97386 3.00464 1.95191 3.07511C1.92996 3.14558 1.9351 3.22249 1.96619 3.28892C1.99727 3.35534 2.05177 3.40585 2.11768 3.42931L3.06042 3.76531L1.55779 6.57147C1.55779 6.57539 1.55779 6.58043 1.55465 6.58491C1.53502 6.62344 1.52442 6.66648 1.52375 6.71035C1.51954 6.98284 1.5661 7.2535 1.66071 7.50655C1.75533 7.75961 1.89611 7.98999 2.07484 8.18428C2.25358 8.37857 2.4667 8.53288 2.70177 8.63821C2.93685 8.74354 3.18918 8.79778 3.44407 8.79778C3.69895 8.79778 3.95128 8.74354 4.18636 8.63821C4.42144 8.53288 4.63455 8.37857 4.81329 8.18428C4.99202 7.98999 5.1328 7.75961 5.22742 7.50655C5.32203 7.2535 5.36859 6.98284 5.36439 6.71035C5.36371 6.66648 5.35311 6.62344 5.33348 6.58491C5.33348 6.58043 5.33348 6.57539 5.33034 6.57147L3.84342 3.78883L5.92427 3.22883C5.96737 3.37246 6.0421 3.50292 6.14217 3.60924C6.24225 3.71556 6.36474 3.79463 6.49934 3.83979V10.0704H5.85723C5.6109 10.0706 5.37473 10.1754 5.20054 10.3617C5.02636 10.5479 4.92838 10.8004 4.9281 11.0638V11.1904H2.83311C2.34694 11.1904 1.88068 11.3969 1.53691 11.7644C1.19313 12.132 1 12.6305 1 13.1504C1 13.6702 1.19313 14.1687 1.53691 14.5363C1.88068 14.9039 2.34694 15.1104 2.83311 15.1104H11.7368C11.8063 15.1104 11.8729 15.0809 11.922 15.0283C11.9711 14.9758 11.9987 14.9046 11.9987 14.8304C11.9987 14.7561 11.9711 14.6849 11.922 14.6324C11.8729 14.5799 11.8063 14.5504 11.7368 14.5504H11.4749V11.7504ZM11.2853 6.43035H8.87087L10.0755 4.17131L11.2853 6.43035ZM10.0781 8.20387C9.75397 8.2028 9.44029 8.08109 9.19094 7.85965C8.94159 7.63821 8.77212 7.33085 8.71165 6.99035H11.4451C11.3845 7.33089 11.2149 7.63827 10.9655 7.8597C10.7161 8.08114 10.4023 8.20282 10.0781 8.20387ZM4.65157 6.43035H2.23709L3.44171 4.17131L4.65157 6.43035ZM3.44695 8.20387C3.12229 8.20347 2.80792 8.08208 2.55794 7.86059C2.30796 7.6391 2.13802 7.33136 2.07735 6.99035H4.81078C4.75031 7.33085 4.58085 7.63821 4.3315 7.85965C4.08215 8.08109 3.76847 8.2028 3.44433 8.20387H3.44695ZM6.76122 2.55683C6.85378 2.55729 6.94265 2.59571 7.0095 2.66417C7.07635 2.73262 7.11608 2.82589 7.12051 2.92475C7.12051 2.93091 7.12418 2.93595 7.12522 2.94211H7.12156C7.12142 3.0442 7.08339 3.14205 7.01583 3.21418C6.94827 3.28632 6.8567 3.32683 6.76122 3.32683C6.71154 3.32561 6.66261 3.3136 6.6174 3.29153C6.5722 3.26947 6.53166 3.2378 6.49825 3.19847C6.46485 3.15914 6.43927 3.11295 6.42307 3.06272C6.40687 3.01249 6.40039 2.95926 6.40402 2.90627C6.41117 2.81052 6.45201 2.72122 6.51829 2.65637C6.58457 2.59153 6.67138 2.55596 6.76122 2.55683ZM5.45185 11.0638C5.45199 10.9489 5.49474 10.8387 5.57074 10.7575C5.64673 10.6762 5.74976 10.6305 5.85723 10.6304H7.66521C7.77268 10.6305 7.87571 10.6762 7.9517 10.7575C8.02769 10.8387 8.07045 10.9489 8.07059 11.0638V11.1904H5.45185V11.0638ZM2.83311 14.5504C2.48585 14.5504 2.15281 14.4029 1.90725 14.1403C1.6617 13.8777 1.52375 13.5217 1.52375 13.1504C1.52375 12.779 1.6617 12.423 1.90725 12.1604C2.15281 11.8979 2.48585 11.7504 2.83311 11.7504H10.9512V12.3104H2.83311C2.76366 12.3104 2.69705 12.3399 2.64794 12.3924C2.59883 12.4449 2.57124 12.5161 2.57124 12.5904C2.57124 12.6646 2.59883 12.7358 2.64794 12.7883C2.69705 12.8409 2.76366 12.8704 2.83311 12.8704H10.9512V13.4304H2.83311C2.76366 13.4304 2.69705 13.4599 2.64794 13.5124C2.59883 13.5649 2.57124 13.6361 2.57124 13.7104C2.57124 13.7846 2.59883 13.8558 2.64794 13.9083C2.69705 13.9609 2.76366 13.9904 2.83311 13.9904H10.9512V14.5504H2.83311Z" fill="#941A1E"/>
<path d="M11.4749 11.7504H11.7368C11.8063 11.7504 11.8729 11.7209 11.922 11.6683C11.9711 11.6158 11.9987 11.5446 11.9987 11.4704C11.9987 11.3961 11.9711 11.3249 11.922 11.2724C11.8729 11.2199 11.8063 11.1904 11.7368 11.1904H8.59433V11.0638C8.59406 10.8004 8.49608 10.5479 8.32189 10.3617C8.14771 10.1754 7.91154 10.0706 7.66521 10.0704H7.02309V3.83979C7.1576 3.79506 7.28012 3.71648 7.38036 3.61067C7.48061 3.50485 7.55566 3.37487 7.59921 3.23163L9.68006 3.79163L8.19314 6.57427C8.19314 6.57819 8.19314 6.58323 8.19 6.58771C8.17038 6.62624 8.15977 6.66928 8.1591 6.71315C8.15489 6.98564 8.20145 7.2563 8.29607 7.50935C8.39068 7.76241 8.53146 7.99279 8.7102 8.18708C8.88893 8.38137 9.10205 8.53568 9.33712 8.64101C9.5722 8.74634 9.82454 8.80058 10.0794 8.80058C10.3343 8.80058 10.5866 8.74634 10.8217 8.64101C11.0568 8.53568 11.2699 8.38137 11.4486 8.18708C11.6274 7.99279 11.7682 7.76241 11.8628 7.50935C11.9574 7.2563 12.0039 6.98564 11.9997 6.71315C11.9991 6.66928 11.9885 6.62624 11.9688 6.58771C11.9688 6.58323 11.9688 6.57819 11.9657 6.57427L10.4468 3.72779L11.0287 3.41699C11.0909 3.38372 11.1381 3.32541 11.1601 3.25489C11.182 3.18437 11.1769 3.10741 11.1458 3.04095C11.1147 2.97449 11.0601 2.92396 10.9942 2.90049C10.9282 2.87702 10.8562 2.88252 10.7941 2.91579L10.0514 3.31339L7.59921 2.65539C7.55792 2.51 7.48375 2.37774 7.38326 2.27029C7.28277 2.16285 7.15907 2.08354 7.02309 2.03939V1.39035C7.02309 1.31609 6.9955 1.24487 6.94639 1.19236C6.89728 1.13985 6.83067 1.11035 6.76122 1.11035C6.69177 1.11035 6.62516 1.13985 6.57605 1.19236C6.52694 1.24487 6.49934 1.31609 6.49934 1.39035V2.04219C6.36148 2.08423 6.23573 2.16268 6.13367 2.27033C6.03162 2.37799 5.95654 2.51137 5.91537 2.65819L3.45376 3.31675L2.28318 2.89787C2.21727 2.87441 2.14534 2.8799 2.08321 2.91313C2.02109 2.94637 1.97386 3.00464 1.95191 3.07511C1.92996 3.14558 1.9351 3.22249 1.96619 3.28892C1.99727 3.35534 2.05177 3.40585 2.11768 3.42931L3.06042 3.76531L1.55779 6.57147C1.55779 6.57539 1.55779 6.58043 1.55465 6.58491C1.53502 6.62344 1.52442 6.66648 1.52375 6.71035C1.51954 6.98284 1.5661 7.2535 1.66071 7.50655C1.75533 7.75961 1.89611 7.98999 2.07484 8.18428C2.25358 8.37857 2.4667 8.53288 2.70177 8.63821C2.93685 8.74354 3.18918 8.79778 3.44407 8.79778C3.69895 8.79778 3.95128 8.74354 4.18636 8.63821C4.42144 8.53288 4.63455 8.37857 4.81329 8.18428C4.99202 7.98999 5.1328 7.75961 5.22742 7.50655C5.32203 7.2535 5.36859 6.98284 5.36439 6.71035C5.36371 6.66648 5.35311 6.62344 5.33348 6.58491C5.33348 6.58043 5.33348 6.57539 5.33034 6.57147L3.84342 3.78883L5.92427 3.22883C5.96737 3.37246 6.0421 3.50292 6.14217 3.60924C6.24225 3.71556 6.36474 3.79463 6.49934 3.83979V10.0704H5.85723C5.6109 10.0706 5.37473 10.1754 5.20054 10.3617C5.02636 10.5479 4.92838 10.8004 4.9281 11.0638V11.1904H2.83311C2.34694 11.1904 1.88068 11.3969 1.53691 11.7644C1.19313 12.132 1 12.6305 1 13.1504C1 13.6702 1.19313 14.1687 1.53691 14.5363C1.88068 14.9039 2.34694 15.1104 2.83311 15.1104H11.7368C11.8063 15.1104 11.8729 15.0809 11.922 15.0283C11.9711 14.9758 11.9987 14.9046 11.9987 14.8304C11.9987 14.7561 11.9711 14.6849 11.922 14.6324C11.8729 14.5799 11.8063 14.5504 11.7368 14.5504H11.4749V11.7504ZM11.2853 6.43035H8.87087L10.0755 4.17131L11.2853 6.43035ZM10.0781 8.20387C9.75397 8.2028 9.44029 8.08109 9.19094 7.85965C8.94159 7.63821 8.77212 7.33085 8.71165 6.99035H11.4451C11.3845 7.33089 11.2149 7.63827 10.9655 7.8597C10.7161 8.08114 10.4023 8.20282 10.0781 8.20387ZM4.65157 6.43035H2.23709L3.44171 4.17131L4.65157 6.43035ZM3.44695 8.20387C3.12229 8.20347 2.80792 8.08208 2.55794 7.86059C2.30796 7.6391 2.13802 7.33136 2.07735 6.99035H4.81078C4.75031 7.33085 4.58085 7.63821 4.3315 7.85965C4.08215 8.08109 3.76847 8.2028 3.44433 8.20387H3.44695ZM6.76122 2.55683C6.85378 2.55729 6.94265 2.59571 7.0095 2.66417C7.07635 2.73262 7.11608 2.82589 7.12051 2.92475C7.12051 2.93091 7.12418 2.93595 7.12522 2.94211H7.12156C7.12142 3.0442 7.08339 3.14205 7.01583 3.21418C6.94827 3.28632 6.8567 3.32683 6.76122 3.32683C6.71154 3.32561 6.66261 3.3136 6.6174 3.29153C6.5722 3.26947 6.53166 3.2378 6.49825 3.19847C6.46485 3.15914 6.43927 3.11295 6.42307 3.06272C6.40687 3.01249 6.40039 2.95926 6.40402 2.90627C6.41117 2.81052 6.45201 2.72122 6.51829 2.65637C6.58457 2.59153 6.67138 2.55596 6.76122 2.55683ZM5.45185 11.0638C5.45199 10.9489 5.49474 10.8387 5.57074 10.7575C5.64673 10.6762 5.74976 10.6305 5.85723 10.6304H7.66521C7.77268 10.6305 7.87571 10.6762 7.9517 10.7575C8.02769 10.8387 8.07045 10.9489 8.07059 11.0638V11.1904H5.45185V11.0638ZM2.83311 14.5504C2.48585 14.5504 2.15281 14.4029 1.90725 14.1403C1.6617 13.8777 1.52375 13.5217 1.52375 13.1504C1.52375 12.779 1.6617 12.423 1.90725 12.1604C2.15281 11.8979 2.48585 11.7504 2.83311 11.7504H10.9512V12.3104H2.83311C2.76366 12.3104 2.69705 12.3399 2.64794 12.3924C2.59883 12.4449 2.57124 12.5161 2.57124 12.5904C2.57124 12.6646 2.59883 12.7358 2.64794 12.7883C2.69705 12.8409 2.76366 12.8704 2.83311 12.8704H10.9512V13.4304H2.83311C2.76366 13.4304 2.69705 13.4599 2.64794 13.5124C2.59883 13.5649 2.57124 13.6361 2.57124 13.7104C2.57124 13.7846 2.59883 13.8558 2.64794 13.9083C2.69705 13.9609 2.76366 13.9904 2.83311 13.9904H10.9512V14.5504H2.83311Z" stroke="#940909" stroke-width="0.4" mask="url(#path-1-outside-1_1026_8608)"/>
</svg>
