<svg width="56" height="56" viewBox="0 0 56 56" fill="none" xmlns="http://www.w3.org/2000/svg">
<path d="M54.9999 27C54.7347 27 54.4804 27.1053 54.2928 27.2929C54.1053 27.4804 53.9999 27.7348 53.9999 28C52.573 62.4909 3.4231 62.4839 1.99994 27.9998C2.0078 21.1066 4.74961 14.498 9.62387 9.62376C14.4981 4.74955 21.1068 2.0078 28 2C28.2652 2 28.5195 1.89464 28.7071 1.7071C28.8946 1.51957 29 1.26522 29 0.999999C29 0.734783 28.8946 0.480429 28.7071 0.292893C28.5195 0.105357 28.2652 0 28 0C20.5765 0.0083268 13.4594 2.96099 8.2102 8.2102C2.96099 13.4594 0.0083268 20.5765 0 28C1.5376 65.1452 54.4675 65.1356 56 27.9997C55.9999 27.7346 55.8945 27.4803 55.707 27.2928C55.5194 27.1053 55.2651 27 54.9999 27Z" fill="#940909"/>
<path d="M29 7.18769V3.8127C28.9949 3.55086 28.8873 3.30147 28.7003 3.1181C28.5133 2.93473 28.2619 2.83202 28 2.83203C27.7381 2.83204 27.4866 2.93477 27.2997 3.11814C27.1127 3.30152 27.0051 3.55092 27 3.81276V7.18769C27.0051 7.44953 27.1127 7.69893 27.2997 7.8823C27.4867 8.06567 27.7381 8.16839 28 8.16839C28.2619 8.16839 28.5133 8.06567 28.7003 7.8823C28.8873 7.69893 28.9949 7.44953 29 7.18769Z" fill="#940909"/>
<path d="M17.0745 10.0771C17.2493 10.0751 17.4205 10.0277 17.5713 9.93939C17.7221 9.85112 17.8473 9.7251 17.9346 9.57372C18.022 9.42235 18.0684 9.25085 18.0692 9.0761C18.0701 8.90135 18.0255 8.72939 17.9398 8.57713L17.2903 7.45213C17.155 7.2279 16.9371 7.06569 16.6834 7.00037C16.4298 6.93504 16.1606 6.9718 15.9338 7.10275C15.707 7.2337 15.5405 7.44839 15.4703 7.7007C15.4 7.95302 15.4315 8.22284 15.558 8.45219C15.9026 8.9647 16.2908 10.151 17.0745 10.0771Z" fill="#940909"/>
<path d="M9.57738 16.2095L8.45238 15.56C8.22302 15.4335 7.95315 15.4019 7.70078 15.4722C7.44841 15.5425 7.23367 15.7089 7.10271 15.9358C6.97175 16.1627 6.93503 16.4319 7.00042 16.6856C7.06582 16.9393 7.22812 17.1572 7.45245 17.2925C7.78979 17.4467 8.68895 18.1229 9.07644 18.0757C9.29434 18.0714 9.50495 17.9964 9.67656 17.862C9.84818 17.7277 9.97152 17.5413 10.028 17.3308C10.0845 17.1203 10.0711 16.8971 9.98986 16.6949C9.90859 16.4927 9.76383 16.3223 9.57738 16.2095Z" fill="#940909"/>
<path d="M8.18749 28C8.18749 27.7348 8.08214 27.4804 7.8946 27.2929C7.70707 27.1054 7.45271 27 7.1875 27H3.8125C3.54728 27 3.29293 27.1054 3.10539 27.2929C2.91786 27.4804 2.8125 27.7348 2.8125 28C2.8125 28.2652 2.91786 28.5196 3.10539 28.7071C3.29293 28.8946 3.54728 29 3.8125 29H7.1875C7.45271 29 7.70707 28.8946 7.8946 28.7071C8.08214 28.5196 8.18749 28.2652 8.18749 28Z" fill="#940909"/>
<path d="M7.95495 40.5748C8.33837 40.6248 9.24743 39.9442 9.57952 39.7907C9.80376 39.6552 9.96592 39.4371 10.0312 39.1834C10.0964 38.9296 10.0595 38.6604 9.92843 38.4336C9.79735 38.2067 9.58252 38.0403 9.33009 37.9702C9.07767 37.9 8.80778 37.9316 8.57842 38.0582L7.45348 38.7086C7.26708 38.8216 7.12239 38.992 7.04118 39.1942C6.95998 39.3965 6.94666 39.6196 7.00321 39.8301C7.05977 40.0406 7.18315 40.227 7.35479 40.3613C7.52643 40.4956 7.73705 40.5706 7.95495 40.5748Z" fill="#940909"/>
<path d="M16.2075 46.4229L15.5581 47.5479C15.4315 47.7773 15.4 48.0471 15.4702 48.2995C15.5405 48.5519 15.707 48.7666 15.9339 48.8976C16.1608 49.0285 16.43 49.0653 16.6836 48.9999C16.9373 48.9345 17.1552 48.7722 17.2905 48.5479L17.9399 47.4229C18.0664 47.1936 18.0979 46.9237 18.0276 46.6714C17.9574 46.4191 17.7909 46.2044 17.5641 46.0734C17.3372 45.9425 17.0681 45.9057 16.8144 45.9711C16.5608 46.0364 16.3429 46.1987 16.2075 46.4229Z" fill="#940909"/>
<path d="M27 48.8127V52.1877C27.0051 52.4496 27.1127 52.6989 27.2997 52.8823C27.4867 53.0657 27.7381 53.1684 28 53.1684C28.2619 53.1684 28.5134 53.0656 28.7003 52.8823C28.8873 52.6989 28.9949 52.4495 29 52.1877V48.8127C28.9949 48.5509 28.8873 48.3015 28.7003 48.1181C28.5133 47.9347 28.2619 47.832 28 47.832C27.7381 47.832 27.4867 47.9347 27.2997 48.1181C27.1127 48.3015 27.0051 48.5509 27 48.8127Z" fill="#940909"/>
<path d="M38.4257 46.0565C38.1961 46.1892 38.0286 46.4076 37.9599 46.6638C37.8912 46.92 37.9271 47.1929 38.0595 47.4227L38.7089 48.5477C38.7746 48.6615 38.862 48.7613 38.9662 48.8413C39.0704 48.9213 39.1893 48.9801 39.3162 49.0141C39.4431 49.0482 39.5755 49.0569 39.7057 49.0397C39.836 49.0226 39.9616 48.98 40.0754 48.9143C40.1892 48.8486 40.2889 48.7612 40.3689 48.6569C40.4489 48.5527 40.5075 48.4337 40.5415 48.3068C40.5755 48.1799 40.5842 48.0475 40.567 47.9173C40.5498 47.787 40.5071 47.6614 40.4414 47.5477L39.7919 46.4227C39.7264 46.3088 39.6391 46.2089 39.5349 46.1288C39.4308 46.0487 39.3118 45.9899 39.1849 45.9559C39.0579 45.9219 38.9255 45.9133 38.7953 45.9305C38.665 45.9478 38.5394 45.9906 38.4257 46.0565Z" fill="#940909"/>
<path d="M47.421 38.0579C47.1917 37.9315 46.9219 37.9 46.6697 37.9703C46.4174 38.0405 46.2027 38.2069 46.0717 38.4336C45.9407 38.6604 45.9038 38.9294 45.969 39.1831C46.0341 39.4367 46.1961 39.6547 46.4201 39.7903C46.7578 39.9449 47.6563 40.6219 48.0446 40.5745C48.2625 40.5701 48.4731 40.4952 48.6447 40.3609C48.8163 40.2266 48.9397 40.0401 48.9963 39.8297C49.0528 39.6192 49.0395 39.3961 48.9583 39.1938C48.8771 38.9916 48.7324 38.8212 48.546 38.7082L47.421 38.0579Z" fill="#940909"/>
<path d="M53.1875 28C53.1875 27.7348 53.0821 27.4804 52.8946 27.2929C52.7071 27.1054 52.4527 27 52.1875 27H48.8125C48.5473 27 48.2929 27.1054 48.1054 27.2929C47.9179 27.4804 47.8125 27.7348 47.8125 28C47.8125 28.2652 47.9179 28.5196 48.1054 28.7071C48.2929 28.8946 48.5473 29 48.8125 29H52.1875C52.4527 29 52.7071 28.8946 52.8946 28.7071C53.0821 28.5196 53.1875 28.2652 53.1875 28Z" fill="#940909"/>
<path d="M14.9245 18.1676C14.7278 18.0429 14.4938 17.9904 14.2626 18.0193C14.0314 18.0482 13.8175 18.1565 13.6574 18.3258C13.4973 18.495 13.4011 18.7147 13.3852 18.9471C13.3692 19.1795 13.4346 19.4103 13.5701 19.5998L27.07 37.5992C27.1606 37.718 27.2764 37.8152 27.4091 37.8836C27.5419 37.9521 27.6882 37.9901 27.8375 37.995C27.9868 37.9999 28.1353 37.9714 28.2722 37.9117C28.4092 37.852 28.5311 37.7626 28.6291 37.6499L55.6291 6.15047C55.7867 5.9592 55.8678 5.71631 55.8567 5.46873C55.8456 5.22116 55.7432 4.98648 55.5691 4.81004C55.3951 4.6336 55.1619 4.52792 54.9145 4.51343C54.6671 4.49894 54.4231 4.57667 54.2297 4.73159L27.8034 26.7535L14.9245 18.1676ZM28.51 28.7676L46.3552 13.897L27.9221 35.4019L18.6726 23.0699L27.3152 28.8316C27.4947 28.9508 27.7079 29.009 27.9232 28.9975C28.1384 28.986 28.3442 28.9054 28.51 28.7676Z" fill="#940909"/>
</svg>
