<svg width="135" height="39" viewBox="0 0 135 39" fill="none" xmlns="http://www.w3.org/2000/svg">
<path d="M16.1977 30.9961H12.4548V11.1779C12.4548 7.55082 9.5104 4.60645 5.88328 4.60645H3.48755V7.00217H5.88328V31.0021H3.48755V33.3979H22.7692V27.2775L16.1977 22.5226V31.0021V30.9961Z" fill="white"/>
<path d="M45.5236 7.00217V4.60645H43.1279C39.5008 4.60645 36.5564 7.55082 36.5564 11.1779V31.0021H32.8134V22.5226L26.2419 27.2775V33.3979H45.5236V31.0021H43.1279V7.00217H45.5236Z" fill="white"/>
<path d="M32.8134 18.3063V2.39573H35.2092V0H32.8134C29.1863 0 26.2419 2.94437 26.2419 6.57149V22.988L32.8134 18.3063Z" fill="white"/>
<path d="M22.7697 20.4277V6.57149C22.7697 2.94437 19.8253 0 16.1982 0H13.8025V2.39573H16.1982V18.6477L19.7217 21.1592L24.2754 24.512L26.2505 22.9941L22.7758 20.4338L22.7697 20.4277Z" fill="white"/>
<path d="M49.0119 35.7852H0V38.1809H49.0119V35.7852Z" fill="white"/>
<path d="M111.948 13.2836C110.13 13.3603 109.777 13.6288 109.777 15.585V29.3936C109.777 30.1607 109.992 30.4292 111.143 30.4292H112.032C113.904 30.4292 116.605 27.9207 117.226 24.4685H117.84C117.786 25.1129 117.763 25.9645 117.763 26.9234C117.763 27.8823 117.763 29.8155 117.955 31.6873C116.137 31.6106 113.62 31.6106 111.825 31.6106C109.9 31.6106 105.565 31.6106 102.458 31.6873V31.158C104.093 31.0813 104.361 30.8051 104.361 28.8566V15.585C104.361 13.6288 104.062 13.3603 102.458 13.2836V12.7466C103.479 12.8003 105.297 12.8233 107.222 12.8233C108.987 12.8233 110.859 12.8003 111.963 12.7466V13.2836H111.948Z" fill="white"/>
<path d="M134.456 31.6965C132.638 31.6198 130.121 31.6198 128.326 31.6198C126.401 31.6198 122.066 31.6198 118.959 31.6965V31.1672C120.593 31.0905 120.862 30.8143 120.862 28.8658V15.5942C120.862 13.638 120.563 13.3695 118.959 13.2928V12.7558C122.066 12.8325 126.401 12.8325 128.326 12.8325C129.96 12.8325 132.262 12.8325 133.926 12.7558C133.788 14.5509 133.735 16.369 133.735 17.2512C133.735 18.003 133.765 18.7241 133.811 19.1844H133.19C132.523 14.735 130.467 14.0292 128.265 14.0292H127.912C126.524 14.0292 126.278 14.152 126.278 15.0572V21.9078H126.547C128.549 21.9078 129.861 19.9285 130.183 18.3712H130.804C130.666 20.4042 130.727 21.2941 130.727 22.1763C130.727 23.0585 130.75 23.9407 130.889 25.9736H130.267C129.945 23.9944 128.556 22.4448 126.547 22.4448H126.278V29.4028C126.278 30.4077 126.516 30.4384 127.912 30.4384H128.794C130.566 30.4384 132.86 29.5945 133.719 24.7462H134.333C134.279 25.3906 134.256 26.2498 134.256 27.2087C134.256 28.0909 134.256 29.9398 134.448 31.7042L134.456 31.6965ZM120.862 11.1141L120.724 10.7152C123.056 9.61815 125.219 7.8307 126.531 6.1123H127.014C128.273 7.80002 130.467 9.58746 132.822 10.7152L132.691 11.1141C130.229 10.7382 127.636 10.0708 126.24 9.48006C125.058 10.0708 122.895 10.7382 120.862 11.1141Z" fill="white"/>
<path d="M97.1675 13.2886C95.5335 13.6338 95.265 14.4393 95.265 17.4619V23.9059C95.265 26.1306 95.0272 28.1635 94.168 29.5827C93.2321 31.1323 90.969 32.0683 87.8851 32.0683C86.2511 32.0683 83.336 31.8074 81.9244 30.7871C80.0756 29.4523 79.7304 27.2813 79.7304 23.9902V15.59C79.7304 13.6338 79.4619 13.3653 77.8279 13.2886V12.7516C78.8482 12.8053 80.6893 12.8283 82.5381 12.8283C84.387 12.8283 86.2358 12.8053 87.3251 12.7516V13.2886C85.507 13.3653 85.1618 13.6338 85.1618 15.59V26.5065C85.1618 30.0353 86.2818 31.1323 88.5065 31.1323C92.0967 31.1323 93.1938 28.3169 93.1938 24.1974V17.9835C93.1938 14.3933 93.0327 13.6185 90.4934 13.2733V12.7363C91.2145 12.79 92.4957 12.813 93.4929 12.813C94.2984 12.813 96.6306 12.79 97.1675 12.7363V13.2733V13.2886ZM90.5778 8.36355C91.5367 8.36355 92.3959 7.96464 93.1707 6.95201L93.5466 7.13612C92.8255 10.0513 91.2529 11.2327 89.5882 11.2327C86.6961 11.2327 85.9519 9.43755 83.6505 9.43755C82.6916 9.43755 81.8324 9.86715 81.0576 10.8798L80.6817 10.6957C81.4028 7.77285 82.9831 6.59912 84.6708 6.59912C87.5322 6.59912 88.284 8.36355 90.5855 8.36355H90.5778Z" fill="white"/>
<path d="M73.7919 12.8285C72.5568 12.8285 71.6209 12.8055 70.2861 12.7518V13.2888C72.4264 13.3655 73.2549 14.9765 71.5979 19.6561L68.9973 26.9286L64.3714 15.5289C63.5966 13.6033 64.241 13.3655 65.921 13.2811V12.7441C64.9621 12.7978 63.2437 12.8209 61.4256 12.8209C59.6074 12.8209 57.8353 12.7978 56.5542 12.7441V13.2811C57.0375 13.3042 57.6282 13.7644 58.1345 14.9919L65.1462 31.6926C65.1462 31.6926 67.4476 31.5698 69.2658 31.6926L74.4823 17.0248C75.2878 14.7541 76.3311 13.6801 77.1597 13.2811V12.7441C76.6303 12.7978 74.49 12.8209 73.7919 12.8209V12.8285Z" fill="white"/>
</svg>
