<svg width="115" height="39" viewBox="0 0 115 39" fill="none" xmlns="http://www.w3.org/2000/svg">
<path d="M15.7857 30.2084H12.1378V10.8938C12.1378 7.35882 9.26827 4.48926 5.7333 4.48926H3.39844V6.82412H5.7333V30.2143H3.39844V32.5492H22.1902V26.5843L15.7857 21.9502V30.2143V30.2084Z" fill="#940909"/>
<path d="M44.366 6.82412V4.48926H42.0311C38.4962 4.48926 35.6266 7.35882 35.6266 10.8938V30.2143H31.9788V21.9502L25.5742 26.5843V32.5492H44.366V30.2143H42.0311V6.82412H44.366Z" fill="#940909"/>
<path d="M31.9788 17.8412V2.33486H34.3136V0H31.9788C28.4438 0 25.5742 2.86956 25.5742 6.40453V22.404L31.9788 17.8412Z" fill="#940909"/>
<path d="M22.1906 19.9087V6.40453C22.1906 2.86956 19.321 0 15.786 0H13.4512V2.33486H15.786V18.1739L19.22 20.6216L23.658 23.8893L25.583 22.4099L22.1965 19.9147L22.1906 19.9087Z" fill="#940909"/>
<path d="M47.7667 34.876H0V37.2108H47.7667V34.876Z" fill="#940909"/>
<path d="M54.6621 34.4929H55.1612V32.4551H56.6643C57.294 32.4551 57.9535 32.5501 58.5417 33.1086C58.9635 33.5126 59.2249 34.0711 59.2249 34.8137C59.2249 36.299 58.1555 37.208 56.6999 37.208H55.1612V35.2118H54.6621V34.4929ZM56.2603 36.2812H56.5514C57.502 36.2812 58.0961 35.794 58.0961 34.8137C58.0961 33.8334 57.4485 33.3819 56.5514 33.3819H56.2603V34.4929H57.1158V35.2118H56.2603V36.2812Z" fill="#940909"/>
<path d="M61.1665 32.4551V37.208H60.0674V32.4551H61.1665Z" fill="#940909"/>
<path d="M64.9168 32.4561V33.3829H63.3306V34.3038H64.8396V35.2306H63.3306V36.2882H64.9168V37.215H62.2314V32.4621H64.9168V32.4561ZM62.4572 31.6244L63.5563 30.7391L64.6614 31.6244L64.2277 32.0224L63.5563 31.5174L62.885 32.0224L62.4572 31.6244ZM63.8118 30.5134C63.8474 30.2223 64.1029 29.8955 64.6911 29.8955C65.0772 29.8955 65.4812 30.0856 65.4872 30.5253C65.4931 30.9114 65.1426 31.0897 64.9228 31.1194V31.2204H64.4118V30.7926C64.5663 30.7926 64.9168 30.757 64.9168 30.5372C64.9168 30.4302 64.8277 30.353 64.6792 30.353C64.5307 30.353 64.4297 30.4183 64.4118 30.5253H63.8118V30.5134Z" fill="#940909"/>
<path d="M66.3543 32.4551H67.2692L68.4515 35.3009L69.6338 32.4551H70.5487L71.3092 37.208H70.2101L69.8299 34.3741L68.6416 37.208H68.2555L67.0613 34.3741L66.687 37.208H65.5879L66.3484 32.4551H66.3543Z" fill="#940909"/>
<path d="M73.335 32.4551H76.5016V33.3819H75.4678V37.208H74.3687V33.3819H73.335V32.4551Z" fill="#940909"/>
<path d="M78.1781 32.4566V35.243C78.1781 35.849 78.4336 36.2886 79.0931 36.2886C79.7525 36.2886 80.008 35.8549 80.008 35.243V32.4566H80.6615C81.0299 32.4328 81.0833 32.1417 81.0833 31.8506H81.8676C81.8735 32.415 81.6299 32.819 81.1071 32.9438V35.2727C81.1071 35.7301 81.0477 36.2945 80.5783 36.7758C80.1209 37.2451 79.5981 37.3164 79.099 37.3164C78.5999 37.3164 78.0712 37.2451 77.6137 36.7758C77.1444 36.2886 77.085 35.7301 77.085 35.2727V32.4566H78.1841H78.1781ZM78.5821 38.3442C78.5821 38.065 78.8198 37.8392 79.0871 37.8392C79.3545 37.8392 79.6099 38.0709 79.6099 38.3442C79.6099 38.6175 79.3723 38.8433 79.0871 38.8433C78.8019 38.8433 78.5821 38.6116 78.5821 38.3442Z" fill="#940909"/>
<path d="M81.4912 37.208L83.4102 32.4551H84.4142L86.2916 37.208H85.1509L84.7945 36.3109H83.0003L82.6379 37.208H81.4971H81.4912ZM84.4915 35.4672L83.9093 33.8691L83.3151 35.4672H84.4915Z" fill="#940909"/>
<path d="M90.1656 32.4551C91.1697 32.4551 91.8767 32.9422 91.8767 33.9998C91.8767 34.5998 91.6509 34.9325 91.4727 35.1167C91.1043 35.5088 90.5934 35.5385 90.2607 35.5385H89.5893V37.208H88.4902V32.4551H90.1656ZM89.5893 34.6414H89.9815C90.4152 34.6414 90.7538 34.481 90.7538 33.9938C90.7538 33.5067 90.3973 33.3522 89.9636 33.3522H89.5953V34.6414H89.5893Z" fill="#940909"/>
<path d="M92.5723 32.4551H93.6714V34.2671H95.5666V32.4551H96.6657V37.208H95.5666V35.1939H93.6714V37.208H92.5723V32.4551Z" fill="#940909"/>
<path d="M99.1279 32.4567H100.132L102.009 37.2096H100.869L100.512 36.3125H98.7179L98.3555 37.2096H97.2148L99.1338 32.4567H99.1279ZM99.0328 35.4689H100.209L99.6269 33.8707L99.0328 35.4689ZM100.043 30.7041L100.643 31.2269L99.4665 32.023L99.0506 31.6606L100.043 30.7041Z" fill="#940909"/>
<path d="M104.216 32.4551C105.22 32.4551 105.927 32.9422 105.927 33.9998C105.927 34.5998 105.702 34.9325 105.523 35.1167C105.155 35.5088 104.644 35.5385 104.311 35.5385H103.64V37.208H102.541V32.4551H104.216ZM103.64 34.6414H104.032C104.466 34.6414 104.805 34.481 104.805 33.9938C104.805 33.5067 104.448 33.3522 104.014 33.3522H103.646V34.6414H103.64Z" fill="#940909"/>
<path d="M109.386 32.4551V36.2812H110.86V37.208H108.287V32.4551H109.386Z" fill="#940909"/>
<path d="M110.491 32.4567H111.786L112.743 33.9301L113.699 32.4567H115.001L113.295 34.9936V37.2096H112.196V34.9936L110.491 32.4567ZM112.22 31.6606L113.212 30.7041L113.812 31.2269L112.636 32.023L112.22 31.6606Z" fill="#940909"/>
<path d="M97.5621 10.4696C96.154 10.529 95.8807 10.7369 95.8807 12.2519V22.946C95.8807 23.5401 96.0471 23.748 96.9382 23.748H97.6274C99.077 23.748 101.168 21.8053 101.65 19.1318H102.125C102.083 19.6308 102.065 20.2903 102.065 21.0329C102.065 21.7756 102.065 23.2727 102.214 24.7223C100.806 24.6629 98.8572 24.6629 97.467 24.6629C95.9758 24.6629 92.619 24.6629 90.2129 24.7223V24.3124C91.4784 24.253 91.6863 24.0391 91.6863 22.5301V12.2519C91.6863 10.7369 91.4546 10.529 90.2129 10.4696V10.0537C91.0031 10.0953 92.4111 10.1131 93.9023 10.1131C95.2688 10.1131 96.7184 10.0953 97.5739 10.0537V10.4696H97.5621Z" fill="#940909"/>
<path d="M114.992 24.7297C113.584 24.6703 111.636 24.6703 110.245 24.6703C108.754 24.6703 105.397 24.6703 102.991 24.7297V24.3197C104.257 24.2603 104.465 24.0464 104.465 22.5374V12.2592C104.465 10.7443 104.233 10.5363 102.991 10.4769V10.061C105.397 10.1204 108.754 10.1204 110.245 10.1204C111.511 10.1204 113.293 10.1204 114.582 10.061C114.475 11.4513 114.434 12.8593 114.434 13.5425C114.434 14.1248 114.458 14.6832 114.493 15.0397H114.012C113.495 11.5938 111.903 11.0473 110.198 11.0473H109.925C108.849 11.0473 108.659 11.1423 108.659 11.8434V17.1488H108.867C110.418 17.1488 111.434 15.616 111.683 14.4099H112.164C112.057 15.9843 112.105 16.6735 112.105 17.3567C112.105 18.04 112.123 18.7232 112.23 20.2976H111.748C111.499 18.7648 110.424 17.5647 108.867 17.5647H108.659V22.9533C108.659 23.7316 108.843 23.7553 109.925 23.7553H110.608C111.98 23.7553 113.757 23.1018 114.422 19.347H114.897C114.856 19.8461 114.838 20.5115 114.838 21.2541C114.838 21.9373 114.838 23.3692 114.986 24.7356L114.992 24.7297ZM104.465 8.78963L104.358 8.48069C106.164 7.63111 107.839 6.24683 108.855 4.91602H109.229C110.204 6.22306 111.903 7.60735 113.727 8.48069L113.626 8.78963C111.719 8.49851 109.711 7.98164 108.629 7.52417C107.714 7.98164 106.039 8.49851 104.465 8.78963Z" fill="#940909"/>
<path d="M86.1143 10.4727C84.8488 10.74 84.6409 11.3638 84.6409 13.7046V18.6952C84.6409 20.4181 84.4567 21.9925 83.7913 23.0916C83.0665 24.2917 81.3139 25.0165 78.9255 25.0165C77.6601 25.0165 75.4024 24.8145 74.3093 24.0244C72.8775 22.9906 72.6101 21.3093 72.6101 18.7605V12.255C72.6101 10.74 72.4022 10.5321 71.1367 10.4727V10.0568C71.9269 10.0984 73.3528 10.1162 74.7846 10.1162C76.2164 10.1162 77.6482 10.0984 78.4918 10.0568V10.4727C77.0838 10.5321 76.8164 10.74 76.8164 12.255V20.7092C76.8164 23.4421 77.6838 24.2917 79.4068 24.2917C82.1872 24.2917 83.0368 22.1113 83.0368 18.9209V14.1086C83.0368 11.3282 82.912 10.7281 80.9455 10.4608V10.0449C81.504 10.0865 82.4962 10.1043 83.2685 10.1043C83.8923 10.1043 85.6984 10.0865 86.1143 10.0449V10.4608V10.4727ZM81.0109 6.65845C81.7535 6.65845 82.4189 6.34951 83.019 5.56528L83.3101 5.70787C82.7516 7.9655 81.5337 8.88043 80.2445 8.88043C78.0047 8.88043 77.4284 7.49021 75.646 7.49021C74.9034 7.49021 74.238 7.82291 73.6379 8.60714L73.3468 8.46455C73.9053 6.20098 75.1292 5.29199 76.4362 5.29199C78.6522 5.29199 79.2345 6.65845 81.0168 6.65845H81.0109Z" fill="#940909"/>
<path d="M68.0118 10.1171C67.0553 10.1171 66.3305 10.0993 65.2967 10.0577V10.4736C66.9543 10.533 67.5959 11.7806 66.3127 15.4047L64.2986 21.0369L60.7161 12.2084C60.1161 10.7172 60.6151 10.533 61.9162 10.4676V10.0518C61.1736 10.0933 59.8428 10.1112 58.4347 10.1112C57.0267 10.1112 55.6543 10.0933 54.6621 10.0518V10.4676C55.0364 10.4855 55.4939 10.8419 55.886 11.7925L61.3162 24.7263C61.3162 24.7263 63.0985 24.6313 64.5066 24.7263L68.5465 13.3669C69.1703 11.6083 69.9783 10.7766 70.62 10.4676V10.0518C70.21 10.0933 68.5525 10.1112 68.0118 10.1112V10.1171Z" fill="#940909"/>
</svg>
