<svg width="118" height="40" viewBox="0 0 118 40" fill="none" xmlns="http://www.w3.org/2000/svg">
<path d="M16.1975 30.9961H12.4545V11.1779C12.4545 7.55082 9.51016 4.60645 5.88303 4.60645H3.4873V7.00217H5.88303V31.0021H3.4873V33.3979H22.769V27.2775L16.1975 22.5226V31.0021V30.9961Z" fill="white"/>
<path d="M45.5229 7.00217V4.60645H43.1271C39.5 4.60645 36.5557 7.55082 36.5557 11.1779V31.0021H32.8127V22.5226L26.2412 27.2775V33.3979H45.5229V31.0021H43.1271V7.00217H45.5229Z" fill="white"/>
<path d="M32.8127 18.3063V2.39573H35.2084V0H32.8127C29.1856 0 26.2412 2.94437 26.2412 6.57149V22.988L32.8127 18.3063Z" fill="white"/>
<path d="M22.769 20.4277V6.57149C22.769 2.94437 19.8246 0 16.1975 0H13.8018V2.39573H16.1975V18.6477L19.721 21.1592L24.2747 24.512L26.2498 22.9941L22.7751 20.4338L22.769 20.4277Z" fill="white"/>
<path d="M49.0119 35.7852H0V38.1809H49.0119V35.7852Z" fill="white"/>
<path d="M56.0879 35.3927H56.6V33.3018H58.1422C58.7884 33.3018 59.4651 33.3993 60.0686 33.9723C60.5014 34.3868 60.7696 34.9599 60.7696 35.7219C60.7696 37.2459 59.6723 38.1786 58.1788 38.1786H56.6V36.1303H56.0879V35.3927ZM57.7277 37.2276H58.0264C59.0018 37.2276 59.6114 36.7277 59.6114 35.7219C59.6114 34.716 58.9469 34.2527 58.0264 34.2527H57.7277V35.3927H58.6055V36.1303H57.7277V37.2276Z" fill="white"/>
<path d="M62.7625 33.3018V38.1786H61.6348V33.3018H62.7625Z" fill="white"/>
<path d="M66.6099 33.3012V34.2522H64.9823V35.1971H66.5306V36.148H64.9823V37.2331H66.6099V38.1841H63.8545V33.3073H66.6099V33.3012ZM64.0861 32.4478L65.2139 31.5395L66.3478 32.4478L65.9028 32.8562L65.2139 32.338L64.5251 32.8562L64.0861 32.4478ZM65.476 31.3078C65.5126 31.0091 65.7747 30.6738 66.3782 30.6738C66.7745 30.6738 67.189 30.8689 67.1951 31.32C67.2012 31.7162 66.8415 31.8991 66.616 31.9296V32.0332H66.0917V31.5943C66.2502 31.5943 66.6099 31.5578 66.6099 31.3322C66.6099 31.2225 66.5184 31.1432 66.366 31.1432C66.2136 31.1432 66.11 31.2103 66.0917 31.32H65.476V31.3078Z" fill="white"/>
<path d="M68.0852 33.3018H69.024L70.2371 36.2217L71.4502 33.3018H72.389L73.1693 38.1786H72.0415L71.6514 35.2708L70.4322 38.1786H70.0359L68.8106 35.2708L68.4266 38.1786H67.2988L68.0791 33.3018H68.0852Z" fill="white"/>
<path d="M75.248 33.3018H78.4972V34.2527H77.4365V38.1786H76.3088V34.2527H75.248V33.3018Z" fill="white"/>
<path d="M80.2164 33.3005V36.1595C80.2164 36.7813 80.4785 37.2324 81.1552 37.2324C81.8318 37.2324 82.094 36.7874 82.094 36.1595V33.3005H82.7645C83.1425 33.2761 83.1973 32.9774 83.1973 32.6787H84.002C84.0081 33.2578 83.7582 33.6724 83.2217 33.8004V36.19C83.2217 36.6594 83.1608 37.2385 82.6792 37.7323C82.2098 38.2139 81.6733 38.287 81.1613 38.287C80.6492 38.287 80.1067 38.2139 79.6373 37.7323C79.1557 37.2324 79.0947 36.6594 79.0947 36.19V33.3005H80.2225H80.2164ZM80.6309 39.3416C80.6309 39.0551 80.8748 38.8235 81.1491 38.8235C81.4234 38.8235 81.6855 39.0612 81.6855 39.3416C81.6855 39.6221 81.4417 39.8537 81.1491 39.8537C80.8565 39.8537 80.6309 39.616 80.6309 39.3416Z" fill="white"/>
<path d="M83.6172 38.1786L85.5862 33.3018H86.6164L88.5428 38.1786H87.3723L87.0066 37.2581H85.1656L84.7937 38.1786H83.6233H83.6172ZM86.6957 36.3924L86.0983 34.7526L85.4887 36.3924H86.6957Z" fill="white"/>
<path d="M92.5179 33.3018C93.5481 33.3018 94.2735 33.8016 94.2735 34.8867C94.2735 35.5024 94.0419 35.8438 93.859 36.0328C93.4811 36.4351 92.9568 36.4656 92.6154 36.4656H91.9266V38.1786H90.7988V33.3018H92.5179ZM91.9266 35.5451H92.3289C92.7739 35.5451 93.1214 35.3805 93.1214 34.8806C93.1214 34.3808 92.7556 34.2223 92.3106 34.2223H91.9327V35.5451H91.9266Z" fill="white"/>
<path d="M94.9863 33.3018H96.1141V35.161H98.0587V33.3018H99.1865V38.1786H98.0587V36.112H96.1141V38.1786H94.9863V33.3018Z" fill="white"/>
<path d="M101.713 33.3022H102.743L104.669 38.179H103.499L103.133 37.2585H101.292L100.92 38.179H99.75L101.719 33.3022H101.713ZM101.615 36.3929H102.822L102.225 34.7531L101.615 36.3929ZM102.652 31.5039L103.267 32.0404L102.06 32.8572L101.634 32.4854L102.652 31.5039Z" fill="white"/>
<path d="M106.935 33.3018C107.965 33.3018 108.691 33.8016 108.691 34.8867C108.691 35.5024 108.459 35.8438 108.276 36.0328C107.898 36.4351 107.374 36.4656 107.032 36.4656H106.344V38.1786H105.216V33.3018H106.935ZM106.344 35.5451H106.746C107.191 35.5451 107.538 35.3805 107.538 34.8806C107.538 34.3808 107.173 34.2223 106.728 34.2223H106.35V35.5451H106.344Z" fill="white"/>
<path d="M112.238 33.3018V37.2276H113.75V38.1786H111.11V33.3018H112.238Z" fill="white"/>
<path d="M113.372 33.3022H114.701L115.682 34.814L116.664 33.3022H117.999L116.249 35.9052V38.179H115.122V35.9052L113.372 33.3022ZM115.146 32.4854L116.164 31.5039L116.78 32.0404L115.573 32.8572L115.146 32.4854Z" fill="white"/>
<path d="M100.105 10.7421C98.6605 10.8031 98.38 11.0165 98.38 12.571V23.5438C98.38 24.1534 98.5507 24.3667 99.4651 24.3667H100.172C101.66 24.3667 103.805 22.3733 104.299 19.6301H104.787C104.744 20.1422 104.726 20.8188 104.726 21.5808C104.726 22.3428 104.726 23.879 104.878 25.3665C103.434 25.3055 101.434 25.3055 100.008 25.3055C98.4776 25.3055 95.0333 25.3055 92.5645 25.3665V24.9458C93.8629 24.8849 94.0763 24.6654 94.0763 23.117V12.571C94.0763 11.0165 93.8385 10.8031 92.5645 10.7421V10.3154C93.3752 10.3581 94.82 10.3764 96.3501 10.3764C97.7521 10.3764 99.2396 10.3581 100.117 10.3154V10.7421H100.105Z" fill="white"/>
<path d="M117.991 25.3741C116.546 25.3132 114.546 25.3132 113.12 25.3132C111.59 25.3132 108.146 25.3132 105.677 25.3741V24.9535C106.975 24.8925 107.189 24.6731 107.189 23.1247V12.5786C107.189 11.0241 106.951 10.8108 105.677 10.7498V10.3231C108.146 10.384 111.59 10.384 113.12 10.384C114.418 10.384 116.247 10.384 117.57 10.3231C117.46 11.7496 117.418 13.1943 117.418 13.8953C117.418 14.4928 117.442 15.0658 117.479 15.4315H116.985C116.454 11.8959 114.821 11.335 113.071 11.335H112.791C111.687 11.335 111.492 11.4326 111.492 12.1519V17.5956H111.706C113.297 17.5956 114.339 16.0228 114.595 14.7854H115.089C114.979 16.4008 115.028 17.1079 115.028 17.809C115.028 18.51 115.046 19.2111 115.156 20.8265H114.662C114.406 19.2537 113.303 18.0223 111.706 18.0223H111.492V23.5514C111.492 24.35 111.681 24.3744 112.791 24.3744H113.492C114.9 24.3744 116.723 23.7038 117.405 19.8511H117.893C117.85 20.3632 117.832 21.046 117.832 21.808C117.832 22.509 117.832 23.9781 117.985 25.3802L117.991 25.3741ZM107.189 9.01854L107.079 8.70155C108.932 7.82982 110.651 6.40945 111.694 5.04395H112.078C113.077 6.38507 114.821 7.80544 116.692 8.70155L116.589 9.01854C114.632 8.71984 112.571 8.18948 111.462 7.72009C110.523 8.18948 108.804 8.71984 107.189 9.01854Z" fill="white"/>
<path d="M88.3602 10.7464C87.0618 11.0207 86.8484 11.6608 86.8484 14.0626V19.1832C86.8484 20.9511 86.6594 22.5665 85.9767 23.6943C85.233 24.9257 83.4346 25.6694 80.9841 25.6694C79.6856 25.6694 77.3691 25.4621 76.2475 24.6514C74.7783 23.5907 74.504 21.8655 74.504 19.2503V12.5752C74.504 11.0207 74.2906 10.8073 72.9922 10.7464V10.3197C73.803 10.3623 75.266 10.3806 76.7351 10.3806C78.2043 10.3806 79.6734 10.3623 80.539 10.3197V10.7464C79.0943 10.8073 78.82 11.0207 78.82 12.5752V21.2498C78.82 24.054 79.71 24.9257 81.4778 24.9257C84.3308 24.9257 85.2025 22.6885 85.2025 19.4149V14.4771C85.2025 11.6242 85.0745 11.0085 83.0567 10.7342V10.3075C83.6297 10.3501 84.6478 10.3684 85.4402 10.3684C86.0803 10.3684 87.9335 10.3501 88.3602 10.3075V10.7342V10.7464ZM83.1237 6.83275C83.8857 6.83275 84.5685 6.51575 85.1842 5.71108L85.4829 5.85738C84.9099 8.17387 83.6602 9.11265 82.3374 9.11265C80.0392 9.11265 79.4479 7.68619 77.6191 7.68619C76.8571 7.68619 76.1743 8.02756 75.5586 8.83223L75.2599 8.68593C75.8329 6.36335 77.0887 5.43066 78.4298 5.43066C80.7036 5.43066 81.301 6.83275 83.1298 6.83275H83.1237Z" fill="white"/>
<path d="M69.7856 10.3805C68.8042 10.3805 68.0604 10.3622 66.9997 10.3196V10.7463C68.7005 10.8073 69.3589 12.0874 68.0422 15.806L65.9756 21.585L62.2997 12.5263C61.684 10.9962 62.1961 10.8073 63.5311 10.7402V10.3135C62.7691 10.3561 61.4036 10.3744 59.9589 10.3744C58.5141 10.3744 57.1059 10.3561 56.0879 10.3135V10.7402C56.4719 10.7585 56.9413 11.1242 57.3437 12.0996L62.9154 25.3706C62.9154 25.3706 64.7442 25.2731 66.189 25.3706L70.3343 13.715C70.9743 11.9106 71.8034 11.0572 72.4618 10.7402V10.3135C72.0411 10.3561 70.3404 10.3744 69.7856 10.3744V10.3805Z" fill="white"/>
</svg>
