<?xml version="1.0" encoding="utf-8"?>
<!-- Generator: Adobe Illustrator 25.0.1, SVG Export Plug-In . SVG Version: 6.00 Build 0)  -->
<svg version="1.1" id="_x32_" xmlns="http://www.w3.org/2000/svg" xmlns:xlink="http://www.w3.org/1999/xlink" x="0px" y="0px"
	 viewBox="0 0 64 64" style="enable-background:new 0 0 64 64;" xml:space="preserve">
<style type="text/css">
	.st0{opacity:0.7;fill:#826E37;enable-background:new    ;}
	.st1{fill:#FFFFFF;}
</style>
<path class="st0" d="M60,64H4c-2.2,0-4-1.8-4-4V4c0-2.2,1.8-4,4-4h56c2.2,0,4,1.8,4,4v56C64,62.2,62.2,64,60,64z"/>
<g>
	<polygon class="st1" points="40.2,8.6 44.8,13 35,22.8 41.2,29.2 51,19.2 55.4,23.8 55.4,8.6 	"/>
	<polygon class="st1" points="22.8,35 13,44.8 8.6,40.2 8.6,55.4 23.8,55.4 19.2,51 29.2,41.2 	"/>
	<polygon class="st1" points="41.2,35 35,41.2 44.8,51 40.2,55.4 55.4,55.4 55.4,40.2 51,44.8 	"/>
	<polygon class="st1" points="23.8,8.6 8.6,8.6 8.6,23.8 13,19.2 22.8,29.2 29.2,22.8 19.2,13 	"/>
</g>
</svg>
