<svg width="97" height="82" viewBox="0 0 97 82" fill="none" xmlns="http://www.w3.org/2000/svg">
<g clip-path="url(#clip0_1184_1232)">
<path d="M0 17.4228C0.474597 16.6878 1.14854 16.444 2.01041 16.4707C3.39623 16.5183 4.78584 16.4707 6.17356 16.4878C7.20249 16.5012 7.83847 17.0591 7.85745 17.8932C7.87644 18.7881 7.24426 19.3251 6.1394 19.3309C4.71941 19.3309 3.29179 19.2947 1.88319 19.348C1.03081 19.3823 0.419544 19.0985 0 18.3692V17.4228Z" fill="#1677BE"/>
<path d="M62.8252 30.9294C65.9804 25.5499 69.0633 20.2905 72.2925 14.7872C71.2996 14.4368 70.3941 13.9418 69.4563 13.8351C67.9604 13.6447 66.434 13.7266 64.9191 13.6942C64.5736 13.6942 64.2243 13.7056 63.8788 13.677C63.0682 13.6123 62.5841 13.1496 62.5499 12.3441C62.5158 11.5386 62.9714 10.8969 63.7535 10.9121C66.2328 10.9616 68.7292 11.0016 71.1838 11.3139C72.731 11.5043 74.001 12.544 75.0888 13.6866C79.8348 18.6814 84.6073 23.6628 89.3267 28.6824C92.0186 31.5387 92.0889 35.6404 89.4672 38.7919C85.9286 43.046 82.3103 47.2334 78.7261 51.4513C77.682 52.6795 76.6379 53.9154 75.59 55.136C74.8743 55.9681 74.0295 56.1186 73.3689 55.5625C72.7082 55.0065 72.7101 54.1419 73.4201 53.3041C77.9649 47.9507 82.509 42.5985 87.0524 37.2476C87.565 36.6402 87.9295 35.9147 88.4895 35.0406H87.267C79.8481 35.0406 72.4292 35.0521 65.0084 35.0216C64.2338 35.0216 63.9282 35.2425 63.7308 35.9985C60.2263 49.4246 56.7042 62.8462 53.1643 76.2634C53.1017 76.5014 53.0713 76.749 52.9745 77.2498C53.3542 76.8423 53.563 76.629 53.7585 76.3986C58.6349 70.6669 63.5118 64.9345 68.3894 59.2015C68.5826 58.9514 68.7987 58.72 69.0348 58.5103C69.6044 58.0628 70.2081 58.0437 70.7757 58.4836C71.3851 58.9559 71.4686 59.59 71.1554 60.2679C71.0319 60.4887 70.8793 60.6917 70.7016 60.8715C65.7051 66.7518 60.7237 72.6435 55.7044 78.5028C51.6893 83.1872 45.2898 83.1663 41.2766 78.4609C30.1394 65.3915 19.0085 52.3158 7.884 39.2337C6.07294 37.1067 5.15224 34.7036 5.90779 31.9577C6.2503 30.7458 6.86901 29.6304 7.71506 28.6995C12.3775 23.6666 17.1367 18.7214 21.8637 13.7475C22.7259 12.815 23.774 12.0748 24.94 11.5752C26.106 11.0755 27.3637 10.8276 28.6315 10.8474C38.0728 10.8321 47.5128 10.8321 56.9516 10.8474C58.1666 10.8474 58.9221 11.6091 58.6943 12.5479C58.495 13.3819 57.9027 13.7018 57.0731 13.6904C55.3057 13.6771 53.5383 13.6904 51.769 13.6904C51.5909 13.7072 51.414 13.7351 51.2394 13.7742L62.8252 30.9294ZM36.0276 35.0901C36.0326 35.2229 36.0459 35.3551 36.0674 35.4862C39.8237 49.759 43.5762 64.0332 47.3249 78.3085C47.4882 78.9255 47.771 79.0893 48.3519 79.1521C49.3467 79.2568 49.6049 78.718 49.8232 77.882C52.8226 66.3843 55.8398 54.8909 58.8747 43.4021C59.5961 40.6562 60.3099 37.9103 61.0464 35.0901H36.0276ZM8.88065 35.0368L8.63195 35.311C11.1568 39.0833 14.367 42.3091 17.2488 45.7843C20.1685 49.3166 23.1793 52.7747 26.1503 56.2575L35.0006 66.6585L43.8338 77.0365C43.9421 76.8311 43.9672 76.5917 43.904 76.3681C40.3603 62.8925 36.8167 49.415 33.273 35.9356C33.0832 35.2158 32.7946 34.9987 32.0619 35.0025C24.6126 35.0292 17.1652 35.0197 9.71592 35.0197L8.88065 35.0368ZM60.2244 32.1386C56.2701 26.2869 52.4278 20.6008 48.519 14.8101L36.8211 32.1386H60.2244ZM34.2013 30.9294L45.7454 13.837C45.6425 13.7806 45.5336 13.7359 45.4208 13.7037C39.7086 13.7037 33.9963 13.6885 28.2841 13.7171C27.0243 13.7087 25.8026 14.1493 24.8366 14.9605C27.9348 20.2771 31.0329 25.5518 34.1862 30.9294H34.2013ZM88.163 32.1386C87.7985 31.0893 76.7575 19.1422 74.2763 17.0514L65.4374 32.1386H88.163ZM8.74777 31.8358L8.96037 32.1233H31.5987L22.7142 16.9714C17.9929 22.0366 13.228 26.8086 8.73257 31.8358H8.74777Z" fill="#1677BE"/>
<path d="M80.5392 3.99522C80.5392 4.81785 80.5639 5.64238 80.5392 6.47072C80.5145 7.29906 79.9355 7.87414 79.1876 7.90461C79.005 7.91304 78.8225 7.88522 78.6507 7.82272C78.4789 7.76022 78.321 7.66429 78.1862 7.54043C78.0515 7.41657 77.9424 7.26721 77.8654 7.10096C77.7883 6.93471 77.7447 6.75484 77.7372 6.57165C77.6866 4.83118 77.6866 3.0907 77.7372 1.35024C77.744 1.16697 77.787 0.986891 77.8637 0.820414C77.9404 0.653936 78.0493 0.504387 78.184 0.380409C78.3187 0.25643 78.4766 0.160475 78.6485 0.0981445C78.8205 0.0358139 79.003 0.00833073 79.1857 0.0172751C79.945 0.0439343 80.5145 0.607585 80.5392 1.44354C80.5639 2.2795 80.5373 3.14022 80.5392 3.99522Z" fill="#1677BE"/>
<path d="M19.3038 3.97243C19.3038 4.76269 19.3285 5.55484 19.3038 6.3451C19.2677 7.28388 18.6622 7.91038 17.8573 7.89705C17.0523 7.88372 16.4847 7.25913 16.4752 6.3013C16.4588 4.71952 16.4588 3.13776 16.4752 1.55598C16.4866 0.603861 17.0846 -0.0131178 17.8971 0.000211769C18.6679 0.0154456 19.2601 0.619091 19.2981 1.50456C19.3323 2.32528 19.3038 3.14981 19.3038 3.97243Z" fill="#1677BE"/>
<path d="M93.0259 19.3389C92.2058 19.3389 91.3857 19.3618 90.558 19.3389C89.7303 19.3161 89.1722 18.7562 89.1475 17.9831C89.1354 17.7991 89.1606 17.6146 89.2215 17.4406C89.2825 17.2667 89.3779 17.1069 89.5021 16.9709C89.6263 16.835 89.7766 16.7257 89.9441 16.6496C90.1115 16.5735 90.2926 16.5322 90.4764 16.5283C92.2077 16.475 93.9447 16.475 95.676 16.5283C95.8593 16.5333 96.0397 16.5752 96.2065 16.6515C96.3734 16.7279 96.5232 16.837 96.6471 16.9725C96.7711 17.108 96.8666 17.2672 96.9281 17.4404C96.9895 17.6137 97.0157 17.7976 97.0049 17.9812C96.9802 18.7429 96.4107 19.3142 95.5849 19.3351C94.7591 19.356 93.8764 19.3389 93.0259 19.3389Z" fill="#1677BE"/>
<path d="M9.8802 11.4141C9.38662 11.1303 8.98417 10.9913 8.70701 10.7247C7.56797 9.63172 6.46119 8.50823 5.36013 7.37712C4.69189 6.68969 4.66154 5.85372 5.23485 5.27103C5.80816 4.68833 6.6643 4.69977 7.34013 5.35101C8.49435 6.47261 9.66946 7.58086 10.7174 8.79767C11.0363 9.16518 11.1426 9.92118 11.0116 10.4087C10.9034 10.8066 10.2959 11.0675 9.8802 11.4141Z" fill="#1677BE"/>
<path d="M90.9359 4.74023C91.2662 5.00302 91.8167 5.22771 91.9629 5.60855C92.1281 6.037 92.1242 6.77965 91.8528 7.08433C90.6625 8.42872 89.3849 9.69313 88.0674 10.9233C87.5245 11.4336 86.8201 11.3708 86.2639 10.8585C85.7077 10.3463 85.5596 9.61506 86.0551 9.06855C87.3061 7.69369 88.6502 6.40261 89.9829 5.10774C90.1651 4.93064 90.4916 4.904 90.9359 4.74023Z" fill="#1677BE"/>
</g>
<defs>
<clipPath id="clip0_1184_1232">
<rect width="97" height="82" fill="white"/>
</clipPath>
</defs>
</svg>
