<svg width="126" height="126" viewBox="0 0 126 126" fill="none" xmlns="http://www.w3.org/2000/svg">
<circle cx="63" cy="63" r="62" stroke="#1677BE" stroke-width="2"/>
<g clip-path="url(#clip0_1184_1195)">
<path d="M70.3831 65.7749C70.794 66.0565 71.1882 66.3616 71.5638 66.6889C72.5373 67.6303 72.4992 67.5617 73.7683 67.155C74.6825 66.861 75.0313 66.3933 74.8775 65.4702C74.8523 65.2434 74.8523 65.0145 74.8775 64.7878C74.9232 63.9758 75.3604 63.5112 76.1694 63.5051C78.5522 63.4879 80.9345 63.4879 83.3163 63.5051C84.1238 63.5051 84.7195 64.0139 84.5732 64.7862C84.2685 66.4238 85.0745 67.126 86.4807 67.4398C86.7436 67.4893 87.0155 67.4382 87.2425 67.2967C87.6279 67.0148 87.9326 66.6279 88.2937 66.3111C88.9031 65.7718 89.5384 65.7627 90.1219 66.337C91.8212 68.0085 93.5057 69.6928 95.1755 71.3898C95.7468 71.9717 95.8078 72.7303 95.1389 73.1842C93.7418 74.1348 93.8759 75.2072 94.6331 76.4137C94.7903 76.6367 95.0279 76.7902 95.2958 76.8417C95.7666 76.9133 96.2557 76.8554 96.7371 76.8813C97.4989 76.9209 97.9818 77.3627 97.9895 78.1228C98.0088 80.5317 98.0088 82.939 97.9895 85.3448C97.9895 86.14 97.4654 86.7158 96.6807 86.5757C95.0338 86.271 94.3513 87.1027 94.0435 88.5057C93.9914 88.7475 94.0345 89.0001 94.1639 89.211C94.4686 89.6116 94.8693 89.9376 95.2014 90.3184C95.7255 90.9186 95.7453 91.5279 95.2014 92.0839C93.5153 93.8022 91.8131 95.5043 90.0945 97.1901C89.5354 97.74 88.926 97.711 88.3272 97.2007C88.3065 97.1863 88.288 97.1688 88.2724 97.1489C87.4298 95.7886 86.3664 95.8343 85.1202 96.5823C84.7957 96.7773 84.6067 96.9083 84.6266 97.3013C84.6471 97.7825 84.6425 98.2646 84.6128 98.7454C84.5687 99.507 84.1192 99.9762 83.3529 99.9823C80.9457 100.001 78.5385 100.001 76.1313 99.9823C75.3696 99.9823 74.9369 99.4933 74.8881 98.7271C74.8881 98.7027 74.8881 98.6768 74.8881 98.6524C74.8074 96.6539 74.8104 96.6447 72.9075 96.0019C72.7965 95.9833 72.6828 95.9883 72.5738 96.0167C72.4649 96.045 72.3631 96.096 72.2753 96.1664C71.8822 96.4817 71.5516 96.8747 71.1692 97.2053C70.5598 97.7248 69.9671 97.7324 69.4049 97.1794C67.6894 95.4916 65.9877 93.7895 64.2996 92.0733C63.7801 91.5447 63.7983 90.9323 64.2615 90.3626C64.2894 90.3208 64.3239 90.2838 64.3636 90.2529C65.8307 89.3831 65.6053 88.2406 64.8572 87.0433C64.717 86.8363 64.5017 86.6921 64.2569 86.6412C63.7831 86.5772 63.2956 86.6274 62.8141 86.6046C61.9975 86.568 61.5237 86.1278 61.5176 85.3265C61.4993 82.9441 61.4993 80.5621 61.5176 78.1807C61.5176 77.3383 62.0219 76.7777 62.8614 76.9057C64.3331 77.1327 65.0751 76.5584 65.4224 75.1661C65.5321 74.7258 65.6144 74.444 65.2411 74.1211C64.8779 73.8046 64.5429 73.457 64.2402 73.0822C63.7938 72.5368 63.7831 71.9412 64.2813 71.4355C65.9866 69.7009 67.7077 67.9816 69.4446 66.2776C69.6457 66.0643 69.9854 65.9775 70.3831 65.7749ZM66.9246 72.3068C67.0267 72.4272 67.1486 72.5841 67.2888 72.7257C68.1587 73.6062 68.2882 74.6085 67.8068 75.7251C67.5249 76.3756 67.2629 77.0321 66.9917 77.6871C66.5605 78.7321 65.7728 79.276 64.65 79.3064C64.4306 79.3064 64.2112 79.3064 63.9766 79.3064V84.0424C64.6485 84.1947 65.3021 84.2374 65.8536 84.4994C66.9978 85.0341 68.404 88.46 67.9652 89.6497C67.7534 90.2209 67.3101 90.716 67.0176 91.1639L70.3876 94.5471C71.5394 93.0451 72.9776 93.1761 74.5194 94.0399C74.6532 94.113 74.7954 94.1693 74.943 94.2074C76.5823 94.6446 77.4492 95.6546 77.3334 97.4064C77.3334 97.4414 77.3883 97.4825 77.4202 97.5252H82.1767C82.1767 97.3211 82.1767 97.152 82.1767 96.9814C82.2102 95.6591 82.7328 94.9142 83.944 94.4314C84.625 94.1602 85.2939 93.8586 85.9779 93.5966C86.9347 93.231 87.8168 93.3666 88.5984 94.0536C88.8041 94.2333 89.0021 94.4222 89.1789 94.5837L92.584 91.1989C92.4484 91.0466 92.3021 90.8805 92.1482 90.7191C91.3423 89.8721 91.2067 88.9063 91.6439 87.843C91.9212 87.1652 92.2122 86.4919 92.491 85.8125C92.9207 84.7675 93.6961 84.2221 94.8281 84.1871C95.0475 84.1871 95.2684 84.1871 95.5122 84.1871V79.3125C93.5758 79.538 92.6099 78.5082 92.1604 76.8128C92.1211 76.6587 92.0601 76.5109 91.9791 76.3741C91.1092 74.8888 91.1869 73.5376 92.5261 72.3525C92.5535 72.3281 92.5413 72.2596 92.5261 72.3297L89.1514 68.9632C87.3232 70.3798 87.2211 70.392 84.9663 69.4354C84.8286 69.3712 84.6866 69.3167 84.5412 69.2724C82.908 68.8337 82.0289 67.8329 82.1478 66.0734C82.1478 66.0369 82.096 65.9973 82.0807 65.9759H77.3319C77.2222 68.1086 76.9022 68.526 74.8942 69.28C74.4219 69.4582 73.9725 69.6989 73.5002 69.8787C72.5434 70.2412 71.6613 70.1133 70.8812 69.4217C70.6756 69.2404 70.4729 69.0561 70.3023 68.9007L66.9246 72.3068Z" fill="#1677BE"/>
<path d="M38.8898 74.8765C39.455 75.3655 40.0248 75.7905 40.5154 76.3069C40.8567 76.6603 41.172 76.7776 41.5423 76.4593C41.7403 76.2932 41.8591 76.0266 41.9993 75.7966C42.0328 75.7387 41.9993 75.6443 42.01 75.5712C42.0755 73.2862 42.1395 73.2207 44.469 73.2207C45.6086 73.2207 46.7542 73.2207 47.8878 73.2207C48.8781 73.2298 49.3107 73.6777 49.329 74.6663C49.3366 74.9954 49.3397 75.3259 49.329 75.6549C49.3153 76.0205 49.3153 76.3176 49.7861 76.4791C50.1898 76.6192 50.4732 76.6695 50.7748 76.3084C51.0314 76.0279 51.3079 75.7662 51.6021 75.5255C52.3243 74.8842 52.8895 74.8902 53.5827 75.5773C54.6289 76.6162 55.6669 77.6581 56.6968 78.7031C57.4053 79.4236 57.3992 80.0025 56.7044 80.7413C56.4789 80.9804 56.2474 81.212 56.0082 81.442C55.769 81.672 55.513 81.8868 55.7218 82.3331C55.9183 82.7551 56.127 82.9623 56.6161 82.9425C59.1573 82.8434 59.104 83.4543 59.0659 85.4529C59.0461 86.5679 59.0659 87.683 59.0659 88.8041C59.0568 89.805 58.6226 90.2421 57.6384 90.2635C57.3093 90.2635 56.9787 90.2635 56.6496 90.2635C56.2946 90.2635 55.999 90.23 55.8116 90.693C55.6242 91.1561 55.6974 91.4044 56.0188 91.7426C57.6795 93.4944 57.6703 93.5569 55.9701 95.2553C55.25 95.9713 54.5314 96.6847 53.8143 97.3956C52.8072 98.3995 52.3349 98.4055 51.3462 97.423C51.1664 97.2448 51.0125 97.0178 50.7992 96.902C50.5544 96.7498 50.2709 96.6715 49.9826 96.6766C49.5911 96.7238 49.297 96.9432 49.3458 97.4474C49.3722 97.8774 49.365 98.3088 49.3244 98.7376C49.2757 99.4993 48.8339 99.9654 48.0675 99.9776C46.4719 99.9999 44.8757 99.9999 43.2791 99.9776C42.5173 99.9669 42.0755 99.4917 42.0359 98.727C42.0161 98.3477 42.0191 97.9653 42.0359 97.586C42.0526 97.2067 42.0359 96.8883 41.5499 96.7071C41.1141 96.5425 40.8749 96.6355 40.5672 96.9279C38.8151 98.5944 38.739 98.5868 37.0524 96.9005C36.2465 96.0947 35.4329 95.2965 34.6376 94.48C33.9642 93.7899 33.9718 93.1989 34.6376 92.4997C34.8814 92.2407 35.1815 92.0244 35.375 91.738C35.542 91.5015 35.6276 91.2171 35.6188 90.9276C35.57 90.492 35.2973 90.2543 34.7839 90.2757C32.0415 90.3899 32.2807 89.6481 32.3005 87.6479C32.3112 86.5816 32.3005 85.5153 32.3005 84.4566C32.3005 83.3979 32.7347 82.9775 33.7677 82.9607C34.0968 82.9607 34.4274 82.944 34.7549 82.9607C35.1388 82.9836 35.4009 82.9272 35.567 82.49C35.733 82.0528 35.6767 81.8259 35.375 81.5029C33.6732 79.6871 33.6824 79.675 35.4238 77.9384C36.2129 77.1493 36.9884 76.3481 37.7974 75.5818C38.0579 75.3351 38.4099 75.1797 38.8898 74.8765ZM56.5993 85.4209C54.9585 85.3295 54.2774 84.9441 53.7655 83.9174C53.019 82.42 52.6991 80.9804 54.2119 79.8044C53.6269 79.1951 53.0952 78.6376 52.5147 78.0313C51.497 79.2835 50.3147 79.352 48.8933 78.7625C47.4718 78.173 46.768 77.2224 46.8868 75.7159H44.4674C44.5451 76.9924 44.1368 77.9475 42.9927 78.5249C41.4935 79.2865 40.0568 79.5668 38.8791 78.0846L37.1225 79.7694C38.3413 80.7992 38.4312 81.9752 37.8401 83.3994C37.2489 84.8237 36.2922 85.5168 34.7351 85.4011V87.7988C36.4201 87.8917 37.0829 88.2679 37.6024 89.3053C38.352 90.8042 38.6521 92.2438 37.1636 93.4182L38.8486 95.1807C39.877 93.9621 41.0578 93.8707 42.4777 94.4602C43.8976 95.0497 44.6 96.0063 44.4796 97.5068H46.9036C46.8137 96.2242 47.2326 95.2721 48.3753 94.6993C49.8714 93.9499 51.3111 93.6483 52.4888 95.1411L54.247 93.4655C53.0373 92.4327 52.9322 91.2597 53.5263 89.8339C54.1205 88.4081 55.0758 87.7013 56.5993 87.8094V85.4209Z" fill="#1677BE"/>
<path d="M54.4648 46.4604H56.0737C57.4814 46.4604 57.8379 46.8107 57.8379 48.1939V73.1746H55.4353V48.8931C54.3338 48.8931 53.281 48.8794 52.2359 48.8931C51.5701 48.9037 50.9561 48.8459 50.6484 48.1314C50.3543 47.449 50.7383 46.9844 51.1588 46.5137C54.1936 43.1076 57.2245 39.6989 60.2512 36.2877C61.1653 35.2549 61.822 35.2564 62.7422 36.2877C65.7547 39.6786 68.7683 43.0679 71.7828 46.4558C72.2155 46.9417 72.6497 47.4124 72.3343 48.1314C72.0053 48.8824 71.3456 48.8931 70.6585 48.8809C69.6712 48.8672 68.6779 48.8809 67.6114 48.8809V64.6548H65.1737C65.1631 64.4065 65.1417 64.1612 65.1402 63.916C65.1402 58.6717 65.1402 53.4264 65.1402 48.1802C65.1402 46.826 65.5028 46.4634 66.8405 46.4604H68.5164L61.499 38.562L54.4648 46.4604Z" fill="#1677BE"/>
<path d="M80.9883 40.3769C79.7405 40.3769 78.6283 40.3692 77.5162 40.3769C76.9342 40.3769 76.471 40.2032 76.2136 39.6487C75.9561 39.0942 76.1557 38.6235 76.5365 38.1955C79.6852 34.6553 82.8338 31.1151 85.9824 27.575C86.6741 26.7996 87.4191 26.8026 88.1154 27.5872C91.2691 31.1233 94.4177 34.6639 97.5613 38.2092C97.9437 38.6388 98.1341 39.1049 97.866 39.667C97.5978 40.2291 97.1316 40.383 96.5527 40.3769C95.442 40.3662 94.3314 40.3769 93.14 40.3769V58.588H90.6947V39.6213C90.6947 38.3234 91.0725 37.9457 92.3706 37.9457H94.0739L87.0657 30.0473L80.0376 37.9457H81.7638C83.0131 37.9457 83.4092 38.3356 83.4092 39.5695C83.4092 45.3236 83.4092 51.0761 83.4092 56.8271V61.0238H81.002L80.9883 40.3769Z" fill="#1677BE"/>
<path d="M42.0551 70.7738H39.5961V70.0517C39.5961 65.9723 39.5961 61.8929 39.5961 57.8135C39.5961 56.5811 39.9907 56.1972 41.2431 56.1927C41.7489 56.1927 42.2547 56.1927 42.9662 56.1927L35.9473 48.2928L28.9223 56.1927C29.7008 56.1927 30.3178 56.1805 30.9333 56.1927C31.8277 56.214 32.2893 56.6634 32.2908 57.5636C32.2969 63.8732 32.2969 70.1827 32.2908 76.4923C32.2908 76.5883 32.271 76.6857 32.2558 76.8244H29.9004V58.6254C28.7425 58.6254 27.6638 58.6132 26.5852 58.6254C25.9666 58.6345 25.4182 58.5416 25.1211 57.914C24.8011 57.2407 25.147 56.7624 25.5781 56.2856C28.6252 52.8632 31.6723 49.4363 34.7193 46.0048C35.6121 45.0009 36.2809 44.9963 37.157 45.988C40.204 49.4165 43.2511 52.8439 46.2982 56.2704C46.7217 56.7456 47.0843 57.2179 46.7735 57.8957C46.4627 58.5736 45.8853 58.6361 45.25 58.6254C44.214 58.6086 43.178 58.6254 42.0597 58.6254L42.0551 70.7738Z" fill="#1677BE"/>
<path d="M89.4764 81.7256C89.474 84.3013 88.4533 86.7716 86.6367 88.5979C84.8201 90.4242 82.3551 91.4583 79.7791 91.4748C77.191 91.4764 74.7083 90.4503 72.8767 88.6221C71.045 86.7939 70.0145 84.3133 70.0117 81.7256C70.025 79.1505 71.0557 76.685 72.8794 74.8665C74.703 73.048 77.1716 72.024 79.7471 72.0176C82.3223 72.0232 84.7907 73.0472 86.6135 74.866C88.4364 76.6848 89.4655 79.1508 89.4764 81.7256ZM87.0387 81.7439C87.0355 79.8097 86.2659 77.9555 84.8984 76.5874C83.531 75.2193 81.677 74.4486 79.7425 74.4442C77.8083 74.4478 75.9543 75.2175 74.5863 76.5847C73.2183 77.9519 72.4477 79.8054 72.4433 81.7393C72.4489 83.6728 73.2193 85.5255 74.5862 86.8932C75.9532 88.2608 77.8057 89.0322 79.7395 89.039C81.6742 89.0362 83.5291 88.2669 84.8977 86.8996C86.2664 85.5323 87.0373 83.6784 87.0418 81.7439H87.0387Z" fill="#1677BE"/>
<path d="M51.7591 86.6648C51.7406 88.2798 51.0816 89.8214 49.9269 90.9508C48.7721 92.0802 47.2162 92.705 45.601 92.6879C43.986 92.6639 42.4466 91.9998 41.3211 90.8415C40.1955 89.6833 39.5759 88.1257 39.5982 86.5109C39.6271 84.9098 40.2852 83.3843 41.4302 82.2645C42.5752 81.1448 44.1151 80.5207 45.7167 80.5274C47.3317 80.5411 48.8752 81.1951 50.0081 82.3459C51.1411 83.4967 51.7708 85.0501 51.7591 86.6648ZM45.6649 82.9601C44.7054 82.9661 43.7867 83.3489 43.107 84.026C42.4272 84.7031 42.0409 85.6202 42.0313 86.5795C42.0287 87.0613 42.1214 87.5388 42.3039 87.9846C42.4865 88.4305 42.7555 88.8358 43.0952 89.1774C43.435 89.519 43.839 89.7901 44.2839 89.9751C44.7288 90.16 45.2059 90.2552 45.6878 90.2552C46.6481 90.2501 47.5678 89.8674 48.2482 89.1899C48.9287 88.5124 49.3153 87.5944 49.3245 86.6343C49.3269 86.1526 49.234 85.6751 49.0512 85.2293C48.8685 84.7835 48.5994 84.3783 48.2594 84.0368C47.9195 83.6954 47.5154 83.4245 47.0704 83.2397C46.6254 83.0549 46.1483 82.9599 45.6665 82.9601H45.6649Z" fill="#1677BE"/>
</g>
<defs>
<clipPath id="clip0_1184_1195">
<rect width="73" height="73" fill="white" transform="translate(25 27)"/>
</clipPath>
</defs>
</svg>
