<svg width="387" height="59" viewBox="0 0 387 59" fill="none" xmlns="http://www.w3.org/2000/svg">
<path d="M363.867 14.9746C368.41 14.9746 372.398 15.8462 375.831 17.5893C379.317 19.3324 382.038 21.7886 383.992 24.9579C385.999 28.0744 387.003 31.7455 387.003 35.9713C387.003 40.197 385.999 44.0002 383.992 47.3808C381.985 50.7614 379.185 53.4289 375.593 55.3833C372.001 57.3377 367.802 58.3149 362.995 58.3149C358.558 58.3149 354.597 57.4433 351.11 55.7002C347.624 53.9571 344.877 51.5009 342.87 48.3316C340.863 45.1623 339.859 41.4647 339.859 37.239C339.859 33.0661 340.837 29.3157 342.791 25.988C344.798 22.6074 347.598 19.9399 351.19 17.9855C354.834 15.9782 359.06 14.9746 363.867 14.9746ZM363.154 16.4008C360.724 16.4008 358.69 18.2231 357.053 21.8679C355.468 25.5126 354.676 30.557 354.676 37.0013C354.676 41.7553 355.098 45.6112 355.944 48.5693C356.789 51.4745 357.898 53.5873 359.271 54.9079C360.645 56.2284 362.124 56.8887 363.708 56.8887C366.191 56.8887 368.225 55.0663 369.809 51.4216C371.394 47.7241 372.186 42.6532 372.186 36.209C372.186 31.455 371.764 27.6254 370.919 24.7202C370.073 21.815 368.964 19.7022 367.591 18.3816C366.27 17.0611 364.791 16.4008 363.154 16.4008Z" fill="#FFC979"/>
<path d="M312.777 14.9746C317.32 14.9746 321.308 15.8462 324.741 17.5893C328.227 19.3324 330.948 21.7886 332.902 24.9579C334.909 28.0744 335.913 31.7455 335.913 35.9713C335.913 40.197 334.909 44.0002 332.902 47.3808C330.895 50.7614 328.095 53.4289 324.503 55.3833C320.912 57.3377 316.712 58.3149 311.905 58.3149C307.468 58.3149 303.507 57.4433 300.021 55.7002C296.534 53.9571 293.788 51.5009 291.78 48.3316C289.773 45.1623 288.77 41.4647 288.77 37.239C288.77 33.0661 289.747 29.3157 291.701 25.988C293.708 22.6074 296.508 19.9399 300.1 17.9855C303.745 15.9782 307.97 14.9746 312.777 14.9746ZM312.064 16.4008C309.634 16.4008 307.601 18.2231 305.963 21.8679C304.378 25.5126 303.586 30.557 303.586 37.0013C303.586 41.7553 304.009 45.6112 304.854 48.5693C305.699 51.4745 306.808 53.5873 308.182 54.9079C309.555 56.2284 311.034 56.8887 312.619 56.8887C315.101 56.8887 317.135 55.0663 318.719 51.4216C320.304 47.7241 321.096 42.6532 321.096 36.209C321.096 31.455 320.674 27.6254 319.829 24.7202C318.984 21.815 317.874 19.7022 316.501 18.3816C315.18 17.0611 313.701 16.4008 312.064 16.4008Z" fill="#FFC979"/>
<path d="M261.687 14.9746C266.23 14.9746 270.218 15.8462 273.651 17.5893C277.138 19.3324 279.858 21.7886 281.812 24.9579C283.82 28.0744 284.823 31.7455 284.823 35.9713C284.823 40.197 283.82 44.0002 281.812 47.3808C279.805 50.7614 277.006 53.4289 273.414 55.3833C269.822 57.3377 265.622 58.3149 260.816 58.3149C256.379 58.3149 252.417 57.4433 248.931 55.7002C245.444 53.9571 242.698 51.5009 240.691 48.3316C238.683 45.1623 237.68 41.4647 237.68 37.239C237.68 33.0661 238.657 29.3157 240.611 25.988C242.619 22.6074 245.418 19.9399 249.01 17.9855C252.655 15.9782 256.88 14.9746 261.687 14.9746ZM260.974 16.4008C258.544 16.4008 256.511 18.2231 254.873 21.8679C253.289 25.5126 252.496 30.557 252.496 37.0013C252.496 41.7553 252.919 45.6112 253.764 48.5693C254.609 51.4745 255.718 53.5873 257.092 54.9079C258.465 56.2284 259.944 56.8887 261.529 56.8887C264.011 56.8887 266.045 55.0663 267.63 51.4216C269.214 47.7241 270.007 42.6532 270.007 36.209C270.007 31.455 269.584 27.6254 268.739 24.7202C267.894 21.815 266.784 19.7022 265.411 18.3816C264.091 17.0611 262.612 16.4008 260.974 16.4008Z" fill="#FFC979"/>
<path d="M225.699 44.6865C228.182 44.6865 230.11 45.2676 231.483 46.4296C232.857 47.5389 233.544 49.2292 233.544 51.5005C233.544 53.7719 232.857 55.4886 231.483 56.6507C230.11 57.7599 228.182 58.3145 225.699 58.3145C223.164 58.3145 221.21 57.7599 219.836 56.6507C218.516 55.4886 217.855 53.7719 217.855 51.5005C217.855 49.2292 218.516 47.5389 219.836 46.4296C221.21 45.2676 223.164 44.6865 225.699 44.6865Z" fill="#FFC979"/>
<path d="M190.613 14.9746C195.156 14.9746 199.144 15.8462 202.577 17.5893C206.063 19.3324 208.784 21.7886 210.738 24.9579C212.745 28.0744 213.749 31.7455 213.749 35.9713C213.749 40.197 212.745 44.0002 210.738 47.3808C208.731 50.7614 205.931 53.4289 202.339 55.3833C198.748 57.3377 194.548 58.3149 189.741 58.3149C185.304 58.3149 181.343 57.4433 177.857 55.7002C174.37 53.9571 171.624 51.5009 169.616 48.3316C167.609 45.1623 166.605 41.4647 166.605 37.239C166.605 33.0661 167.583 29.3157 169.537 25.988C171.544 22.6074 174.344 19.9399 177.936 17.9855C181.58 15.9782 185.806 14.9746 190.613 14.9746ZM189.9 16.4008C187.47 16.4008 185.436 18.2231 183.799 21.8679C182.214 25.5126 181.422 30.557 181.422 37.0013C181.422 41.7553 181.845 45.6112 182.69 48.5693C183.535 51.4745 184.644 53.5873 186.017 54.9079C187.391 56.2284 188.87 56.8887 190.455 56.8887C192.937 56.8887 194.971 55.0663 196.555 51.4216C198.14 47.7241 198.932 42.6532 198.932 36.209C198.932 31.455 198.51 27.6254 197.665 24.7202C196.82 21.815 195.71 19.7022 194.337 18.3816C193.016 17.0611 191.537 16.4008 189.9 16.4008Z" fill="#FFC979"/>
<path d="M139.523 14.9746C144.066 14.9746 148.054 15.8462 151.487 17.5893C154.973 19.3324 157.694 21.7886 159.648 24.9579C161.655 28.0744 162.659 31.7455 162.659 35.9713C162.659 40.197 161.655 44.0002 159.648 47.3808C157.641 50.7614 154.841 53.4289 151.25 55.3833C147.658 57.3377 143.458 58.3149 138.652 58.3149C134.215 58.3149 130.253 57.4433 126.767 55.7002C123.28 53.9571 120.534 51.5009 118.526 48.3316C116.519 45.1623 115.516 41.4647 115.516 37.239C115.516 33.0661 116.493 29.3157 118.447 25.988C120.454 22.6074 123.254 19.9399 126.846 17.9855C130.491 15.9782 134.716 14.9746 139.523 14.9746ZM138.81 16.4008C136.38 16.4008 134.347 18.2231 132.709 21.8679C131.124 25.5126 130.332 30.557 130.332 37.0013C130.332 41.7553 130.755 45.6112 131.6 48.5693C132.445 51.4745 133.554 53.5873 134.928 54.9079C136.301 56.2284 137.78 56.8887 139.365 56.8887C141.847 56.8887 143.881 55.0663 145.466 51.4216C147.05 47.7241 147.843 42.6532 147.843 36.209C147.843 31.455 147.42 27.6254 146.575 24.7202C145.73 21.815 144.62 19.7022 143.247 18.3816C141.927 17.0611 140.447 16.4008 138.81 16.4008Z" fill="#FFC979"/>
<path d="M88.4333 14.9746C92.976 14.9746 96.964 15.8462 100.397 17.5893C103.884 19.3324 106.604 21.7886 108.558 24.9579C110.566 28.0744 111.569 31.7455 111.569 35.9713C111.569 40.197 110.566 44.0002 108.558 47.3808C106.551 50.7614 103.752 53.4289 100.16 55.3833C96.5678 57.3377 92.3685 58.3149 87.5617 58.3149C83.1247 58.3149 79.1631 57.4433 75.6768 55.7002C72.1906 53.9571 69.4438 51.5009 67.4366 48.3316C65.4294 45.1623 64.4258 41.4647 64.4258 37.239C64.4258 33.0661 65.403 29.3157 67.3574 25.988C69.3646 22.6074 72.1642 19.9399 75.7561 17.9855C79.4008 15.9782 83.6265 14.9746 88.4333 14.9746ZM87.7202 16.4008C85.2904 16.4008 83.2567 18.2231 81.6193 21.8679C80.0346 25.5126 79.2423 30.557 79.2423 37.0013C79.2423 41.7553 79.6649 45.6112 80.51 48.5693C81.3552 51.4745 82.4644 53.5873 83.8378 54.9079C85.2112 56.2284 86.6902 56.8887 88.2748 56.8887C90.7574 56.8887 92.7911 55.0663 94.3757 51.4216C95.9604 47.7241 96.7527 42.6532 96.7527 36.209C96.7527 31.455 96.3301 27.6254 95.485 24.7202C94.6398 21.815 93.5306 19.7022 92.1572 18.3816C90.8367 17.0611 89.3577 16.4008 87.7202 16.4008Z" fill="#FFC979"/>
<path d="M52.4456 44.6865C54.9282 44.6865 56.8562 45.2676 58.2296 46.4296C59.6029 47.5389 60.2896 49.2292 60.2896 51.5005C60.2896 53.7719 59.6029 55.4886 58.2296 56.6507C56.8562 57.7599 54.9282 58.3145 52.4456 58.3145C49.9102 58.3145 47.9557 57.7599 46.5824 56.6507C45.2618 55.4886 44.6016 53.7719 44.6016 51.5005C44.6016 49.2292 45.2618 47.5389 46.5824 46.4296C47.9557 45.2676 49.9102 44.6865 52.4456 44.6865Z" fill="#FFC979"/>
<path d="M20.9174 0C24.4037 0 27.4145 0.501808 29.9499 1.50542C32.5382 2.45621 34.5454 3.77676 35.9716 5.46705C37.3978 7.15735 38.1109 9.08535 38.1109 11.251C38.1109 13.8393 37.0545 16.0578 34.9416 17.9066C32.8816 19.7025 29.8971 21.4456 25.9883 23.1359L25.3545 22.0267C25.8298 21.0759 26.1732 19.9402 26.3845 18.6197C26.6486 17.2991 26.8071 16.005 26.8599 14.7373C26.9655 13.4696 27.0183 12.4395 27.0183 11.6472C27.0183 8.37225 26.4109 5.86322 25.196 4.1201C24.0339 2.32416 22.4493 1.42619 20.442 1.42619C18.9102 1.42619 17.7745 1.928 17.035 2.93161C16.2955 3.93523 15.9258 5.20295 15.9258 6.73478C15.9258 8.84765 16.5332 10.9077 17.7481 12.9149C18.963 14.9222 20.5213 16.8766 22.4228 18.7781C24.3244 20.6797 26.3317 22.6077 28.4445 24.5621C30.5574 26.4637 32.5646 28.4181 34.4662 30.4253C36.3678 32.4326 37.926 34.519 39.1409 36.6847C40.3558 38.7976 40.9633 41.0689 40.9633 43.4987C40.9633 46.3511 40.0389 48.8866 38.1901 51.1051C36.3942 53.3236 33.9116 55.0931 30.7423 56.4137C27.6258 57.6814 24.0339 58.3152 19.9666 58.3152C16.4276 58.3152 13.1262 57.8134 10.0625 56.8098C7.05171 55.7534 4.62191 54.1951 2.77314 52.1351C0.924381 50.075 0 47.566 0 44.608C0 42.1782 0.60745 40.0653 1.82235 38.2694C3.03725 36.4206 4.67473 34.836 6.73478 33.5154C8.84765 32.1421 11.1982 30.9536 13.7865 29.9499L14.4203 31.0592C13.3639 32.6967 12.6508 34.5983 12.2811 36.764C11.9113 38.9296 11.7264 41.0161 11.7264 43.0233C11.7264 45.5588 11.9905 47.8829 12.5188 49.9958C13.047 52.1087 13.9185 53.799 15.1334 55.0667C16.4012 56.2816 18.1443 56.8891 20.3628 56.8891C22.7926 56.8891 24.5093 56.176 25.5129 54.7498C26.5694 53.2708 27.0976 51.5541 27.0976 49.5997C27.0976 47.2227 26.4901 45.0306 25.2752 43.0233C24.1131 41.0161 22.6077 39.1145 20.759 37.3186C18.9102 35.4698 16.9294 33.6475 14.8165 31.8515C12.7565 30.0556 10.8021 28.2332 8.95329 26.3845C7.10453 24.4829 5.5727 22.4757 4.3578 20.3628C3.19572 18.1971 2.61468 15.8201 2.61468 13.2319C2.61468 10.1154 3.48624 7.57993 5.22936 5.62552C6.97248 3.67112 9.24381 2.24493 12.0434 1.34696C14.8429 0.448986 17.8009 0 20.9174 0Z" fill="#FFC979"/>
</svg>
