<svg width="15" height="18" viewBox="0 0 15 18" fill="none" xmlns="http://www.w3.org/2000/svg">
<path d="M5.96273 1.497C5.96273 1.34068 6.01449 1.20241 6.11801 1.08217L6.89441 0.180362C6.99793 0.0601208 7.11698 1.21819e-06 7.25155 1.22996e-06C7.38613 1.24172e-06 7.50518 0.0601209 7.6087 0.180362L14.8447 8.58517C14.9482 8.70541 15 8.84369 15 9C15 9.15631 14.9482 9.29459 14.8447 9.41483L7.60869 17.8196C7.50517 17.9399 7.38613 18 7.25155 18C7.11698 18 6.99793 17.9399 6.89441 17.8196L6.11801 16.9178C6.01449 16.7976 5.96273 16.6593 5.96273 16.503C5.96273 16.3467 6.01449 16.2084 6.11801 16.0882L12.2205 9L6.11801 1.91183C6.01449 1.79159 5.96273 1.65331 5.96273 1.497ZM-4.6461e-07 1.49699C-4.50945e-07 1.34068 0.0517593 1.20241 0.155279 1.08217L0.931677 0.180361C1.0352 0.0601203 1.15424 6.96914e-07 1.28882 7.08679e-07C1.4234 7.20444e-07 1.54244 0.0601204 1.64596 0.180362L8.88199 8.58517C8.98551 8.70541 9.03727 8.84369 9.03727 9C9.03727 9.15631 8.98551 9.29459 8.88199 9.41483L1.64596 17.8196C1.54244 17.9399 1.42339 18 1.28882 18C1.15424 18 1.03519 17.9399 0.931675 17.8196L0.155277 16.9178C0.0517579 16.7976 -1.79014e-06 16.6593 -1.77648e-06 16.503C-1.76281e-06 16.3467 0.051758 16.2084 0.155277 16.0882L6.25776 9L0.155279 1.91183C0.0517592 1.79158 -4.78276e-07 1.65331 -4.6461e-07 1.49699Z" fill="white"/>
</svg>
