<svg width="14" height="12" viewBox="0 0 14 12" fill="none" xmlns="http://www.w3.org/2000/svg">
<path d="M12.7102 5.29087L7.71019 0.290873C7.61508 0.199832 7.50294 0.128467 7.38019 0.0808729C7.13672 -0.0191451 6.86365 -0.0191451 6.62019 0.0808729C6.49743 0.128467 6.38529 0.199832 6.29019 0.290873L1.29019 5.29087C1.19695 5.38411 1.12299 5.4948 1.07253 5.61662C1.02207 5.73845 0.996094 5.86901 0.996094 6.00087C0.996094 6.26717 1.10188 6.52257 1.29019 6.71087C1.47849 6.89918 1.73388 7.00496 2.00019 7.00496C2.26649 7.00496 2.52188 6.89918 2.71019 6.71087L6.00019 3.41087V11.0009C6.00019 11.2661 6.10554 11.5204 6.29308 11.708C6.48062 11.8955 6.73497 12.0009 7.00019 12.0009C7.2654 12.0009 7.51976 11.8955 7.70729 11.708C7.89483 11.5204 8.00019 11.2661 8.00019 11.0009V3.41087L11.2902 6.71087C11.3831 6.8046 11.4937 6.879 11.6156 6.92976C11.7375 6.98053 11.8682 7.00667 12.0002 7.00667C12.1322 7.00667 12.2629 6.98053 12.3848 6.92976C12.5066 6.879 12.6172 6.8046 12.7102 6.71087C12.8039 6.61791 12.8783 6.50731 12.9291 6.38545C12.9798 6.26359 13.006 6.13288 13.006 6.00087C13.006 5.86886 12.9798 5.73816 12.9291 5.6163C12.8783 5.49444 12.8039 5.38384 12.7102 5.29087Z" fill="white"/>
</svg>
