<svg width="24" height="24" viewBox="0 0 24 24" fill="none" xmlns="http://www.w3.org/2000/svg">
<path d="M20.75 14C20.75 13.5858 20.4142 13.25 20 13.25C19.5858 13.25 19.25 13.5858 19.25 14H20.75ZM4.75 14C4.75 13.5858 4.41421 13.25 4 13.25C3.58579 13.25 3.25 13.5858 3.25 14H4.75ZM12 15L11.4697 15.5303C11.7626 15.8232 12.2374 15.8232 12.5303 15.5303L12 15ZM12.75 3C12.75 2.58579 12.4142 2.25 12 2.25C11.5858 2.25 11.25 2.58579 11.25 3L12.75 3ZM8.53033 10.4697C8.23744 10.1768 7.76256 10.1768 7.46967 10.4697C7.17678 10.7626 7.17678 11.2374 7.46967 11.5303L8.53033 10.4697ZM16.5303 11.5303C16.8232 11.2374 16.8232 10.7626 16.5303 10.4697C16.2374 10.1768 15.7626 10.1768 15.4697 10.4697L16.5303 11.5303ZM19.25 14V18H20.75V14H19.25ZM18 19.25H6V20.75H18V19.25ZM4.75 18V14H3.25V18H4.75ZM6 19.25C5.30964 19.25 4.75 18.6904 4.75 18H3.25C3.25 19.5188 4.48122 20.75 6 20.75V19.25ZM19.25 18C19.25 18.6904 18.6904 19.25 18 19.25V20.75C19.5188 20.75 20.75 19.5188 20.75 18H19.25ZM12.75 15L12.75 3L11.25 3L11.25 15L12.75 15ZM7.46967 11.5303L11.4697 15.5303L12.5303 14.4697L8.53033 10.4697L7.46967 11.5303ZM12.5303 15.5303L16.5303 11.5303L15.4697 10.4697L11.4697 14.4697L12.5303 15.5303Z" fill="white"/>
</svg>
