<svg width="21" height="21" viewBox="0 0 21 21" fill="none" xmlns="http://www.w3.org/2000/svg">
<g clip-path="url(#clip0_1128_1190)">
<path d="M19.051 0.394531H2.00373C1.61217 0.394531 1.23664 0.550079 0.959768 0.826956C0.682892 1.10383 0.527344 1.47936 0.527344 1.87092V18.9181C0.527344 19.3097 0.682892 19.6852 0.959768 19.9621C1.23664 20.239 1.61217 20.3945 2.00373 20.3945H19.051C19.4425 20.3945 19.818 20.239 20.0949 19.9621C20.3718 19.6852 20.5273 19.3097 20.5273 18.9181V1.87092C20.5273 1.47936 20.3718 1.10383 20.0949 0.826956C19.818 0.550079 19.4425 0.394531 19.051 0.394531ZM6.48845 17.432H3.48151V7.88064H6.48845V17.432ZM4.9829 6.55703C4.64181 6.55511 4.30894 6.45219 4.02629 6.26127C3.74364 6.07035 3.52388 5.79997 3.39474 5.48427C3.26561 5.16857 3.23288 4.82169 3.3007 4.48741C3.36852 4.15313 3.53385 3.84643 3.77581 3.60602C4.01777 3.3656 4.32552 3.20225 4.66023 3.13658C4.99494 3.07091 5.3416 3.10586 5.65647 3.23702C5.97134 3.36818 6.24029 3.58967 6.4294 3.87354C6.6185 4.15741 6.71928 4.49094 6.71901 4.83203C6.72223 5.06039 6.67944 5.28706 6.59319 5.49853C6.50694 5.71001 6.37899 5.90195 6.21699 6.06292C6.05498 6.22389 5.86222 6.3506 5.6502 6.43549C5.43818 6.52038 5.21124 6.56172 4.9829 6.55703ZM17.5718 17.4404H14.5662V12.2223C14.5662 10.6834 13.9121 10.2084 13.0676 10.2084C12.176 10.2084 11.301 10.8806 11.301 12.2612V17.4404H8.29401V7.88759H11.1857V9.2112H11.2246C11.5148 8.6237 12.5315 7.61953 14.0829 7.61953C15.7607 7.61953 17.5732 8.61537 17.5732 11.532L17.5718 17.4404Z" fill="#0A66C2"/>
</g>
<defs>
<clipPath id="clip0_1128_1190">
<rect width="20" height="20" fill="white" transform="translate(0.527344 0.394531)"/>
</clipPath>
</defs>
</svg>
