<svg width="78" height="78" viewBox="0 0 78 78" fill="none" xmlns="http://www.w3.org/2000/svg">
<path d="M35.9 53.7256L50 40.7946C50.1861 40.6323 50.3352 40.432 50.4374 40.2073C50.5396 39.9825 50.5925 39.7385 50.5925 39.4916C50.5925 39.2447 50.5396 39.0006 50.4374 38.7759C50.3352 38.5511 50.1861 38.3509 50 38.1886C49.979 38.1706 49.948 38.1627 49.926 38.1447L35.8979 25.2446C35.5026 24.8969 34.9941 24.7051 34.4675 24.7051C33.941 24.7051 33.4324 24.8969 33.037 25.2446C33.0334 25.2538 33.0286 25.2626 33.0229 25.2706C32.8321 25.4331 32.6783 25.6347 32.572 25.8617C32.4657 26.0887 32.4095 26.336 32.407 26.5867V52.3866C32.4109 52.6415 32.4701 52.8925 32.5802 53.1224C32.6903 53.3524 32.8489 53.5558 33.045 53.7186L33.037 53.7256C33.432 54.0749 33.9412 54.2677 34.4685 54.2677C34.9958 54.2677 35.505 54.0749 35.9 53.7256Z" fill="white"/>
<path d="M39 76.5C59.7107 76.5 76.5 59.7107 76.5 39C76.5 18.2893 59.7107 1.5 39 1.5C18.2893 1.5 1.5 18.2893 1.5 39C1.5 59.7107 18.2893 76.5 39 76.5Z" stroke="white" stroke-width="3" stroke-linejoin="round"/>
</svg>
