<svg width="16" height="15" viewBox="0 0 16 15" fill="none" xmlns="http://www.w3.org/2000/svg">
<path d="M8.02145 9.39645C7.82618 9.59171 7.82618 9.90829 8.02145 10.1036C8.21671 10.2988 8.53329 10.2988 8.72855 10.1036L8.02145 9.39645ZM11.5 6.625L11.8536 6.97855C12.0488 6.78329 12.0488 6.46671 11.8536 6.27145L11.5 6.625ZM8.72855 3.14645C8.53329 2.95118 8.21671 2.95118 8.02145 3.14645C7.82618 3.34171 7.82618 3.65829 8.02145 3.85355L8.72855 3.14645ZM8.72855 10.1036L11.8536 6.97855L11.1464 6.27145L8.02145 9.39645L8.72855 10.1036ZM11.8536 6.27145L8.72855 3.14645L8.02145 3.85355L11.1464 6.97855L11.8536 6.27145ZM14.75 6.625C14.75 9.45546 12.4555 11.75 9.625 11.75V12.75C13.0077 12.75 15.75 10.0077 15.75 6.625H14.75ZM9.625 11.75C6.79454 11.75 4.5 9.45546 4.5 6.625H3.5C3.5 10.0077 6.24226 12.75 9.625 12.75V11.75ZM4.5 6.625C4.5 3.79454 6.79454 1.5 9.625 1.5V0.5C6.24226 0.5 3.5 3.24226 3.5 6.625H4.5ZM9.625 1.5C12.4555 1.5 14.75 3.79454 14.75 6.625H15.75C15.75 3.24226 13.0077 0.5 9.625 0.5V1.5Z" fill="#1677BE"/>
</svg>
