<svg width="13" height="13" viewBox="0 0 13 13" fill="none" xmlns="http://www.w3.org/2000/svg">
<path d="M5.02145 9.39645C4.82618 9.59171 4.82618 9.90829 5.02145 10.1036C5.21671 10.2988 5.53329 10.2988 5.72855 10.1036L5.02145 9.39645ZM8.5 6.625L8.85355 6.97855C9.04882 6.78329 9.04882 6.46671 8.85355 6.27145L8.5 6.625ZM5.72855 3.14645C5.53329 2.95118 5.21671 2.95118 5.02145 3.14645C4.82619 3.34171 4.82619 3.65829 5.02145 3.85355L5.72855 3.14645ZM5.72855 10.1036L8.85355 6.97855L8.14645 6.27145L5.02145 9.39645L5.72855 10.1036ZM8.85355 6.27145L5.72855 3.14645L5.02145 3.85355L8.14645 6.97855L8.85355 6.27145ZM11.75 6.625C11.75 9.45546 9.45546 11.75 6.625 11.75V12.75C10.0077 12.75 12.75 10.0077 12.75 6.625H11.75ZM6.625 11.75C3.79454 11.75 1.5 9.45546 1.5 6.625H0.5C0.5 10.0077 3.24226 12.75 6.625 12.75V11.75ZM1.5 6.625C1.5 3.79454 3.79454 1.5 6.625 1.5V0.5C3.24226 0.5 0.5 3.24226 0.5 6.625H1.5ZM6.625 1.5C9.45546 1.5 11.75 3.79454 11.75 6.625H12.75C12.75 3.24226 10.0077 0.5 6.625 0.5V1.5Z" fill="white"/>
</svg>
