<svg width="82" height="82" viewBox="0 0 82 82" fill="none" xmlns="http://www.w3.org/2000/svg">
<g clip-path="url(#clip0_1184_1241)">
<path d="M72.4281 48.6691C73.6971 47.9096 75.1747 47.5726 76.6477 47.7067C77.6548 47.7869 78.63 48.097 79.4982 48.6133C80.3665 49.1296 81.1046 49.8382 81.6557 50.6845C82.2056 51.4922 82.1113 51.976 81.2855 52.5435C73.1934 58.1043 65.1528 63.7506 56.9735 69.1709C54.021 71.1276 50.4955 71.6915 46.986 71.2112C42.6258 70.6153 38.3065 69.7259 33.9712 68.9574C32.9034 68.767 31.8232 68.5375 30.7465 68.3543C29.6304 68.134 28.4724 68.3553 27.5164 68.9716C25.4769 70.2827 23.4232 71.583 21.3641 72.8496C20.88 73.1467 20.8302 73.4349 20.9921 73.9329C21.6506 76.016 22.2771 78.1098 22.9053 80.2036C23.2861 81.4755 22.9053 81.9967 21.5883 81.9985C16.1425 81.9985 10.6967 81.9985 5.25095 81.9985C4.18315 81.9985 3.87349 81.7459 3.74358 80.6874C3.06374 75.2013 2.39399 69.7146 1.73432 64.2273C1.17195 59.5891 0.607197 54.9527 0.0400764 50.3181C-0.120094 49.0302 0.200247 48.6103 1.46381 48.6086C4.984 48.6086 8.50598 48.6299 12.0279 48.5926C12.9676 48.5926 13.4232 48.9608 13.6581 49.8378C13.9962 51.1168 14.4251 52.3727 14.8345 53.7016C16.1514 53.3956 17.148 52.6449 18.1429 51.864C19.7446 50.6187 21.2769 49.1956 23.0601 48.2777C27.6534 45.91 32.4781 45.741 37.1764 47.9095C39.9741 49.1992 42.7931 49.6368 45.831 49.7346C48.9916 49.8378 51.8445 49.345 54.4339 47.4985C54.9303 47.1766 55.4503 46.8923 55.9893 46.6482C58.7086 45.2802 61.339 45.4546 63.9035 47.0841C64.1704 47.262 64.6705 47.39 64.8823 47.262C67.2902 45.7321 70.4331 46.5504 72.1594 48.4645C72.2438 48.5393 72.3336 48.6076 72.4281 48.6691ZM58.6357 56.6528C58.3385 54.47 56.5908 52.5613 54.4001 52.0152C53.7669 51.8695 53.1188 51.799 52.4691 51.8053C50.0719 51.7821 47.664 51.7234 45.2775 51.8053C42.2236 51.9209 39.4206 51.236 36.6212 49.9748C31.2306 47.5448 26.0482 48.1959 21.373 51.8586C19.5185 53.312 17.9186 55.1051 15.4698 55.79L20.1308 71.0654C20.4867 70.8643 20.7376 70.7291 20.9814 70.5762C22.8074 69.4258 24.6321 68.2725 26.4557 67.1162C27.7913 66.2577 29.4037 65.9397 30.9654 66.2268C33.0067 66.5648 35.0319 66.9863 37.0697 67.3492C40.4154 67.947 43.7487 68.6496 47.1159 69.0783C50.2961 69.4822 53.4462 68.9663 56.1424 67.1749C62.0562 63.2507 67.8668 59.1699 73.7184 55.1549C75.5918 53.8682 77.4652 52.5779 79.3386 51.284C77.9825 49.7151 75.749 49.3272 73.8038 50.3626C69.6785 52.5524 65.5728 54.776 61.4653 57.0014C61.2411 57.1145 61.0644 57.3037 60.967 57.5351C60.6111 58.7945 60.5114 58.8515 59.2141 58.8088C54.457 58.6576 49.7017 58.1079 44.9429 58.7483C44.231 58.8443 43.6099 58.7323 43.464 57.8855C43.343 57.19 43.8021 56.6901 44.7311 56.6403C47.1515 56.514 49.5736 56.3824 51.9957 56.3788C54.1794 56.393 56.3648 56.5567 58.6357 56.6528ZM20.4938 79.846C20.5028 79.7591 20.5028 79.6714 20.4938 79.5845C17.6191 70.154 14.7479 60.7258 11.8802 51.3C11.7147 50.7504 11.4015 50.7379 10.9637 50.7397C8.27282 50.7397 5.58019 50.7397 2.88933 50.7397C2.67589 50.7517 2.46323 50.7748 2.25221 50.8091C3.43866 60.5147 4.61977 70.1931 5.79554 79.8442L20.4938 79.846ZM70.3245 49.8111C69.3849 48.7189 67.7903 48.2332 66.6193 48.8256C64.1491 50.0708 61.7287 51.4228 59.287 52.7285L60.5826 55.0642L70.3245 49.8111ZM62.2377 48.7224C60.0363 47.1054 57.3187 47.9788 54.8735 49.8111C55.6672 50.2007 56.4752 50.6205 57.2992 50.9887C57.5288 51.0785 57.7846 51.074 58.011 50.9763C59.4241 50.2487 60.8158 49.4856 62.2342 48.7224H62.2377Z" fill="#1677BE"/>
<path d="M55.0978 38.1022C55.0978 38.8707 55.1103 39.5449 55.0978 40.2191C55.0729 41.2544 54.7793 41.5728 53.7756 41.5746C45.2521 41.5817 36.7293 41.5817 28.2071 41.5746C27.2425 41.5746 26.9346 41.2509 26.9132 40.2938C26.8972 39.6178 26.9132 38.9419 26.9132 38.1591C26.5181 38.1378 26.1782 38.104 25.8454 38.104C20.4601 38.104 15.0743 38.104 9.68783 38.104C8.24808 38.104 7.95622 37.8176 7.958 36.4158C7.958 34.1958 7.91528 31.9775 7.97579 29.7592C8.08791 25.7905 11.4319 22.3608 15.2867 22.158C15.5774 22.1272 15.8713 22.1692 16.1419 22.28C16.4124 22.3909 16.6512 22.5671 16.8367 22.793C18.9296 25.1234 22.0975 25.1518 24.2295 22.8375C24.7883 22.2327 25.3827 22.0228 26.1195 22.2184C27.109 22.4835 28.0771 22.8162 29.1645 23.1506C30.4785 21.7115 32.2149 20.7256 34.1244 20.3346C35.2955 20.0945 36.196 20.1816 37.1143 21.1867C39.3086 23.59 43.1136 23.4993 45.3186 21.0639C46.0429 20.2617 46.7654 20.1033 47.746 20.3008C49.6764 20.6698 51.4388 21.6444 52.7772 23.083C54.0817 22.7575 55.2687 22.4372 56.4611 22.1704C57.059 22.0352 57.5093 22.3003 57.9257 22.7717C60.0133 25.1341 63.2452 25.1536 65.3861 22.8002C65.8898 22.2451 66.4219 22.101 67.1159 22.1918C70.9138 22.6899 73.9196 25.9755 74.0139 29.8232C74.0691 32.07 74.0317 34.3203 74.03 36.567C74.03 37.7571 73.6954 38.1004 72.503 38.1022C67.4998 38.1093 62.4983 38.1093 57.4986 38.1022H55.0978ZM52.916 39.3919C52.916 35.7078 53.0103 32.0789 52.8857 28.457C52.7878 25.5895 50.5615 23.179 47.7603 22.4817C47.2602 22.3572 46.9594 22.4657 46.5982 22.809C43.4392 25.8011 38.7676 25.7922 35.6479 22.7824C35.4943 22.6102 35.2935 22.4869 35.0705 22.4277C34.8474 22.3686 34.6119 22.3762 34.3932 22.4497C31.2699 23.1986 29.1076 25.7762 29.0542 29.0085C29.0008 32.319 29.0382 35.6295 29.0399 38.9401C29.0495 39.0917 29.0685 39.2426 29.0969 39.3919H52.916ZM27.8582 24.9829C26.9684 24.8228 26.3028 23.8853 25.3667 24.7267C22.4801 27.3417 18.5559 27.3132 15.6408 24.7C15.5025 24.5903 15.3433 24.51 15.1728 24.4641C15.0023 24.4182 14.8242 24.4077 14.6495 24.4332C13.3659 24.7093 12.2142 25.4131 11.3832 26.4293C10.5522 27.4454 10.0912 28.7137 10.0758 30.026C10.0473 31.8049 10.0758 33.5838 10.0758 35.3503C10.0887 35.5298 10.1149 35.7082 10.1541 35.8839H26.8189C27.2389 32.2479 26.2067 28.5673 27.8582 24.9775V24.9829ZM55.1868 35.9017H71.8819V35.039C71.8819 33.2369 71.9388 31.4296 71.8499 29.6311C71.7306 27.2705 69.967 25.1696 67.7157 24.4937C67.1818 24.3353 66.8259 24.4012 66.3809 24.8032C65.135 25.9641 63.5062 26.6276 61.8034 26.6679C60.1006 26.7083 58.4422 26.1226 57.1427 25.022C56.1229 24.177 55.2829 24.2126 54.1902 25.1394C55.7955 28.6029 54.7561 32.3155 55.1868 35.9017Z" fill="#1677BE"/>
<path d="M49.1975 9.84336C49.0765 11.0459 49.0854 12.2787 48.8113 13.4438C47.9001 17.3307 44.2447 19.9493 40.3988 19.5828C36.2397 19.1843 33.1556 16.1015 32.9634 12.0101C32.8779 10.1849 32.7996 8.30995 33.1057 6.52572C33.7963 2.51253 37.5549 -0.289236 41.5022 0.0238494C45.8411 0.368955 48.9395 3.68305 49.0925 8.14807C49.1103 8.70843 49.0925 9.27055 49.0925 9.83268L49.1975 9.84336ZM34.9602 9.77932H35.0847C35.0847 10.5176 35.0402 11.2594 35.0847 11.994C35.1863 13.4707 35.8376 14.8557 36.9102 15.8761C37.9828 16.8965 39.3989 17.4783 40.8793 17.5068C43.8656 17.594 46.5583 15.3384 46.8519 12.3231C47.0097 10.6774 47.0127 9.02053 46.8608 7.37425C46.5974 4.50667 44.2643 2.37022 41.3759 2.14963C40.0069 2.05525 38.648 2.44305 37.5352 3.24568C36.4224 4.04831 35.6259 5.2151 35.2841 6.54351C35.026 7.57882 35.0545 8.69597 34.9513 9.77932H34.9602Z" fill="#1677BE"/>
<path d="M13.1523 13.1709C13.2342 12.1427 13.2022 11.0896 13.4211 10.0916C14.1846 6.5961 17.4769 4.16078 20.8957 4.47209C24.6187 4.81186 27.436 7.61719 27.6121 11.2853C27.7153 12.8478 27.6712 14.4166 27.4805 15.9709C26.9661 19.5714 23.6079 22.197 20.0397 21.9462C16.3023 21.6883 13.4104 18.794 13.2467 15.1277C13.2182 14.4784 13.2467 13.8273 13.2467 13.1709H13.1523ZM15.3627 13.2118C15.3627 13.8024 15.3396 14.3948 15.3627 14.9907C15.4819 17.6057 17.4983 19.6336 20.1322 19.8257C22.597 20.0036 24.9676 18.239 25.3502 15.7183C25.5545 14.225 25.5892 12.7134 25.4534 11.2123C25.3478 9.92799 24.7541 8.73287 23.7942 7.87263C22.8342 7.01239 21.5811 6.5524 20.2924 6.5872C18.9912 6.61885 17.7521 7.15001 16.8322 8.07048C15.9123 8.99095 15.3823 10.2301 15.352 11.5307C15.3449 12.0858 15.3627 12.6497 15.3627 13.2118Z" fill="#1677BE"/>
<path d="M68.816 13.1873C68.7288 14.2439 68.7572 15.3219 68.5312 16.3537C67.7642 19.8172 64.5359 22.2098 61.1207 21.9448C57.4226 21.6566 54.552 18.8424 54.358 15.185C54.2476 13.5929 54.2917 11.9939 54.4897 10.4104C55.0004 6.85261 58.348 4.2412 61.8735 4.4689C65.6268 4.70905 68.5401 7.58375 68.7163 11.2287C68.7466 11.8762 68.7163 12.5291 68.7163 13.1855L68.816 13.1873ZM66.659 13.2495H66.5914C66.5914 12.6287 66.6181 12.0043 66.5914 11.387C66.4597 8.78271 64.4273 6.76189 61.7863 6.584C59.3571 6.42568 57.0008 8.17434 56.6253 10.6488C56.4129 12.1712 56.3765 13.713 56.5167 15.2437C56.7232 17.8017 58.8178 19.6909 61.3556 19.8208C62.5349 19.8682 63.6935 19.5008 64.6297 18.7825C65.5658 18.0642 66.2204 17.0404 66.4793 15.8894C66.6519 15.0391 66.6021 14.1265 66.659 13.2495Z" fill="#1677BE"/>
<path d="M12.5567 78.8066C12.1135 78.8089 11.6743 78.7234 11.2645 78.5548C10.8547 78.3863 10.4824 78.1382 10.1692 77.8248C9.85602 77.5114 9.60817 77.139 9.44 76.7292C9.27184 76.3194 9.18669 75.8803 9.18952 75.4373C9.20191 74.5584 9.55635 73.7189 10.1777 73.0969C10.799 72.4749 11.6383 72.1193 12.5175 72.1055C13.4122 72.1124 14.2682 72.4708 14.9008 73.1031C15.5334 73.7355 15.8919 74.5911 15.8989 75.4854C15.8837 76.3648 15.526 77.2037 14.902 77.8238C14.2779 78.444 13.4366 78.7965 12.5567 78.8066ZM13.7562 75.4267C13.7368 75.1141 13.6015 74.82 13.3767 74.6019C13.1519 74.3837 12.8538 74.2573 12.5407 74.2472C12.2127 74.2547 11.901 74.3912 11.6731 74.627C11.4452 74.8627 11.3195 75.1789 11.3233 75.5067C11.337 75.8191 11.4699 76.1143 11.6946 76.3317C11.9194 76.5491 12.219 76.6721 12.5317 76.6754C12.6948 76.675 12.8562 76.6421 13.0064 76.5787C13.1566 76.5152 13.2927 76.4225 13.4067 76.3059C13.5207 76.1893 13.6103 76.0512 13.6703 75.8997C13.7303 75.7481 13.7595 75.5861 13.7562 75.4231V75.4267Z" fill="#1677BE"/>
</g>
<defs>
<clipPath id="clip0_1184_1241">
<rect width="82" height="82" fill="white"/>
</clipPath>
</defs>
</svg>
