<svg width="126" height="126" viewBox="0 0 126 126" fill="none" xmlns="http://www.w3.org/2000/svg">
<circle cx="63" cy="63" r="62" stroke="#1677BE" stroke-width="2"/>
<g clip-path="url(#clip0_1184_1182)">
<path d="M66.9251 101C65.8758 100.584 65.491 99.8013 65.5022 98.6602C65.5414 94.9556 65.5176 91.2495 65.5176 87.5435C65.5082 87.353 65.5129 87.162 65.5316 86.9722C65.6142 86.4009 65.9415 86.0696 66.5026 86.0353C67.0637 86.001 67.4302 86.321 67.5673 86.8622C67.6135 87.1188 67.6281 87.3803 67.6107 87.6406C67.6107 91.3452 67.6107 95.0498 67.6107 98.8073H89.482V93.3803C89.2316 93.6117 89.0623 93.7574 88.9042 93.9159C88.1892 94.63 87.505 95.374 86.7607 96.0581C85.9338 96.8265 85.2524 96.8122 84.4059 96.0881C84.3178 96.011 84.2352 95.9267 84.1527 95.8439C81.8385 93.5017 79.5118 91.1724 77.213 88.8159C75.1632 86.7137 74.6078 83.7289 75.7215 81.0568C77.1654 77.5935 80.687 76.3439 84.017 78.1462C84.5486 78.4318 85.0369 78.8032 85.605 79.1745C86.6432 78.3176 87.824 77.6492 89.2106 77.4078C89.3379 77.3864 89.5114 77.1222 89.5128 76.9637C89.5324 74.4244 89.5268 71.8852 89.5268 69.2888H67.6121V70.0872C67.6121 73.9346 67.6121 77.783 67.6121 81.6323C67.6267 81.9157 67.5998 82.1997 67.5324 82.4749C67.3757 82.9905 66.9923 83.2376 66.462 83.189C65.9318 83.1405 65.6226 82.812 65.5372 82.2836C65.5141 82.0711 65.5084 81.8571 65.5204 81.6438C65.5204 77.5821 65.5358 73.519 65.5078 69.4573C65.5078 68.5005 65.7205 67.7278 66.6453 67.2123C64.8264 65.17 64.6236 62.695 64.632 60.1358C64.6529 53.8176 64.7117 47.4966 64.5928 41.1799C64.5396 38.3836 66.6313 36.5213 69.3652 37.2568C69.3652 36.3842 69.3484 35.543 69.3652 34.6861C69.3792 34.1149 69.3652 33.5336 69.5051 32.9895C70.041 30.8015 72.3426 29.5619 74.4357 30.3002C74.6526 30.3759 74.8554 30.4745 75.0709 30.5616C76.47 28.3937 77.816 27.671 79.6251 28.1152C81.339 28.5351 82.38 29.8504 82.5969 31.8284C83.3174 31.7541 84.0492 31.5527 84.7529 31.6299C86.7803 31.8527 88.1346 33.5022 88.1402 35.6544C88.1514 40.1688 88.1402 44.6817 88.1402 49.1961V50.073C89.1938 49.189 90.2221 48.552 91.4758 48.4878C92.008 48.4469 92.5432 48.4839 93.0652 48.5977C95.1051 49.099 95.8215 50.4258 95.1723 52.5052C94.3762 55.0573 93.5269 57.5908 92.7294 60.1429C92.5276 60.8243 92.3747 61.5197 92.2719 62.2237C91.992 63.9732 91.4898 65.6385 90.5188 67.2223C91.5863 67.7935 91.6381 68.7804 91.6283 69.8415C91.5975 72.1937 91.6087 74.5458 91.6283 76.8966C91.6283 77.1379 91.8074 77.535 91.9837 77.5907C95.0617 78.5504 97.3941 83.3033 95.003 87.3249C94.2936 88.5189 93.2079 89.49 92.2285 90.4983C91.7822 90.9582 91.5863 91.398 91.5989 92.0464C91.6367 94.2072 91.5807 96.3709 91.6255 98.5317C91.6507 99.6742 91.2911 100.513 90.2403 100.984L66.9251 101ZM66.7209 51.4269H66.7726C66.7726 54.9659 66.7489 58.5063 66.7824 62.0452C66.802 64.2246 67.8584 65.827 69.6535 66.9452C69.834 67.0438 70.0364 67.093 70.2411 67.088C76.0363 67.0947 81.832 67.0914 87.6281 67.078C87.7682 67.0665 87.9045 67.0262 88.0288 66.9594C88.1531 66.8926 88.2629 66.8009 88.3515 66.6896C89.1379 65.5686 89.699 64.2998 90.0025 62.9564C90.6111 60.4257 91.2533 57.9022 91.9501 55.3958C92.2971 54.1447 92.7798 52.9308 93.2317 51.7111C93.4597 51.0956 93.2023 50.8314 92.6608 50.6914C92.2301 50.5751 91.7789 50.5615 91.3422 50.6516C90.9055 50.7418 90.495 50.9333 90.1424 51.2113C88.8412 52.1653 88.2284 53.5077 88.157 55.1087C88.129 55.7399 87.9248 56.1826 87.3581 56.4854C85.3853 57.538 83.6742 58.8704 82.7214 61.0255C82.4765 61.5782 81.9561 61.731 81.4174 61.4911C80.8787 61.2512 80.6129 60.777 80.8465 60.2058C81.1074 59.5506 81.4402 58.9278 81.8385 58.3492C82.8277 56.9696 84.1163 55.9127 85.5546 55.0559C85.9254 54.8345 86.1143 54.5988 86.0471 54.1618C86.0345 53.9959 86.0345 53.8293 86.0471 53.6634V35.99C86.0471 34.5619 85.3853 33.7164 84.2898 33.7292C83.1943 33.7421 82.5731 34.5719 82.5717 35.9543C82.5717 37.5729 82.5717 39.1881 82.5717 40.8C82.5717 42.5581 82.5801 44.3161 82.5717 46.0742C82.5717 46.7883 82.1421 47.2524 81.5377 47.2553C80.9333 47.2581 80.5163 46.8011 80.4828 46.087C80.4744 45.8971 80.4828 45.7072 80.4828 45.5158C80.4828 41.0495 80.4828 36.5836 80.4828 32.1183C80.4828 30.9629 79.8 30.1803 78.8038 30.1517C77.7824 30.1203 77.0493 30.9129 77.0115 32.0883C77.0115 32.2782 77.0115 32.4682 77.0115 32.6596V46.6283C77.0218 46.8666 77.0143 47.1053 76.9891 47.3424C76.9094 47.8822 76.554 48.2693 76.0573 48.2093C75.6893 48.165 75.3046 47.8437 75.0345 47.5452C74.8834 47.3767 74.9212 47.0039 74.9212 46.7226C74.9147 42.9941 74.9147 39.2648 74.9212 35.5344C74.9212 34.9632 74.9422 34.3919 74.9002 33.8206C74.874 33.4007 74.6942 33.0062 74.3964 32.7153C74.0987 32.4243 73.7047 32.2581 73.2926 32.2497C72.8702 32.2147 72.4508 32.3464 72.1208 32.6177C71.7907 32.889 71.5751 33.2792 71.5185 33.7078C71.4795 34.0136 71.4636 34.3221 71.4709 34.6304C71.4709 38.5264 71.4709 42.4224 71.4709 46.3184C71.4824 46.6048 71.4674 46.8917 71.4262 47.1753C71.324 47.7137 70.9714 47.9936 70.4468 47.9993C69.9221 48.0051 69.5569 47.7337 69.4408 47.1996C69.3952 46.9429 69.3769 46.6819 69.3862 46.4212C69.3862 44.4732 69.3862 42.5252 69.3764 40.5772C69.3764 39.9132 69.0784 39.4347 68.4194 39.2648C67.8136 39.1091 67.1294 39.4076 66.9 39.9788C66.7866 40.3127 66.7358 40.6655 66.7503 41.0185C66.7167 44.4975 66.7209 47.9579 66.7209 51.4269ZM85.5588 94.4614C88.0549 91.8708 90.4208 89.4872 92.7042 87.0222C94.33 85.2684 94.288 82.4435 92.7364 80.6455C91.8969 79.6686 90.8364 79.3273 89.5981 79.5358C88.4788 79.7243 87.5554 80.277 86.7285 81.0454C85.7939 81.9123 85.3979 81.8523 84.3906 81.0454C83.7319 80.4889 82.9916 80.0416 82.1967 79.72C80.3666 79.0445 78.78 79.7457 77.844 81.4895C77.3654 82.3802 77.1726 83.4015 77.2926 84.4099C77.4125 85.4183 77.8393 86.3629 78.5128 87.1107C78.9227 87.5634 79.3705 87.9805 79.7916 88.4218C81.6706 90.3883 83.5497 92.3606 85.5588 94.4614Z" fill="#1677BE"/>
<path d="M32.1424 100.999C31.1378 100.514 30.8034 99.714 30.8426 98.5843C30.9111 96.6634 30.858 94.7369 30.8635 92.8132C30.8635 91.9563 31.2231 91.4778 31.8597 91.4536C32.5285 91.4293 32.9497 91.9348 32.9539 92.8046C32.9623 94.5398 32.9539 96.2736 32.9539 98.0074V98.81H52.7502V79.37H32.9511V80.2883C32.9511 82.4267 32.9511 84.5642 32.9511 86.7007C32.9632 86.9141 32.9519 87.1282 32.9175 87.339C32.7874 87.9232 32.4222 88.2602 31.8248 88.2188C31.2273 88.1774 30.8719 87.8146 30.8691 87.2005C30.858 84.3985 30.8286 81.5936 30.9013 78.793C30.9139 78.276 31.3616 77.7704 31.6597 77.1549C30.2521 75.4683 30.0283 73.2818 30.0367 71.0138C30.0549 65.2413 30.1332 59.4672 29.9975 53.6989C29.9387 51.1511 31.7394 49.2274 34.3726 49.8315C34.3726 48.9932 34.4132 48.1706 34.3726 47.3522C34.2047 44.4088 37.0211 42.5236 39.4724 43.6676C39.5473 43.6875 39.6245 43.6966 39.7019 43.6947C40.5092 42.1238 41.7516 41.2097 43.5313 41.4697C45.4355 41.7553 46.4107 43.0406 46.6696 44.8715C47.3524 44.823 48.0044 44.6716 48.6284 44.7516C50.4473 44.9858 51.7065 46.4982 51.7065 48.3891C51.7219 52.4507 51.7065 56.5138 51.7065 60.5755V61.3667C52.4242 61.0082 53.0748 60.5883 53.7842 60.367C54.3808 60.1739 55.0107 60.112 55.6324 60.1856C58.011 60.5041 58.8393 61.8851 58.0893 64.1973C57.5129 65.9739 56.8469 67.722 56.3054 69.51C55.9431 70.7082 55.764 71.9621 55.4366 73.1718C55.0546 74.5785 54.5971 75.9638 54.1368 77.4819C54.8643 77.9032 54.9105 78.7773 54.9091 79.7156C54.8904 86.0356 54.8904 92.3542 54.9091 98.6714C54.9091 99.8011 54.5775 100.609 53.5099 101.011L32.1424 100.999ZM32.1424 62.7705C32.1424 65.8592 32.1424 68.9478 32.1424 72.0364C32.1424 74.0915 32.8028 75.811 34.609 76.9135C34.8348 77.0653 35.095 77.1553 35.3646 77.1749C40.602 77.1911 45.8399 77.1911 51.0783 77.1749C51.3231 77.1749 51.6911 76.9864 51.7904 76.7807C52.3137 75.6796 52.8803 74.5785 53.2259 73.4146C53.9101 71.1024 54.4306 68.7402 55.0756 66.4166C55.3736 65.3469 55.785 64.3087 56.1837 63.2747C56.4118 62.6806 56.1739 62.4649 55.6464 62.3364C54.8853 62.1493 54.2123 62.3507 53.5939 62.7734C52.3347 63.6303 51.8058 64.9156 51.726 66.4138C51.7269 66.6741 51.6545 66.9293 51.5173 67.1488C51.3801 67.3684 51.184 67.543 50.9523 67.652C49.1824 68.6203 47.6182 69.8071 46.7549 71.7651C46.5367 72.2663 46.0554 72.4634 45.5167 72.2578C44.978 72.0521 44.715 71.628 44.8563 71.0824C44.9894 70.5802 45.2011 70.1033 45.4831 69.67C46.4 68.2861 47.6158 67.1355 49.0369 66.3066C49.4846 66.0382 49.6246 65.7468 49.619 65.237C49.5924 62.9805 49.6078 60.7226 49.6078 58.4661V49.0574C49.6078 48.8661 49.6078 48.6761 49.6078 48.4862C49.5826 47.525 48.9726 46.8495 48.1303 46.8467C47.288 46.8438 46.6514 47.5207 46.6486 48.4776C46.6374 51.5424 46.6486 54.6087 46.6388 57.6735C46.6388 57.9762 46.671 58.379 46.4989 58.5604C46.2302 58.8546 45.7853 59.2002 45.4593 59.1588C45.1333 59.1173 44.8157 58.6589 44.5779 58.3219C44.4659 58.1633 44.5429 57.8606 44.5429 57.6235V45.6399C44.5429 44.3003 44.0238 43.5748 43.0584 43.5591C42.093 43.5433 41.5376 44.2845 41.5362 45.6699C41.5362 49.9229 41.5362 54.1759 41.5362 58.429C41.546 58.6902 41.5362 58.9519 41.5068 59.2116C41.4242 59.7486 41.0968 60.0599 40.5666 60.0913C40.0069 60.1256 39.6235 59.8443 39.5004 59.2787C39.4515 58.9989 39.4328 58.7144 39.4445 58.4304C39.4445 54.8191 39.4445 51.2073 39.4445 47.595C39.4501 47.3339 39.4416 47.0726 39.4193 46.8124C39.3929 46.4904 39.2614 46.1868 39.0457 45.9504C38.83 45.7139 38.5427 45.5583 38.23 45.5085C37.5472 45.3828 36.877 45.7013 36.6266 46.3482C36.5118 46.6819 36.4586 47.0344 36.4699 47.3879C36.4587 51.024 36.4699 54.6586 36.4699 58.2933C36.4807 58.5071 36.476 58.7214 36.4559 58.9345C36.3706 59.5358 36.0012 59.8928 35.4233 59.8957C34.8455 59.8985 34.4761 59.5401 34.3866 58.9402C34.3688 58.7504 34.365 58.5594 34.3754 58.369C34.3754 56.5867 34.3838 54.7986 34.3754 53.0234C34.3684 52.3222 33.9207 51.8509 33.3218 51.8395C33.017 51.8426 32.7249 51.9653 32.5064 52.1823C32.2878 52.3993 32.1595 52.6938 32.148 53.0048C32.1368 53.1948 32.148 53.3847 32.148 53.5761L32.1424 62.7705Z" fill="#1677BE"/>
<path d="M56.4902 30.1425C57.5423 29.3342 58.6896 28.8358 60.0006 28.9229C62.1665 29.0657 63.8916 30.848 64.1379 33.1288C64.3309 34.9183 63.8259 36.4521 62.5638 37.7232C60.9576 39.3413 59.3626 40.9708 57.7536 42.5789C56.7952 43.5415 56.1446 43.5429 55.1848 42.5789C53.5422 40.9308 51.8996 39.2813 50.2808 37.6103C48.9125 36.1993 48.462 34.4913 48.9041 32.569C49.6191 29.427 52.6734 28.0117 55.48 29.5099C55.8102 29.6927 56.1166 29.9097 56.4902 30.1425ZM56.465 40.9965C58.1594 39.2356 59.7628 37.6146 61.3158 35.9437C62.3596 34.8197 62.3568 32.986 61.39 31.8306C60.5813 30.8666 59.2913 30.7952 58.0446 31.6464C56.472 32.7218 56.472 32.7218 54.891 31.6464C53.1421 30.4567 51.3316 31.1322 50.9076 33.1588C50.6992 34.1585 50.8671 35.1311 51.5708 35.888C53.1407 37.5761 54.7539 39.2142 56.465 40.9993V40.9965Z" fill="#1677BE"/>
</g>
<defs>
<clipPath id="clip0_1184_1182">
<rect width="66" height="73" fill="white" transform="translate(30 28)"/>
</clipPath>
</defs>
</svg>
