<svg width="126" height="126" viewBox="0 0 126 126" fill="none" xmlns="http://www.w3.org/2000/svg">
<circle cx="63" cy="63" r="62" stroke="#1677BE" stroke-width="2"/>
<g clip-path="url(#clip0_1184_1207)">
<path d="M20.9993 44.5065C21.5985 42.8886 22.7548 42.2646 24.4632 42.3298C26.675 42.4161 28.8933 42.3493 31.1084 42.3509C33.3624 42.3509 34.3693 43.3481 34.4082 45.6096C34.4082 45.8214 34.431 46.0332 34.4488 46.3248C37.445 46.3248 40.4948 46.8544 43.0558 44.6711C43.1808 44.5677 43.317 44.4786 43.4617 44.4055C44.0837 44.0796 44.7609 44.2247 45.0987 44.7786C45.4657 45.375 45.3813 45.9582 44.8421 46.3754C43.1954 47.6495 41.414 48.6564 39.2703 48.7493C37.9712 48.8063 36.672 48.7819 35.3826 48.7933H34.4618V71.8741C37.0163 71.8741 39.5756 71.7275 41.88 72.9071C42.6546 71.7291 43.4942 70.6375 44.1373 69.4399C45.659 66.6098 49.7659 65.9108 51.9583 69.277C52.1807 69.1515 52.4065 69.0212 52.6338 68.8957C53.2267 68.5666 53.8884 68.3817 54.5655 68.3559C55.2426 68.3301 55.9163 68.4641 56.5324 68.7472C57.1485 69.0303 57.6898 69.4545 58.1126 69.9857C58.5355 70.5169 58.8282 71.1403 58.9672 71.8057C59.0645 72.209 59.2967 72.5667 59.6249 72.8191C63.8179 75.7356 68.0337 78.6211 72.2462 81.5131C72.442 81.6574 72.6496 81.7849 72.8666 81.8944C73.2759 82.0815 73.738 82.1166 74.1708 81.9937C74.6035 81.8708 74.9786 81.5977 75.2294 81.2231C75.4619 80.854 75.5628 80.4166 75.5156 79.9825C75.4684 79.5484 75.2759 79.1431 74.9696 78.8329C74.7489 78.6343 74.5121 78.4544 74.2616 78.2953C70.1476 75.457 66.0287 72.6209 61.9049 69.787C61.6514 69.6326 61.4132 69.4542 61.1936 69.2542C60.9779 69.0609 60.8436 68.7924 60.8183 68.5033C60.7929 68.2142 60.8784 67.9263 61.0572 67.6982C61.4031 67.1947 61.913 67.0465 62.4847 67.2827C62.729 67.3964 62.9604 67.5363 63.1749 67.6998L77.0726 77.259C77.2951 77.4122 77.5143 77.5718 77.7482 77.7038C78.6884 78.235 79.7456 77.9987 80.314 77.1384C80.8824 76.2782 80.7005 75.1914 79.8106 74.5511C78.4286 73.5588 77.0125 72.6106 75.611 71.646L65.325 64.5634C65.1419 64.448 64.9667 64.3207 64.8004 64.1821C64.2889 63.721 64.1898 63.1736 64.5487 62.5789C64.8832 62.0265 65.5686 61.8815 66.1873 62.2172C66.421 62.3528 66.6471 62.5013 66.8645 62.662C71.5631 65.8945 76.2633 69.1249 80.9652 72.3531C81.3315 72.6257 81.7458 72.8264 82.1864 72.9446C82.6036 73.0211 83.0342 72.949 83.404 72.7408C83.7738 72.5325 84.0594 72.2012 84.2115 71.8041C84.5525 70.965 84.3122 70.0802 83.5083 69.5116C81.6083 68.1723 79.6888 66.8607 77.7758 65.541C75.9894 64.3141 74.2258 63.0677 72.4168 61.8734C69.8446 60.1854 67.8142 57.7867 66.5705 54.9667C66.5056 54.8217 66.4244 54.6832 66.3172 54.4779C65.0538 55.1297 63.8163 55.7814 62.5821 56.4331C61.0978 57.2087 59.6379 58.0331 58.1293 58.7532C55.237 60.1316 52.4113 59.9378 49.7497 58.1471C47.5184 56.6449 47.4567 53.9109 49.6068 52.2914C52.9537 49.7692 56.3299 47.2861 59.6915 44.7835C59.9075 44.6206 60.1137 44.4577 60.3979 44.2295C56.8252 42.1896 53.2168 41.9094 49.4769 43.4866C49.2528 43.5811 49.04 43.7016 48.8175 43.7994C48.064 44.1253 47.4079 43.9379 47.0832 43.3106C46.7584 42.6833 46.9873 42.0072 47.723 41.6243C49.2792 40.8016 50.9804 40.2913 52.7313 40.122C56.0122 39.7746 59.3115 40.5808 62.0657 42.4031C62.1932 42.4678 62.3338 42.5026 62.4767 42.5049C62.6196 42.5071 62.7612 42.4768 62.8907 42.4161C68.4023 39.0581 73.8198 39.2194 79.161 42.799C80.3292 43.5811 81.4952 44.3659 82.659 45.1534C83.751 45.9201 85.0499 46.335 86.3827 46.3428H90.5806C90.5806 45.8833 90.5627 45.5102 90.5806 45.1387C90.6699 43.4605 91.7791 42.3689 93.4469 42.3575C96.0138 42.3412 98.5807 42.3412 101.148 42.3575C102.843 42.3705 103.977 43.5257 103.977 45.2446C103.984 55.3583 103.984 65.4704 103.977 75.5808C103.977 77.3225 102.814 78.4859 101.073 78.4989C98.5867 78.5168 96.102 78.512 93.6158 78.4989C91.7304 78.4989 90.6115 77.3584 90.5757 75.457C90.5757 75.1083 90.5757 74.7613 90.5757 74.3556C88.1398 74.2578 85.7965 74.1486 83.6431 75.3592C83.3898 75.501 83.1072 75.835 83.0828 76.1038C82.8311 78.8378 81.1601 80.4068 78.3945 80.4427C78.2662 80.4427 78.1363 80.4622 78.0194 80.472C77.3893 83.817 74.8868 84.8809 72.5174 84.4231C71.142 88.3465 68.9853 89.184 65.1658 87.276C62.7461 90.129 58.4021 89.3664 57.3254 85.4838C54.1895 85.3062 53.0707 84.5355 52.2197 81.9677C48.7526 81.5702 48.1436 81.1531 47.1497 78.6618C45.9399 78.3034 44.8941 78.0313 43.8775 77.6696C43.5246 77.5237 43.2256 77.2715 43.0217 76.9478C41.8216 75.0383 39.8956 74.5788 37.8819 74.3735C36.7662 74.2594 35.6278 74.3539 34.3887 74.3539C34.3887 74.7613 34.3969 75.1311 34.3887 75.4945C34.3417 77.3502 33.2195 78.4777 31.3812 78.4875C29.1077 78.5005 26.8341 78.4272 24.5736 78.5119C22.862 78.5755 21.6505 77.9955 20.9831 76.3759V64.9903C21.4297 64.4836 21.9266 64.0697 22.6525 64.3614C23.3784 64.653 23.4255 65.308 23.4222 65.9907C23.4109 69.0538 23.4352 72.1169 23.4044 75.18C23.4044 75.8643 23.622 76.0664 24.2878 76.0566C26.4769 76.0224 28.6643 76.0435 30.8534 76.0435C31.9512 76.0435 31.9528 76.0435 31.9528 74.903V48.733C31.9528 47.7554 31.9122 46.7778 31.9658 45.8002C32.0064 45.0475 31.8034 44.746 30.9833 44.7656C28.7699 44.8194 26.5532 44.808 24.3381 44.7656C23.6496 44.7542 23.3638 44.9285 23.4027 45.6715C23.4596 46.8625 23.4174 48.0568 23.4174 49.256C23.4174 52.8893 23.4174 56.5211 23.4174 60.1545C23.4174 60.8192 23.3459 61.4335 22.6525 61.7072C21.959 61.9809 21.454 61.6779 21.0529 61.1158C21.0415 61.0995 21.0025 61.1011 20.9766 61.0929L20.9993 44.5065ZM90.5904 48.79C89.2636 48.79 88.0537 48.7688 86.8439 48.79C84.7764 48.8445 82.7476 48.2204 81.0659 47.0124C79.8268 46.1456 78.5666 45.3049 77.3 44.4788C73.0111 41.6797 67.9265 41.7742 63.7968 44.7933C59.5843 47.8711 55.414 51.0059 51.2291 54.1227C50.219 54.8755 50.2547 55.5891 51.3363 56.2588C53.2671 57.4482 55.2597 57.5019 57.2669 56.4592C60.19 54.9423 63.1018 53.4042 66.0184 51.8759C67.3354 51.1867 67.847 51.4246 68.3699 52.8372C69.9938 57.2364 72.9169 60.2832 77.602 61.3194C78.6495 61.5508 79.744 61.5475 80.8142 61.6795C81.5417 61.7691 81.9883 62.2644 81.9509 62.921C81.9071 63.6135 81.5076 63.9964 80.8272 64.0893L80.111 64.1903C81.7951 65.3503 83.3589 66.411 84.9 67.4929C86.1635 68.3792 86.7692 69.6257 86.8049 71.1621C86.8049 71.3935 86.8049 71.6265 86.8049 71.8399H90.5936V64.8925C90.5936 62.7516 90.5839 60.609 90.5936 58.4681C90.6017 57.5883 91.1019 57.0441 91.8197 57.0457C92.5375 57.0474 92.9938 57.5948 93.0214 58.4812C93.0214 58.7239 93.0214 58.97 93.0214 59.2127C93.0214 64.47 93.0214 69.7283 93.0214 74.9877C93.0214 76.0517 93.0214 76.0533 94.1078 76.0533C96.3213 76.0533 98.5363 76.0386 100.751 76.0631C101.331 76.0631 101.563 75.9002 101.563 75.2843C101.549 65.365 101.549 55.4452 101.563 45.5249C101.563 44.9464 101.354 44.7737 100.805 44.7786C98.4811 44.7982 96.1589 44.8063 93.8366 44.7786C93.1871 44.7688 93.0003 45.0132 93.0084 45.6324C93.036 47.6641 93.0198 49.6975 93.0182 51.7309C93.0182 52.2995 93.036 52.8714 93.0003 53.4368C92.9548 54.1309 92.5521 54.5447 91.8635 54.5773C91.175 54.6099 90.7511 54.2172 90.6196 53.546C90.5802 53.2763 90.5671 53.0035 90.5806 52.7313C90.5887 51.467 90.5904 50.1977 90.5904 48.79ZM51.4629 79.6036C51.8965 79.3624 52.473 79.2256 52.7394 78.8606C54.0109 77.1173 55.2386 75.3364 56.3965 73.5148C56.921 72.6888 56.5589 71.6281 55.7469 71.1018C54.9885 70.613 53.8696 70.6994 53.3305 71.4456C52.08 73.1743 50.8475 74.9193 49.7253 76.7327C48.9734 77.9482 49.977 79.4912 51.4629 79.6036ZM60.8006 77.8586C60.8006 76.8223 60.3005 76.0908 59.547 75.8203C59.1634 75.6794 58.7442 75.6698 58.3547 75.793C57.9652 75.9162 57.6272 76.1653 57.3936 76.5014C56.5816 77.6175 55.82 78.758 55.0567 79.9034C54.3763 80.9217 54.5549 82.0867 55.453 82.6895C56.3802 83.3135 57.4537 83.0675 58.1812 82.0378C58.9266 80.9804 59.6623 79.9197 60.367 78.828C60.5426 78.5209 60.6879 78.1973 60.8006 77.8619V77.8586ZM61.6954 86.6862C62.1648 86.4092 62.7689 86.2365 63.079 85.8357C64.0177 84.617 64.8816 83.3331 65.6985 82.028C66.2149 81.2019 65.8998 80.1298 65.1106 79.584C64.3701 79.0708 63.2349 79.1376 62.686 79.8692C61.7139 81.1347 60.8124 82.4532 59.9854 83.8186C59.279 85.0308 60.2209 86.5168 61.6954 86.6862ZM46.3475 76.0647C46.7762 75.8203 47.3219 75.6704 47.6126 75.3103C48.3998 74.3124 49.1208 73.2636 49.7708 72.1706C50.2677 71.3348 49.9088 70.2676 49.1033 69.7528C48.3271 69.264 47.252 69.3682 46.6837 70.1161C45.918 71.0974 45.2177 72.1283 44.5872 73.202C43.8694 74.4631 44.834 75.9539 46.3475 76.0696V76.0647ZM66.6469 85.1889C67.2591 85.7787 67.9785 86.0443 68.8311 85.7168C69.1669 85.6033 69.46 85.3892 69.6708 85.1034C69.8816 84.8176 70 84.4738 70.0101 84.1184C70.0945 82.9469 69.3264 82.3848 68.5079 81.9449L66.6469 85.1889Z" fill="#1677BE"/>
<path d="M26.4989 71.0807C26.4989 70.7304 26.4778 70.3784 26.4989 70.0298C26.546 69.3422 26.9179 68.93 27.6097 68.8778C28.3015 68.8257 28.7919 69.2037 28.8682 69.8554C28.9592 70.6583 28.9592 71.4688 28.8682 72.2717C28.7951 72.9332 28.3063 73.3275 27.6194 73.277C26.9325 73.2265 26.546 72.8208 26.4973 72.1283C26.4761 71.7829 26.4989 71.431 26.4989 71.0807Z" fill="#1677BE"/>
<path d="M98.4973 71.1044C98.4973 71.4547 98.5233 71.8083 98.4973 72.1553C98.4356 72.8445 98.0264 73.247 97.3508 73.2812C96.6753 73.3154 96.1913 72.913 96.1199 72.2515C96.046 71.4733 96.046 70.6899 96.1199 69.9118C96.1324 69.7562 96.1767 69.6048 96.2499 69.4671C96.3231 69.3294 96.4237 69.2082 96.5455 69.111C96.6673 69.0139 96.8077 68.9429 96.9579 68.9024C97.1082 68.8618 97.2651 68.8527 97.419 68.8755C98.1108 68.9505 98.4681 69.3643 98.5071 70.0535C98.5266 70.4038 98.5071 70.7541 98.5071 71.1044H98.4973Z" fill="#1677BE"/>
</g>
<defs>
<clipPath id="clip0_1184_1207">
<rect width="83" height="49" fill="white" transform="translate(21 40)"/>
</clipPath>
</defs>
</svg>
