<svg width="82" height="82" viewBox="0 0 82 82" fill="none" xmlns="http://www.w3.org/2000/svg">
<g clip-path="url(#clip0_1184_1249)">
<path d="M36.5222 82.0034C35.0781 81.8012 33.6228 81.6326 32.19 81.3903C25.5482 80.2932 19.3249 77.426 14.1746 73.0905C7.0297 67.1401 2.47932 59.5881 0.719174 50.4458C-1.13581 40.8706 0.677732 30.948 5.79962 22.6484C10.9215 14.3488 18.9771 8.27948 28.3665 5.64573C30.7379 4.97654 33.2249 4.70532 35.6686 4.325C36.7917 4.14847 37.4127 4.5898 37.4608 5.38576C37.5057 6.13197 36.9394 6.6166 35.8756 6.70005C31.6332 7.03384 27.5514 8.03681 23.7262 9.89031C12.1369 15.507 5.00642 24.6316 2.92377 37.3606C0.181662 54.1127 9.1958 70.1089 24.8317 76.7799C39.7408 83.1411 57.6263 78.5082 67.5935 65.7167C73.182 58.545 75.7476 50.4073 75.4187 41.342C75.2582 36.6448 73.6986 30.6719 71.778 27.1832C69.2285 27.6261 66.8923 26.4209 64.3235 26.2027C64.4487 26.429 64.5449 26.6247 64.6605 26.8093C67.0901 30.6563 68.6299 34.9974 69.1675 39.5158C69.1961 39.7539 69.2127 39.9933 69.2173 40.2331C69.2333 41.0355 68.7776 41.5827 68.0941 41.6148C67.433 41.6453 66.9533 41.1333 66.8105 40.331C66.5522 38.8097 66.3564 37.2691 65.9778 35.7751C65.0502 32.1732 63.3782 28.8057 61.0696 25.8897C60.8916 25.6614 60.6674 25.4734 60.4116 25.3379C60.1558 25.2024 59.8743 25.1226 59.5854 25.1036C59.2966 25.0847 59.0071 25.1271 58.7358 25.228C58.4645 25.3289 58.2176 25.4861 58.0114 25.6892C57.1043 26.591 56.1951 27.4902 55.2837 28.3868C63.8502 38.0362 62.1526 52.2864 52.9732 59.9171C44.2431 67.1722 31.4214 66.6105 23.423 58.5755C19.5494 54.7063 17.2641 49.5271 17.0171 44.0573C16.77 38.5875 18.579 33.2233 22.088 29.0206C29.7447 19.8125 44.0168 18.1693 53.6182 26.7194C54.6644 25.6619 55.7185 24.6043 56.7582 23.534C56.8232 23.4733 56.8755 23.4004 56.9122 23.3194C56.9488 23.2384 56.969 23.151 56.9716 23.0622C56.8112 22.0993 56.6026 21.2472 55.688 20.5668C39.1472 8.34172 15.4758 17.4503 11.4341 37.6237C8.36627 52.9396 18.6239 67.9409 34.0208 70.6529C37.7668 71.3226 41.61 71.222 45.3159 70.3573C49.0218 69.4925 52.5127 67.8816 55.5756 65.623C58.6385 63.3643 61.2092 60.5053 63.1309 57.2202C65.0525 53.9351 66.2849 50.2929 66.7527 46.5157C66.7864 46.2509 66.7848 45.9813 66.8281 45.7133C66.9517 44.9655 67.4699 44.4985 68.1117 44.5419C68.28 44.5496 68.4445 44.5938 68.5939 44.6715C68.7433 44.7492 68.874 44.8586 68.9769 44.9919C69.0798 45.1252 69.1524 45.2793 69.1898 45.4435C69.2271 45.6077 69.2283 45.7781 69.1932 45.9428C68.9092 47.7835 68.7263 49.6723 68.1663 51.4343C64.4503 63.149 56.5817 70.5309 44.5351 72.9381C27.9236 76.2567 11.8111 64.9143 8.95993 48.2344C8.27895 44.3007 8.37966 40.2714 9.25629 36.3766C10.1329 32.4818 11.7683 28.798 14.0689 25.5356C16.3696 22.2732 19.2904 19.4962 22.6646 17.3632C26.0387 15.2303 29.8 13.7832 33.7335 13.1046C41.3566 11.7743 48.4678 13.2459 55.0735 17.2658C55.2981 17.4022 55.526 17.5322 55.8068 17.6975C55.6351 15.1571 54.3884 12.8238 54.8441 10.2113C52.6801 9.09201 50.3836 8.25036 48.0089 7.70623C46.0096 7.26653 43.9671 7.0194 41.9454 6.68722C41.785 6.66154 41.6245 6.64869 41.4641 6.6166C40.7597 6.46575 40.3409 5.95704 40.3906 5.33279C40.402 5.1716 40.4468 5.01455 40.522 4.87156C40.5973 4.72857 40.7014 4.60277 40.8278 4.50214C40.9542 4.40151 41.1001 4.32824 41.2563 4.28697C41.4126 4.24571 41.5756 4.23735 41.7352 4.26243C43.5339 4.46944 45.3438 4.65879 47.1168 5.00862C50.1 5.60681 52.9912 6.59642 55.7153 7.95177C56.2641 8.22297 56.7566 8.37863 57.368 8.11224C57.7434 7.95177 58.1959 7.97582 58.6115 7.91645C58.9099 5.18836 59.9127 4.18217 62.6067 3.92541C62.6468 3.60446 62.6725 3.26266 62.7334 2.93047C62.8717 2.13781 63.2755 1.4158 63.8786 0.883227C64.4817 0.350654 65.248 0.0392295 66.0516 0.000178624C66.8734 -0.0481744 67.6859 0.195075 68.346 0.687079C69.0061 1.17908 69.4715 1.88828 69.6601 2.68976C70.1559 4.81606 70.5682 6.96163 71.0159 9.09275C72.6798 9.20187 72.9092 9.43135 72.8579 10.9751C74.671 11.3522 76.4825 11.7968 78.3132 12.0888C80.144 12.3809 81.4067 13.2683 82.0036 15.0496V16.4939C81.3489 18.3442 80.1087 19.4017 78.0854 19.3552C77.6233 22.2598 76.8884 22.9932 74.0516 23.4136C74.0019 23.8036 74.0292 24.2272 73.8912 24.5819C73.6361 25.2109 73.7757 25.7293 74.0516 26.3086C76.3715 31.0993 77.6568 36.3249 77.8238 41.6453C78.0918 49.8167 76.1054 57.4152 71.5807 64.2419C65.4146 73.5415 56.8353 79.3122 45.8283 81.3679C44.3426 81.6455 42.8311 81.7931 41.3357 82.0001L36.5222 82.0034ZM51.7442 28.4044C44.6185 21.9356 32.673 21.5762 24.9633 29.4411C23.1674 31.2758 21.7512 33.447 20.7962 35.8303C19.8411 38.2136 19.3659 40.762 19.3978 43.3294C19.4297 45.8968 19.9681 48.4326 20.9821 50.7914C21.9961 53.1502 23.4657 55.2856 25.3067 57.075C33.0821 64.6174 45.4577 64.4569 52.9379 56.6851C60.6396 48.6918 59.7619 36.9289 53.6198 30.2996L49.3101 34.6325C51.4441 37.7666 52.1982 39.6329 52.2544 42.5937C52.3587 47.8076 50.1685 51.8852 45.7144 54.5379C41.2603 57.1906 36.6361 57.0814 32.1001 54.5379C31.2112 54.0404 30.977 53.3841 31.399 52.7101C31.7857 52.081 32.4596 51.9928 33.2923 52.4581C37.1672 54.6214 41.0726 54.6647 44.8111 52.272C48.5175 49.8985 50.1637 46.3665 49.8091 41.9662C49.6487 39.8479 48.8464 37.9543 47.4521 36.2308C46.3851 37.3028 45.3967 38.3491 44.3458 39.3264C43.8516 39.787 43.7345 40.1288 44.0457 40.7915C45.4031 43.6994 43.9446 47.1849 40.9651 48.3243C40.2472 48.5999 39.4805 48.7259 38.7122 48.6946C37.9439 48.6633 37.1901 48.4753 36.497 48.1422C35.8039 47.809 35.1862 47.3377 34.6818 46.7573C34.1773 46.1768 33.7968 45.4994 33.5635 44.7665C33.331 44.0337 33.2515 43.261 33.3298 42.4963C33.408 41.7315 33.6424 40.9909 34.0185 40.3204C34.3945 39.6499 34.9042 39.0638 35.5159 38.5983C36.1276 38.1327 36.8284 37.7978 37.5747 37.6141C39.0231 37.2506 40.5563 37.472 41.8427 38.2303L45.6069 34.4608C43.4681 32.4757 39.529 31.6075 36.2687 32.4452C29.1591 34.2698 25.8394 42.1524 29.4736 48.5971C29.9982 49.5294 29.902 50.2211 29.1928 50.6014C28.5285 50.9609 27.9092 50.6897 27.3941 49.799C26.2324 47.8091 25.6081 45.5511 25.5826 43.2468C25.4382 34.9631 32.9794 28.4927 41.1223 29.9C43.4187 30.3004 45.576 31.2765 47.3927 32.7373C48.856 31.2785 50.2808 29.8487 51.7442 28.3948V28.4044ZM40.2238 40.193C38.6369 39.5125 37.0148 40.0437 36.1852 41.3917C35.7836 42.0436 35.6266 42.8171 35.7424 43.574C35.8582 44.3309 36.2392 45.022 36.8174 45.524C37.3973 46.0249 38.1362 46.3034 38.9024 46.3099C39.6686 46.3164 40.4121 46.0503 41.0004 45.5593C42.1091 44.6333 42.4781 43.0222 41.7657 41.8683C41.1432 42.5199 40.5495 43.1634 39.9269 43.7812C39.3044 44.399 38.5904 44.4231 38.0914 43.9417C37.5924 43.4602 37.6325 42.7092 38.2326 42.1074C38.8327 41.5057 39.4985 40.8718 40.2238 40.1833V40.193ZM67.003 13.0597L67.2517 13.2298C67.7828 12.6425 68.3268 12.0664 68.8306 11.4549C68.9365 11.3266 68.9397 11.0618 68.9028 10.8772C68.407 8.39468 67.9064 5.91533 67.3833 3.43919C67.2229 2.70421 66.6196 2.29659 65.9906 2.43139C65.3616 2.56619 64.9733 3.16957 65.1226 3.90937C65.7403 6.95199 66.3741 9.99942 67.003 13.0501V13.0597ZM68.7487 14.7415L68.9188 14.9966C72.0364 15.6385 75.1539 16.2981 78.2763 16.9224C78.4222 16.9472 78.5715 16.9429 78.7157 16.9098C78.8599 16.8768 78.9961 16.8155 79.1166 16.7296C79.237 16.6437 79.3394 16.5349 79.4176 16.4093C79.4959 16.2838 79.5486 16.144 79.5728 15.998C79.661 15.324 79.369 14.8169 78.6999 14.6725C76.1487 14.1205 73.5911 13.6005 71.0336 13.0838C70.8594 13.0529 70.68 13.0921 70.5346 13.1929C69.9264 13.6823 69.3424 14.2119 68.7487 14.7319V14.7415ZM63.0078 17.0523L63.2645 17.2289C63.7748 16.6576 64.3043 16.1055 64.7856 15.507C64.9082 15.317 64.9514 15.0865 64.9059 14.8651C64.415 12.383 63.909 9.90422 63.3881 7.42861C63.2276 6.69363 62.6324 6.29084 61.9954 6.42403C61.3584 6.55723 60.9829 7.14938 61.1337 7.9004C61.7483 10.9462 62.3804 13.9937 63.0078 17.0427V17.0523ZM59.0864 21.3435C59.7121 20.6663 60.2208 20.1688 60.6588 19.6167C60.8403 19.3847 60.9248 19.0914 60.8947 18.7983C60.4262 16.3671 59.9191 13.9423 59.4153 11.5191C59.2549 10.7168 58.7013 10.2899 58.0258 10.4102C57.3503 10.5306 57.0005 11.118 57.153 11.9444C57.3615 13.0677 57.599 14.1911 57.8301 15.3144C58.2264 17.2353 58.6243 19.1546 59.0864 21.3435ZM64.7872 18.739L64.9557 18.9893C68.0042 19.6167 71.0528 20.249 74.1014 20.8636C74.8539 21.0145 75.4476 20.6422 75.5807 20.0051C75.7139 19.368 75.3112 18.763 74.5795 18.609C72.0786 18.0794 69.5745 17.5664 67.0672 17.07C66.8691 17.0399 66.6672 17.0895 66.5056 17.208C65.9152 17.7023 65.3632 18.2286 64.7872 18.7422V18.739ZM60.7759 22.7348C60.9685 22.9145 61.0006 22.9739 61.0439 22.9819C64.0925 23.6238 67.141 24.2657 70.1896 24.8691C70.894 25.0103 71.462 24.6076 71.5823 23.9929C71.7091 23.3414 71.3127 22.7573 70.5763 22.6032C68.1 22.0822 65.6221 21.5751 63.1426 21.0819C62.9203 21.0383 62.6898 21.0838 62.5008 21.2087C61.9119 21.6917 61.352 22.2197 60.7727 22.738L60.7759 22.7348Z" fill="#1677BE"/>
</g>
<defs>
<clipPath id="clip0_1184_1249">
<rect width="82" height="82" fill="white"/>
</clipPath>
</defs>
</svg>
