<svg width="126" height="126" viewBox="0 0 126 126" fill="none" xmlns="http://www.w3.org/2000/svg">
<circle cx="63" cy="63" r="62" stroke="#1677BE" stroke-width="2"/>
<g clip-path="url(#clip0_1902_283)">
<path d="M28 90.8438V35.1562C28.0596 35.0346 28.1062 34.9068 28.139 34.7752C28.7423 30.908 31.3805 28.0533 35.121 27.225C35.4282 27.1575 35.734 27.0759 36.0411 27H90.9782C91.2868 27.0759 91.594 27.1575 91.904 27.2278C96.1533 28.1742 98.993 31.7644 98.993 36.2405C98.993 50.303 98.993 64.3655 98.993 78.428C98.993 82.2713 99.0097 86.1145 98.993 89.9592C98.9694 94.23 96.156 97.7653 92.0555 98.7272C91.6538 98.8214 91.2507 98.91 90.8476 99.0084H36.1913C36.0423 98.9495 35.8889 98.9025 35.7326 98.8678C31.9156 98.2955 29.0606 95.6011 28.2266 91.793C28.1557 91.4667 28.0751 91.1559 28 90.8438ZM63.516 96.0652C72.2989 96.0652 81.0828 96.0652 89.8676 96.0652C93.5275 96.0652 96.1296 93.4453 96.131 89.7497C96.1384 71.9166 96.1384 54.0844 96.131 36.2531C96.1325 35.6687 96.0629 35.0864 95.9239 34.5192C95.215 31.687 92.8659 29.9391 89.8079 29.9391C72.3096 29.9391 54.8108 29.9391 37.3116 29.9391C33.4363 29.9391 30.9079 32.5167 30.9079 36.4655C30.9079 54.157 30.9079 71.8486 30.9079 89.5402C30.9079 93.5156 33.4391 96.0666 37.3825 96.0666C46.0886 96.0675 54.7997 96.067 63.516 96.0652Z" fill="#1677BE"/>
<path d="M47.3398 47.9527V45.084H79.6797V47.9345H78.8957C74.5033 47.9345 70.1109 47.9457 65.7185 47.9218C65.1222 47.9218 64.9178 48.0737 64.9192 48.7023C64.9359 58.2395 64.9359 67.7766 64.9192 77.3138C64.9192 77.9649 65.1625 78.0788 65.7366 78.076C70.0817 78.0549 74.4283 78.0648 78.7748 78.0648H79.6658V80.9138H47.3496V78.0648H48.1321C52.5246 78.0648 56.917 78.0535 61.3094 78.0774C61.9057 78.0774 62.11 77.9255 62.1086 77.297C62.092 67.7598 62.0873 58.2226 62.0948 48.6854C62.0948 48.4576 62.0572 48.2312 62.0322 47.9513L47.3398 47.9527Z" fill="#1677BE"/>
<path d="M55.2348 83.6056L57.6687 84.8333C56.5442 88.7933 50.7284 91.9587 45.748 91.3625C40.0296 90.6777 35.6219 85.708 35.469 79.7722C35.3161 73.8364 39.4138 68.7584 45.2893 67.7164C50.7437 66.7503 55.8325 69.8989 57.6826 74.1331L55.2376 75.3847C53.3945 72.1503 50.6631 70.4009 46.9685 70.4628C44.4234 70.5022 42.2689 71.5723 40.5675 73.4975C37.1245 77.3928 37.7055 83.4312 41.7587 86.6487C45.6966 89.765 52.1601 89.1842 55.2348 83.6056Z" fill="#1677BE"/>
<path d="M69.3457 51.8635L71.7921 50.6175C73.6186 53.8238 76.3291 55.5774 79.9931 55.5394C82.5355 55.5141 84.6941 54.465 86.4122 52.5469C89.858 48.7008 89.352 42.6736 85.3683 39.4308C81.3845 36.188 74.8696 36.7913 71.7907 42.3769C71.389 42.1786 70.979 41.9803 70.5731 41.7764C70.1672 41.5725 69.7544 41.3546 69.3527 41.1521C70.5439 37.1471 76.4417 33.9633 81.3484 34.6425C84.151 35.0336 86.7222 36.4281 88.5953 38.5731C90.4685 40.7181 91.5195 43.4713 91.5577 46.3333C91.5959 49.1952 90.6187 51.9762 88.8034 54.1715C86.9881 56.3668 84.455 57.8311 81.6639 58.2985C75.9982 59.2238 71.0443 55.8403 69.3457 51.8635Z" fill="#1677BE"/>
<path d="M57.6907 51.8537C55.8059 56.1329 50.7129 59.2464 45.2933 58.2803C39.5151 57.2509 35.4604 52.3375 35.4688 46.5029C35.4785 40.7289 39.6179 35.6959 45.0778 34.7523C51.4635 33.6498 56.1729 37.5564 57.688 41.1367L55.2416 42.3826C53.4346 39.2158 50.7699 37.4706 47.1573 37.4608C44.6066 37.4509 42.4313 38.4718 40.6924 40.3576C37.209 44.1292 37.6038 50.0861 41.5167 53.4456C45.4295 56.8051 52.1363 56.32 55.2638 50.6261C55.6683 50.8258 56.0797 51.0254 56.487 51.2322C56.8943 51.4389 57.2654 51.6329 57.6907 51.8537Z" fill="#1677BE"/>
<path d="M71.7882 75.3893L69.3571 74.1602C70.9709 70.2227 75.6468 67.1824 80.6008 67.5776C87.0907 68.0937 91.1023 73.3319 91.5248 78.4057C92.0558 84.7746 87.7885 90.0199 82.2591 91.1815C76.2932 92.4358 71.2544 89.0819 69.332 84.8829L71.7993 83.6172C73.5799 86.7293 76.175 88.459 79.7029 88.5391C82.2271 88.5926 84.408 87.6518 86.1705 85.818C87.0388 84.9206 87.7128 83.8499 88.1494 82.6744C88.586 81.4988 88.7757 80.2441 88.7064 78.9902C88.6371 77.7363 88.3103 76.5108 87.7468 75.3918C87.1834 74.2728 86.3956 73.2849 85.4338 72.491C81.3041 69.0724 74.792 69.9091 71.7882 75.3893Z" fill="#1677BE"/>
</g>
<defs>
<clipPath id="clip0_1902_283">
<rect width="71" height="72" fill="white" transform="translate(28 27)"/>
</clipPath>
</defs>
</svg>
