<svg width="126" height="126" viewBox="0 0 126 126" fill="none" xmlns="http://www.w3.org/2000/svg">
<circle cx="63" cy="63" r="62" stroke="#1677BE" stroke-width="2"/>
<g clip-path="url(#clip0_1902_281)">
<path d="M102.001 84.0592C99.5358 85.22 97.077 86.3976 94.6029 87.5402C89.1125 90.0793 83.6184 92.6041 78.1208 95.1147C78.0523 95.1467 77.9807 95.1742 77.9106 95.2046C77.1139 95.5489 76.5395 95.4042 76.2257 94.7826C75.8966 94.1184 76.1495 93.5243 76.9493 93.151C78.6007 92.3893 80.2582 91.6276 81.9127 90.8659L97.7031 83.6021C97.8402 83.5381 97.9743 83.4681 98.215 83.3492C97.9103 83.1969 97.6696 83.0689 97.4304 82.9592C91.3854 80.1774 85.3379 77.4033 79.2878 74.6367C78.956 74.5114 78.589 74.5168 78.261 74.6519C73.5841 76.7746 68.9178 78.9196 64.2621 81.0869C63.9424 81.2558 63.5863 81.3441 63.2247 81.3441C62.8631 81.3441 62.5069 81.2558 62.1872 81.0869C57.556 78.9247 52.911 76.7919 48.2523 74.6885C47.8736 74.5329 47.4497 74.5274 47.0671 74.6733C40.9876 77.4368 34.9162 80.2191 28.8529 83.0202C28.6731 83.1024 28.5025 83.2076 28.2435 83.3431C28.5192 83.4863 28.7234 83.6036 28.9382 83.7027C40.1608 88.857 51.3805 94.0143 62.597 99.1747C62.7922 99.28 63.0105 99.3352 63.2323 99.3352C63.4541 99.3352 63.6724 99.28 63.8676 99.1747C65.5799 98.3566 67.309 97.5766 69.0366 96.792C69.8623 96.4173 70.4564 96.591 70.752 97.2674C71.0475 97.9438 70.8099 98.4694 70.0177 98.8395C67.9778 99.7932 65.9455 100.765 63.8721 101.643C63.4562 101.818 62.8057 101.749 62.3822 101.553C50.279 96.0176 38.1834 90.4662 26.0954 84.8986C25.774 84.7462 25.3931 84.6685 25.1433 84.4415C24.8127 84.1368 24.444 83.7682 24.3465 83.3645C24.214 82.8206 24.6284 82.4504 25.1387 82.2173C27.6707 81.0626 30.1996 79.9012 32.7255 78.7332L44.849 73.159C44.5732 73.0066 44.3919 72.8984 44.2107 72.8116L25.4556 64.1935C25.3398 64.1402 25.189 64.1158 25.1189 64.026C24.8356 63.6756 24.374 63.3069 24.3709 62.9397C24.3679 62.5726 24.7503 62.0257 25.1052 61.8642C28.3044 60.3408 31.525 58.8706 34.7471 57.4005C35.4798 57.0669 36.0374 57.268 36.3406 57.9078C36.6437 58.5477 36.4396 59.1098 35.7114 59.4511C33.5344 60.4718 31.3467 61.465 29.1606 62.4705C28.8925 62.5939 28.6274 62.7234 28.2374 62.9077C28.5634 63.0845 28.7676 63.2124 28.9839 63.3099C40.2258 68.4693 51.4708 73.6272 62.7189 78.7835C63.0529 78.9125 63.4236 78.9087 63.7548 78.7728C75.0486 73.6033 86.3373 68.4201 97.6208 63.2231C97.7732 63.1515 97.9255 63.0708 98.2058 62.9184C97.2567 62.4751 96.425 62.0805 95.5886 61.6997C90.1865 59.2165 84.7859 56.7282 79.3868 54.2348C79.2012 54.1383 78.9947 54.0887 78.7855 54.0903C78.5762 54.0919 78.3705 54.1446 78.1864 54.244C73.5962 56.3768 68.9909 58.4684 64.4069 60.6119C63.5781 61.0004 62.8834 61.0095 62.041 60.6119C57.46 58.4623 52.8501 56.3752 48.2615 54.244C48.0656 54.1405 47.847 54.0874 47.6254 54.0895C47.4039 54.0917 47.1863 54.1489 46.9925 54.2561C45.3944 55.0179 43.781 55.7506 42.1692 56.4834C41.3801 56.8414 40.7981 56.6769 40.4935 56.0401C40.172 55.3774 40.4356 54.7817 41.2354 54.4085C42.3993 53.8661 43.5678 53.3421 44.8916 52.722C44.264 52.428 43.7795 52.1949 43.2905 51.971C37.2912 49.2136 31.2904 46.4582 25.288 43.7048C24.7472 43.4565 24.3069 43.1503 24.3146 42.4861C24.3222 41.8645 24.732 41.572 25.2515 41.3282C34.5952 37.0525 43.9308 32.7686 53.2584 28.4765C53.8327 28.2114 54.3126 28.2846 54.8458 28.5314C57.4417 29.7288 60.0422 30.9161 62.6473 32.0932C62.8773 32.1968 63.2094 32.3019 63.409 32.2135C65.4611 31.3086 67.4949 30.3625 69.6719 29.3647C68.2368 28.7035 66.8611 28.2221 65.6485 27.4726C63.9818 26.4443 62.4492 26.3605 60.874 27.5442C60.7672 27.6122 60.6539 27.6693 60.5358 27.7148C59.6949 28.1063 59.1388 27.9646 58.8067 27.2761C58.4746 26.5875 58.726 26.0832 59.5608 25.6566C60.6272 25.1082 61.7028 24.5506 62.7737 23.9961H63.5355C63.5735 24.0296 63.6149 24.0592 63.6589 24.0845C73.9512 28.8162 84.243 33.5491 94.5344 38.2829C97.0328 39.4316 99.5145 40.6168 101.999 41.7868V43.1579C101.667 43.3795 101.322 43.5829 100.968 43.7673C94.8416 46.5948 88.7123 49.4167 82.58 52.233C82.2753 52.3701 81.9843 52.5164 81.5593 52.7175C82.0163 52.9277 82.3027 53.0663 82.5982 53.2019C88.7285 56.0233 94.8578 58.8457 100.986 61.6692C101.338 61.8601 101.677 62.0749 101.999 62.3121V63.5308C101.677 63.7683 101.338 63.9831 100.986 64.1737C94.8131 67.0225 88.6371 69.8663 82.4581 72.705C82.193 72.8268 81.9386 72.9716 81.5989 73.1468C81.9036 73.2991 82.1001 73.3951 82.3027 73.488C87.7678 76.0007 93.2323 78.5149 98.6964 81.0306C99.8146 81.547 100.899 82.1366 101.999 82.6926L102.001 84.0592ZM70.3239 46.9101C68.2886 45.9671 66.363 45.1338 64.4937 44.1816C63.6451 43.7505 62.9703 43.7322 62.1095 44.1664C60.2083 45.1277 58.2461 45.9702 56.2382 46.8934C56.3427 46.9727 56.4521 47.0455 56.5657 47.1112C58.6544 48.0756 60.7399 49.049 62.8408 49.9844C63.1138 50.0781 63.412 50.0667 63.6771 49.9524C65.0665 49.3431 66.4361 48.6941 67.8148 48.0588C68.6131 47.6916 69.4129 47.3275 70.3239 46.9101ZM60.5526 42.3886C58.2491 41.3222 56.1422 40.338 54.0292 39.3722C53.8535 39.2914 53.6536 39.2805 53.4701 39.3417C51.2048 40.3639 48.947 41.4044 46.6695 42.451C46.7502 42.547 46.7746 42.6034 46.8218 42.6216C48.9074 43.589 50.99 44.561 53.0877 45.5009C53.3422 45.581 53.6173 45.5642 53.8601 45.4537C54.9509 44.986 56.0234 44.4772 57.1035 43.9806C58.1836 43.4839 59.2805 42.9751 60.5526 42.3886ZM66.1146 42.3474C66.2186 42.4361 66.3297 42.5161 66.4467 42.5866C68.5323 43.5586 70.6149 44.5397 72.7157 45.4811C72.9442 45.5832 73.3083 45.5207 73.5566 45.4126C74.8317 44.855 76.0886 44.2578 77.3515 43.6759L79.8652 42.5211C77.5206 41.441 75.3253 40.4218 73.1179 39.427C72.9092 39.351 72.6794 39.357 72.475 39.4438C70.3772 40.3852 68.2901 41.3496 66.1146 42.3474ZM56.5794 37.9005C56.6465 37.998 56.6648 38.0529 56.7028 38.0772C58.7849 39.0492 60.8669 40.014 62.9489 40.9718C63.1267 41.0558 63.3298 41.0694 63.5172 41.0098C65.65 40.0486 67.7721 39.0659 70.0055 38.0391C69.7008 37.8792 69.5149 37.7649 69.3154 37.6735C67.664 36.9118 65.9851 36.2064 64.3673 35.3792C63.5187 34.945 62.8286 34.9435 61.9755 35.3792C60.2174 36.2857 58.3923 37.0657 56.5794 37.9005ZM50.9641 37.9477C48.8663 36.9727 46.9026 36.045 44.9221 35.1583C44.6951 35.0578 44.331 35.1233 44.0842 35.233C42.0291 36.147 39.9846 37.087 37.9402 38.0254C37.7785 38.1162 37.6233 38.218 37.4755 38.3301C39.1513 39.1025 40.7616 39.7743 42.3048 40.5802C43.3271 41.1134 44.2046 41.2445 45.2496 40.6107C46.217 40.0257 47.3078 39.6479 48.3407 39.1711C49.1816 38.7902 50.018 38.3926 50.9641 37.9477ZM79.4843 51.1468C77.3089 50.1429 75.3193 49.212 73.3144 48.3193C73.1118 48.2279 72.7797 48.3056 72.5527 48.4077C70.5935 49.2852 68.6451 50.187 66.6951 51.0843C66.4864 51.1803 66.2883 51.3022 66.0095 51.453C68.0844 52.4113 70.0542 53.3253 72.0317 54.2196C72.228 54.3123 72.4519 54.328 72.6593 54.2638C74.8927 53.2613 77.1139 52.2345 79.4843 51.1468ZM75.5858 38.033C77.8101 39.0568 79.9063 40.0455 82.03 40.9733C82.4121 41.1162 82.8335 41.1135 83.2137 40.9657C84.9992 40.2039 86.7572 39.3645 88.5214 38.5495C88.6812 38.4568 88.8339 38.3524 88.9784 38.2372C86.71 37.1921 84.5376 36.179 82.3469 35.2055C82.1214 35.105 81.7558 35.1796 81.5074 35.2893C79.7783 36.0617 78.0614 36.863 76.343 37.6568C76.116 37.7573 75.9027 37.8731 75.5858 38.033ZM46.9787 51.1483C48.6926 51.9405 50.3592 52.5651 51.8751 53.4487C53.3909 54.3323 54.701 54.3216 56.2001 53.435C57.5072 52.6626 58.959 52.1325 60.4886 51.4286C58.1105 50.3394 55.8863 49.3156 53.6544 48.3071C53.4973 48.2454 53.3226 48.2454 53.1654 48.3071C51.1408 49.2303 49.1222 50.1627 46.9787 51.1483ZM79.2482 33.8009C78.9435 33.6486 78.7257 33.5282 78.5032 33.4246C76.9661 32.7132 75.3969 32.0673 73.9025 31.2781C72.8772 30.7373 71.9799 30.6032 70.9622 31.2659C70.333 31.6742 69.5911 31.9073 68.904 32.2257C67.9519 32.6675 67.0013 33.1139 65.9333 33.6136C68.2185 34.6632 70.3742 35.655 72.5329 36.6269C72.7137 36.6949 72.9135 36.6916 73.092 36.6178C75.1166 35.7052 77.1337 34.7729 79.2482 33.8009ZM50.6837 46.9254C48.3986 45.8727 46.2901 44.8885 44.1665 43.944C43.941 43.8434 43.58 43.8968 43.3377 44.0034C41.6513 44.7514 39.9862 45.5268 38.3104 46.3023C38.0346 46.4287 37.765 46.5658 37.3963 46.7456C39.2458 47.5972 41.0023 48.3208 42.6735 49.2059C43.7536 49.7788 44.654 49.8366 45.7585 49.2395C47.2941 48.3985 48.9333 47.7404 50.6837 46.9254ZM75.8113 46.901C76.116 47.0533 76.3247 47.1676 76.5456 47.2712C77.9167 47.911 79.3426 48.4671 80.6589 49.2105C81.7421 49.8199 82.6516 49.8031 83.7408 49.2273C85.4333 48.3315 87.2066 47.5941 89.0728 46.7319C86.9263 45.7477 84.9093 44.8169 82.8831 43.9059C82.7022 43.8398 82.503 43.8447 82.3255 43.9196C80.1805 44.8885 78.0462 45.8727 75.8098 46.901H75.8113ZM60.3362 33.6547C60.2513 33.5726 60.1584 33.4991 60.059 33.4353C58.1516 32.5578 56.2504 31.6757 54.3278 30.8287C54.0768 30.7508 53.806 30.767 53.5661 30.8744C52.4067 31.3771 51.2626 31.9149 50.114 32.4451C49.2319 32.8518 48.3529 33.2647 47.3276 33.7415C49.4726 34.7348 51.4576 35.6611 53.4533 36.5675C53.6387 36.6357 53.8432 36.6302 54.0246 36.5523C56.1117 35.6062 58.1958 34.6388 60.3362 33.6547ZM98.2607 42.5104C96.1279 41.5248 94.1474 40.6092 92.1776 39.7149C91.9772 39.6238 91.7497 39.6119 91.5408 39.6814C89.5177 40.5955 87.5067 41.5232 85.4714 42.4602C85.5537 42.547 85.5948 42.6232 85.6573 42.6521C87.6053 43.5489 89.5573 44.4411 91.5134 45.3288C91.6667 45.4059 91.8431 45.4233 92.0085 45.3775C94.0514 44.4543 96.0822 43.5129 98.2607 42.5104ZM69.6566 55.6623C68.3495 55.0529 67.21 54.5227 66.0644 54.0017C65.1229 53.5736 64.1784 52.847 63.2277 52.8348C62.3137 52.8226 61.3798 53.5477 60.4612 53.9636C59.2729 54.4938 58.0907 55.0529 56.7775 55.6623C58.9332 56.654 60.941 57.5864 62.9596 58.4913C63.1707 58.5595 63.3998 58.5454 63.601 58.4517C65.5708 57.5513 67.539 56.6342 69.6566 55.6623ZM41.0708 42.5104C38.938 41.5248 36.9576 40.6107 34.9771 39.7134C34.8001 39.626 34.5969 39.608 34.4073 39.6631C32.369 40.5772 30.3397 41.5141 28.1612 42.5104C30.3443 43.5144 32.3812 44.4559 34.4271 45.3836C34.5681 45.4292 34.7212 45.4194 34.8552 45.3562C36.8875 44.4376 38.903 43.5083 41.0708 42.5104Z" fill="#1677BE"/>
</g>
<defs>
<clipPath id="clip0_1902_281">
<rect width="78" height="78" fill="white" transform="translate(24 24)"/>
</clipPath>
</defs>
</svg>
