<svg width="20" height="21" viewBox="0 0 20 21" fill="none" xmlns="http://www.w3.org/2000/svg">
<g clip-path="url(#clip0_1128_1188)">
<path d="M20 10.3945C20 4.87168 15.5229 0.394531 10 0.394531C4.47715 0.394531 0 4.87168 0 10.3945C0 15.3857 3.65684 19.5229 8.4375 20.273V13.2852H5.89844V10.3945H8.4375V8.19141C8.4375 5.68516 9.93047 4.30078 12.2146 4.30078C13.3084 4.30078 14.4531 4.49609 14.4531 4.49609V6.95703H13.1922C11.95 6.95703 11.5625 7.72793 11.5625 8.51953V10.3945H14.3359L13.8926 13.2852H11.5625V20.273C16.3432 19.5229 20 15.3857 20 10.3945Z" fill="#1877F2"/>
<path d="M13.8926 13.2852L14.3359 10.3945H11.5625V8.51953C11.5625 7.72871 11.95 6.95703 13.1922 6.95703H14.4531V4.49609C14.4531 4.49609 13.3088 4.30078 12.2146 4.30078C9.93047 4.30078 8.4375 5.68516 8.4375 8.19141V10.3945H5.89844V13.2852H8.4375V20.273C9.47287 20.435 10.5271 20.435 11.5625 20.273V13.2852H13.8926Z" fill="white"/>
</g>
<defs>
<clipPath id="clip0_1128_1188">
<rect width="20" height="20" fill="white" transform="translate(0 0.394531)"/>
</clipPath>
</defs>
</svg>
