<svg width="40" height="61" viewBox="0 0 40 61" fill="none" xmlns="http://www.w3.org/2000/svg">
<g clip-path="url(#clip0_1133_13061)">
<path d="M0.0117141 30.5245C0.0117141 27.0654 0.0117141 23.6062 0.0117141 20.1497C0.0314348 10.6022 6.36702 2.65566 15.6699 0.499268C26.1981 -1.93685 37.0786 4.86195 39.428 15.4114C39.7705 16.9707 39.9493 18.5613 39.9618 20.1576C40.0196 27.0536 39.9973 33.9469 39.9841 40.8455C39.9657 50.695 33.241 58.7953 23.5568 60.6588C12.9721 62.6957 2.33086 55.4307 0.402187 44.8155C0.167412 43.4806 0.0425311 42.1286 0.028806 40.7733C-0.0237824 37.3562 0.0117141 33.9403 0.0117141 30.5245ZM2.11525 30.4996C2.11525 33.8931 2.11525 37.2866 2.11525 40.68C2.11525 41.401 2.14944 42.1246 2.21912 42.843C3.27088 53.5199 13.6886 60.9123 24.1195 58.3869C32.1958 56.4314 37.8241 49.387 37.8688 41.0898C37.9069 34.0191 37.8858 26.9472 37.8688 19.8752C37.8585 18.9131 37.7763 17.953 37.6229 17.0031C36.1767 7.57647 26.8844 0.809197 17.4566 2.2945C8.4482 3.71021 2.12577 11.0776 2.11656 20.1878C2.11131 23.6259 2.11087 27.0636 2.11525 30.5009V30.4996Z" fill="white"/>
<path d="M18.9543 17.8804C18.9543 15.1882 18.9464 12.496 18.9622 9.80117C18.9622 9.4873 18.9885 9.06048 19.183 8.88188C19.4552 8.63893 19.9548 8.40254 20.2493 8.49841C20.5793 8.60478 20.9158 9.04735 21.0184 9.4085C21.1498 9.87471 21.0578 10.4066 21.0578 10.9109V25.6943C21.0578 25.8703 21.0578 26.045 21.0578 26.2197C21.0223 26.8907 20.6042 27.3333 20.006 27.3346C19.4079 27.3359 18.9674 26.8934 18.9543 26.2223C18.9385 24.7777 18.9543 23.3331 18.9543 21.8885C18.949 20.5525 18.949 19.2164 18.9543 17.8804Z" fill="white"/>
</g>
<defs>
<clipPath id="clip0_1133_13061">
<rect width="40" height="61" fill="white"/>
</clipPath>
</defs>
</svg>
