<svg width="20" height="21" viewBox="0 0 20 21" fill="none" xmlns="http://www.w3.org/2000/svg">
<path d="M6.2896 18.3995C13.8368 18.3995 17.9648 12.1467 17.9648 6.72428C17.9648 6.54668 17.9648 6.36988 17.9528 6.19388C18.7559 5.61301 19.4491 4.89378 20 4.06988C19.2512 4.40188 18.4567 4.61951 17.6432 4.71548C18.4998 4.20272 19.141 3.39613 19.4472 2.44588C18.6417 2.92388 17.7605 3.26073 16.8416 3.44188C16.2229 2.78403 15.4047 2.34841 14.5135 2.20245C13.6223 2.05648 12.7078 2.20831 11.9116 2.63442C11.1154 3.06054 10.4819 3.73719 10.109 4.55967C9.73605 5.38215 9.64462 6.3046 9.8488 7.18428C8.21741 7.10244 6.62146 6.67847 5.16455 5.93988C3.70763 5.20129 2.4223 4.1646 1.392 2.89708C0.867274 3.80041 0.70656 4.86977 0.942583 5.88743C1.17861 6.90509 1.79362 7.79454 2.6624 8.37468C2.00936 8.35554 1.37054 8.17937 0.8 7.86108V7.91308C0.800259 8.86045 1.12821 9.77857 1.72823 10.5117C2.32824 11.2449 3.16338 11.7479 4.092 11.9355C3.4879 12.1003 2.85406 12.1243 2.2392 12.0059C2.50151 12.8211 3.01202 13.5341 3.69937 14.045C4.38671 14.5559 5.21652 14.8393 6.0728 14.8555C5.22203 15.5242 4.24776 16.0186 3.20573 16.3105C2.16369 16.6023 1.07435 16.6858 0 16.5563C1.87653 17.7605 4.05994 18.3992 6.2896 18.3963" fill="#1DA1F2"/>
</svg>
